SplineFontDB: 3.0
FontName: CoelacanthExtraLt
FullName: CoelacanthExtraLt
FamilyName: Coelacanth
Weight: ExtraLight

StartChar: a
Encoding: 97 97 0
Width: 413
VWidth: 1159
Flags: HMW
LayerCount: 2
Fore
SplineSet
268.787 161.753 m 1
 261.4531 163.23 255.165282112 163.123583889 247.833 163.23 c 1
 219.141430872 163.707 178.531277614 158.208140899 164.247 153.184 c 0
 122.865815 139.440329485 87.259 119.719403464 87.259 79.121 c 3
 87.259 48.1625266576 98.7870096668 23.983 132.489 23.983 c 3
 175.127328731 23.983 221.312896635 43.2589821428 268.695 65.322 c 1
 266.741 78.3396131672 266.741 94.8957637912 266.741 114.138 c 3
 266.741 134.660326023 267.787 147.4685 268.787 161.753 c 1
213.276 427.724 m 3
 235.938583008 427.724 301.223456444 377.696576784 311.23 359.954 c 0
 317.083667969 348.562710938 319.276 324.272504883 319.276 310 c 3
 319.276 242.042623047 314.276 180.036113989 314.276 114.138 c 3
 314.276 89.625926813 315.315080521 64.5360370702 320.276 50.69 c 0
 325.80402821 30.4686334416 335.934181053 29.598 339.414 29.598 c 3
 350.367875565 29.598 372.275626696 44.1073678449 388.707 60.431 c 1
 404.569 38.632 l 1
 373.313235294 17.1465 327.01971405 -9.569 313.218 -9.569 c 3
 297.755244227 -9.569 278.087891454 2.31629887602 271.172 41.368 c 1
 214.602798654 13.2594032883 167.921412185 -9.954 105.816 -9.954 c 3
 54.418693205 -9.954 43.385 25.1813743297 43.385 68.138 c 3
 43.385 87.8027206 47.5706354749 109.728985532 52.77 119.983 c 0
 60.279800815 134.13484181 64.9364848404 138.38519138 78.017 146.23 c 0
 129.93796861 175.761342105 189.415959641 189.88075 269.31 190.46 c 1
 270.787 232.129059 272.264 293.787 272.264 293.787 c 3
 272.264 312.293348633 269.171756122 329.283629662 263.8875 339.6405 c 0
 256.368735129 352.343540039 208.362320652 389.08 186.08 389.08 c 3
 164.397593553 389.08 110.012 367.870919341 110.012 336.753 c 3
 110.012 328.960260127 115.453015625 317.701780408 116.535 313.3305 c 1
 65.862 294.7785 l 1
 62.339 304.83244131 58.293 319.591125 58.293 327.862 c 3
 58.293 343.083432111 65.7028720645 358.982290924 84.1005 372.4395 c 0
 128.979848101 405.385 198.816901899 427.724 213.276 427.724 c 3
EndSplineSet
Substitution2: "case-1" A
Substitution2: "pcap-1" a.pcap
Substitution2: "smcp-1" a.smcp
EndChar

StartChar: b
Encoding: 98 98 1
Width: 507
VWidth: 1159
Flags: HMW
LayerCount: 2
Fore
SplineSet
113.15 327.707 m 1
 111.196 232.8115 110.673 178.5855 110.673 83.69 c 3
 110.673 78.4431578947 112.393239012 72.4189711644 119.288 67.075 c 0
 154.498678669 39.4759894894 203.284020552 23.121 250.46 23.121 c 3
 339.577546627 23.121 416.126 94.44975 416.126 194.31 c 3
 416.126 283.596408 354.318116132 380.925 253.971 380.925 c 3
 195.517008435 380.925 126.435059042 340.735496268 113.15 327.707 c 1
4.908 681.569 m 1
 48.6813914247 697.342392857 86.7462643146 715.041464286 119.765 759 c 1
 141.242 745.862 l 1
 129.165794737 716.800325581 123.757271322 687.765426445 122.719 667 c 0
 116.288 556.079028391 113.15 502.049239772 113.15 361.322 c 1
 144.822221801 378.991546628 210.697472885 414.862 276.46 414.862 c 3
 385.057265193 414.862 463.661 313.21091902 463.661 216.799 c 3
 463.661 89.6556217254 355.626947462 -11.862 224.31 -11.862 c 3
 145.203238923 -11.862 126.615221026 18.816 94.167 18.816 c 3
 79.9874127062 18.816 65.9826076187 -1.93152 59.661 -10 c 1
 39.753 1.523 l 1
 43.184 10.385 51.954 25.339 55.954 35.77 c 0
 60.3807830306 49.0503490919 63.1985127011 72.1841581267 64.184 145 c 0
 66.184 288 68.184 367 68.184 510 c 3
 68.184 556.082529215 71.470828687 622.795307457 69.431 646.08 c 0
 66.8526923077 669.220661143 62.9738243923 668.879 53.264 668.879 c 3
 45.3463535421 668.879 27.2848982631 660.934846154 13.247 655.908 c 1
 4.908 681.569 l 1
EndSplineSet
Substitution2: "case-1" B
Substitution2: "pcap-1" b.pcap
Substitution2: "smcp-1" b.smcp
EndChar

StartChar: c
Encoding: 99 99 2
Width: 421
VWidth: 1159
Flags: HMW
LayerCount: 2
Fore
SplineSet
356.603 331.603 m 1
 319.772463246 353.360368421 269.372852984 369.695 236.419 369.695 c 3
 145.817762693 369.695 84.058 295.391302305 84.058 205.167 c 3
 84.058 88.4621923668 171.197518063 26.167 255.874 26.167 c 3
 302.119307424 26.167 341.249917324 46.2215 368.523 66.276 c 1
 383.569 43.615 l 1
 350.310944331 17.292839447 292.598686475 -11.954 233.908 -11.954 c 3
 184.672010526 -11.954 34.954 12.9320367186 34.954 185.816 c 3
 34.954 309.129332725 144.136130814 412.523 264.138 412.523 c 3
 312.138 412.523 361.137937442 393.188791579 392.138 370.954 c 1
 391.615 356.833 385.368 348.339 356.603 331.603 c 1
EndSplineSet
Substitution2: "case-1" C
Substitution2: "pcap-1" c.pcap
Substitution2: "smcp-1" c.smcp
EndChar

StartChar: d
Encoding: 100 100 3
Width: 511
VWidth: 1159
Flags: HMW
LayerCount: 2
Fore
SplineSet
381.034 57.77 m 1
 333.541143971 22.5729195275 267.989859908 -7.862 197.477 -7.862 c 3
 97.4769674629 -7.862 34.477 77.4962156579 34.477 172 c 3
 34.477 252.816275423 75.23 321.477 133.092 360.908 c 0
 179.98055365 392.466126223 236.935046651 407.862 267.477 407.862 c 3
 297.569932201 407.862 366.182010597 385.313845406 383.034 382.661 c 1
 383.034 480.177524439 387.065411194 574.723491747 388.666 647.942 c 0
 389.62 674.400654259 384.051 681.758 375.16 681.758 c 3
 367.275090694 681.758 342.16964449 664.193183674 321.281 659.494 c 1
 314.712 687.201 l 1
 353.626 696.65075 405.651 727.930125 435.322 754.954 c 1
 455.799 743.247 l 1
 452.2794 728.990374 447.466475347 701.477792593 446.569 690.293 c 0
 430.920253625 533.964850197 427.477 355.447849627 427.477 185 c 3
 427.477 125.783095115 428.477 57.756466358 432.138 12.443 c 1
 433.184 4.25519449414 439.088209 1.489 442.322 1.489 c 1
 454.689369135 3.581 488.487724051 20.644 502 27.029 c 1
 513.862 4.322 l 1
 466.366437436 -17.9074565217 419.261402357 -38.678 404.373 -38.678 c 3
 396.0745 -38.678 384.08 -33.8676544558 383.034 -12.138 c 1
 381.988 11.5195589209 381.034 53.6578273488 381.034 57.77 c 1
247.08 372.356 m 3
 217.89219793 372.356 174.280535171 354.72556316 150.23 338.247 c 0
 110.930950569 310.325672407 79.397 261.585580835 79.397 200.242 c 3
 79.397 115.667237326 132.184803026 29.213 228.334 29.213 c 3
 289.082965023 29.213 345.029199029 57.9003084112 379.465 89.063 c 1
 379.988 167.279755012 381.557 248.667452976 382.511 327.942 c 1
 382.511 344.155 367.959 346.201 354.361 349.339 c 0
 320.345031007 359.962264486 260.163164731 372.356 247.08 372.356 c 3
EndSplineSet
Substitution2: "case-1" D
Substitution2: "pcap-1" d.pcap
Substitution2: "smcp-1" d.smcp
EndChar

StartChar: e
Encoding: 101 101 4
Width: 409
VWidth: 1159
Flags: HMW
LayerCount: 2
Fore
SplineSet
210.138 416.431 m 3
 268.33688992 416.431 328.093640808 368.051349021 349.615 315.753 c 0
 352.808836959 308.053350455 360.834896104 303.385 376.799 304.293 c 1
 377.753 280.293 l 1
 288.264487 263.1465 178.7727815 239.397341 92.443 218.7615 c 1
 91.2982 209.221805792 90.012 198.091694208 90.012 188.552 c 3
 90.012 73.5324125 158.17659573 27.121 219.012 27.121 c 3
 271.857056 27.121 318.325991 52.6189948709 350.661 79.276 c 1
 368.799 56.092 l 1
 327.384606 22.3554735322 268.221684 -10.477 200.184 -10.477 c 3
 102.95395541 -10.477 39.339 65.5264988414 39.339 178.092 c 3
 39.339 354.141594502 174.235349652 416.431 210.138 416.431 c 3
202.816 380.402 m 3
 162.465581575 380.402 108.73962069 323.458421139 95.874 245.2845 c 1
 302.172 291.063 l 0
 307.787 291.8245 l 1
 295.721123567 334.313371418 249.718053114 380.402 202.816 380.402 c 3
EndSplineSet
Substitution2: "case-1" E
Substitution2: "pcap-1" e.pcap
Substitution2: "smcp-1" e.smcp
EndChar

StartChar: f
Encoding: 102 102 5
Width: 357
VWidth: 1159
Flags: HMW
LayerCount: 2
Fore
SplineSet
340.397 762.201 m 3
 379.739233645 762.201 427.167 748.392 451.213 726.816 c 1
 450.69 712.695 444.058 704.109 418.431 684.758 c 1
 383.037971963 705.801714286 347.088333333 721.988 314.247 721.988 c 3
 229.607700517 721.988 174.765 636.246319338 169.535 501.339 c 0
 169.012 491.287049505 167.966 441.016811881 167.443 404.632 c 1
 223.549622517 405.678 274.261377483 405.678 330.368 406.724 c 1
 330.368 371.218 l 1
 274.451578947 372.264 222.836421053 372.787 166.92 373.833 c 1
 166.397 339.13419403 166.397 310.766391144 166.397 296.339 c 3
 165.92 210.247577406 166.320489258 129.301101278 169.058 45.414 c 0
 169.594765665 32.8534125245 172.718974303 30.5812780042 186.334 29.661 c 0
 210.984641843 28.6013988674 233.393068493 27.9455 257.903 26.23 c 1
 254.426 -4.569 l 1
 220.077875 -0.250428571428 171.009125 1.477 136.661 1.477 c 3
 110.981 1.477 71.605 -1.523 45.925 -5.523 c 1
 43.494 24.753 l 1
 56.5345 26.23 72.5075130917 27.4432182411 86.172 29.184 c 0
 110.142235521 33.675775 112.109 39.9268513325 113.155 72.414 c 0
 115.77 127.765891892 117.339 200.149135135 117.816 269.339 c 3
 117.816 291.623663648 117.293 332.702382979 117.293 373.833 c 1
 93.9044864863 373.31 71.4515135135 371.741 48.063 371.218 c 1
 48.063 406.724 l 1
 71.4515135135 406.201 93.9044864863 405.155 117.293 404.632 c 1
 117.293 441.88796875 117.293 484.875625 117.293 496.339 c 3
 117.293 605.315606635 156.50073358 662.573972549 214.46 709.247 c 0
 245.588764417 733.954452943 285.357866667 762.201 340.397 762.201 c 3
EndSplineSet
Substitution2: "salt-1" f.alt
Substitution2: "case-1" F
Substitution2: "pcap-1" f.pcap
Substitution2: "smcp-1" f.smcp
EndChar

StartChar: g
Encoding: 103 103 6
Width: 475
VWidth: 1159
Flags: HMW
LayerCount: 2
Fore
SplineSet
123.719 -5.293 m 3
 123.719 -34.4307646484 173.547555312 -44.833 222.816 -44.833 c 3
 251.489955056 -44.833 275.696705223 -41.695 305.138 -41.695 c 3
 412.460788445 -41.695 453.816 -104.664957464 453.816 -159.695 c 3
 453.816 -289.645746268 250.1096902 -337.862 176.816 -337.862 c 3
 57.1669324808 -337.862 23.816 -264.871742027 23.816 -212.276 c 3
 23.816 -133.392757353 108.856871869 -85.4636985294 123.201 -76.477 c 1
 69.8424413935 -47.4229733607 68.431 -20.707 64.862 6 c 1
 98.0988691406 29.9262136719 150.747914067 53.1891478261 187.201 65.816 c 1
 113.200030535 80.1517116564 48.816 140.497572 48.816 227.954 c 3
 48.816 347.224388017 146.153611477 412.138 236.816 412.138 c 3
 274.954641901 412.138 314.500457218 400.117105263 342.431 377 c 1
 366.390281765 383.954 387.43341456 386.046 415.23 386.046 c 3
 430.9455 386.046 450.8518 383.046 457.138 379.046 c 1
 443.908 337.218 l 1
 427.6271213 343.833 412.315663661 347.402 395.879 347.402 c 0
 385.949892441 347.402 378.529213206 347.402 366.092 344.494 c 1
 384.271915633 317.37707629 398.816 286.471152687 398.816 239.046 c 3
 398.816 136.872753454 312.629708579 92.3731049176 243.247 63.908 c 0
 128.949387683 16.7670991897 123.719 7.94273740748 123.719 -5.293 c 3
221.649 379.247 m 3
 135.072995159 379.247 95.305 319.858478 95.305 244.167 c 3
 95.305 156.307735 160.860574585 103.4764 240.046 91.569 c 1
 299.903146942 114.11298069 348.666 156.457376419 348.666 227.017 c 3
 348.666 292.287026633 318.35074304 379.247 221.649 379.247 c 3
59.322 -198.155 m 3
 59.322 -279.877813 144.435353255 -291.896 195.121 -291.896 c 3
 239.0842826 -291.896 418.31 -260.639417815 418.31 -171.724 c 3
 418.31 -122.630967322 376.578590145 -89.753 305.661 -89.753 c 3
 279.232152247 -89.753 251.859847753 -92.368 225.431 -92.368 c 3
 200.063690277 -92.368 173.756614646 -91.0039841 158.724 -88.276 c 1
 88.2741491033 -119.669990059 59.322 -161.013724959 59.322 -198.155 c 3
EndSplineSet
Substitution2: "case-1" G
Substitution2: "pcap-1" g.pcap
Substitution2: "smcp-1" g.smcp
EndChar

StartChar: h
Encoding: 104 104 7
Width: 531
VWidth: 1159
Flags: HMW
LayerCount: 2
Fore
SplineSet
139.535 321.414 m 1
 138.489 284.297954545 137.443 237.814067432 137.443 189 c 3
 137.443 125.409032541 138.173705071 66.3343943563 139.581 43.506 c 0
 140.619108286 34.3434823886 152.561638113 31.4553781949 159.656 30.092 c 0
 176.590287862 28.569 204.526736842 24.184 220.552 22.707 c 1
 216.075 -6.523 l 1
 179.25372973 -0.486443112068 147.098038263 4.477 111.276 4.477 c 3
 83.8100625 4.477 50.8509375 -0.523 23.385 -4.523 c 1
 19.908 24.184 l 1
 37.46675 26.7564 47.9999775085 28.4256978956 64.603 30.615 c 0
 79.7956004332 33.866381091 85.7942201798 41.1406174543 87.339 60.736 c 0
 90.252125 116.744727273 92 203.989090909 92 274 c 3
 92 525.452286932 91.3918542692 625.111401241 90.431 647.465 c 0
 89.8285 659.1402 86.2135 669.356 75.971 669.356 c 3
 71.4663571428 669.356 42.0440714286 654.77 26.816 652.339 c 1
 18.816 680.046 l 1
 60.5743483871 690.902246575 108.757058065 717.582328767 143.288 752.092 c 1
 162.288 738 l 1
 155.879142857 722.972615385 148.657218148 694.056926362 147.334 682.184 c 0
 141.627 640.360995522 140.535 464.341844312 139.535 351.46 c 1
 196.424384615 388.78462 275.854846154 411.661 320.937 411.661 c 3
 402.297052631 411.661 439.14402041 358.467878535 443.523 301 c 0
 445.166753307 280.81006669 446 234.695238095 446 183 c 3
 446 122.206186047 445 63.5454883721 445 45.414 c 0
 445 35.2924090909 455.433029339 32.0869058295 464.937 30.569 c 0
 476.344334448 29.1414 506.16326087 25.5656 517.615 22.23 c 1
 511.184 -6.523 l 1
 478.790672897 2.477 457.195121496 4.477 422.31 4.477 c 3
 391.468235294 4.477 361.654529412 -0.523 334.925 -6.523 c 1
 330.017 22.184 l 1
 345.549354839 24.7564 356.83310877 26.2504033422 375.62 28.615 c 0
 392.945344828 32.5162 395.644007658 39.7579413731 397.465 57.874 c 0
 398.511 78.3165074627 399.511 124.302103711 399.511 143.477 c 3
 399.511 193.74940625 398.862646714 264.276920383 395.465 289.724 c 0
 388.215205168 340.859836002 357.68716279 374.586 299.925 374.586 c 3
 245.98315748 374.586 183.596141732 350.84625 139.535 321.414 c 1
EndSplineSet
Substitution2: "case-1" H
Substitution2: "pcap-1" h.pcap
Substitution2: "smcp-1" h.smcp
EndChar

StartChar: k
Encoding: 107 107 10
Width: 486
VWidth: 1159
UnlinkRmOvrlpSave: 1
Flags: HMW
LayerCount: 2
Fore
SplineSet
131.397 238.431 m 1
 175.043913793 266.051879121 238.310702716 306.801732743 280.31 338.971 c 0
 288.637003736 345.613906311 302.126 357.204333333 302.126 363.586 c 3
 302.126 374.330578947 285.910438981 372.753157895 267.172 375.431 c 1
 269.172 401 l 1
 290.803113636 399 319.921920454 399 342.385 399 c 3
 373.49025 399 414.021333333 399.954 444.184 403 c 1
 446.184 374.816 l 1
 375.907970149 368.788346154 363.035323 356.697606106 332.218 337.126 c 2
 203.075 256.431 l 1
 273.758485981 184.276635468 341.937116474 114.244458128 416.121 41.029 c 1
 438.058827586 33.06475 462.736275862 27.29075 487 23.707 c 1
 483.523 -5.523 l 1
 450.385659574 0.477 432.842361702 4.477 391.908 4.477 c 3
 363.463434783 4.477 333.122565217 -2.523 304.678 -4.523 c 1
 301.678 24.184 l 1
 342.79306383 29.184 342.79306383 32.3254 355.356 33.23 c 1
 298.596763361 92.324989011 221.662187845 173.587714286 164.816 232.402 c 1
 132.443 213.046 l 1
 132.443 143.82965 133.489 76.686258358 135.581 50.184 c 0
 136.627 32.3447142857 141.066697735 33.290116014 156.581 29.661 c 0
 170.659697343 26.6964463306 182.192764706 25.297 200.121 23.184 c 1
 194.167 -5.569 l 1
 162.557021053 -0.0893636363636 144.892621053 4.477 105.845 4.477 c 3
 81.21125 4.477 51.65075 -2.523 27.017 -4.523 c 1
 25.017 24.184 l 1
 37.32875 25.8518 50.9722208516 28.1887921658 60.833 30.138 c 0
 78.0407606882 34.8090885997 81.77 39.8168262366 82.816 57.874 c 0
 85.431 114.634363636 87.523 203.045172287 87.523 274 c 3
 87.523 545.979204546 86.6076581238 608.75776016 85.431 642.218 c 0
 84.848375 658.218 81.352625 672.218 71.448 672.218 c 3
 64.5405365854 672.218 39.5754390244 658.517857143 24.247 655.678 c 1
 16.247 682.908 l 1
 57.4556493506 693.620493151 104.211616883 719.934657534 138.288 754 c 1
 157.811 739.908 l 1
 151.402142857 724.623769231 143.420698595 695.172542651 142.857 683.138 c 0
 137.399857143 608.855093541 131.397 361.245405345 131.397 238.431 c 1
EndSplineSet
Substitution2: "case-1" K
Substitution2: "pcap-1" k.pcap
Substitution2: "smcp-1" k.smcp
EndChar

StartChar: l
Encoding: 108 108 11
Width: 248
VWidth: 1159
Flags: HMW
LayerCount: 2
Fore
SplineSet
149.506 300 m 3
 149.506 216.569 149.506 87.0609982407 152.644 49.707 c 0
 153.69 33.2780925769 162.839111546 32.2315589232 179.874 30.138 c 0
 194.773540842 27.4395258339 215.305 25.933 239.322 22.23 c 1
 234.799 -7 l 1
 199.073128 -1 161.629016 4 120.293 4 c 3
 95.0139188069 4 45.319 -1 15.724 -5 c 1
 13.724 23.707 l 1
 28.6947027027 25.3748 48.530276608 27.9829533296 64.08 29.661 c 0
 90.896 33.753 96.741 37.8950842077 97.787 63.121 c 0
 100.402 118.503363636 101.971 204.772045454 101.971 274 c 3
 101.971 536.94246875 101.475359855 615.896991042 100.402 639.833 c 0
 99.8392500002 665.5002 96.4627500002 673.649 86.896 673.649 c 3
 81.207805195 673.649 57.281 659.54 33.925 653.293 c 1
 25.925 680.523 l 1
 68.1634258065 691.235493151 116.900070968 718.503657534 151.828 751.615 c 1
 170.828 736.092 l 1
 158.993923077 719.707 157.874 707.11035742 157.351 686 c 0
 152.121 611 149.506 424 149.506 300 c 3
EndSplineSet
Substitution2: "case-1" L
Substitution2: "pcap-1" l.pcap
Substitution2: "smcp-1" l.smcp
EndChar

StartChar: m
Encoding: 109 109 12
Width: 791
VWidth: 1159
Flags: HMW
LayerCount: 2
Fore
SplineSet
700.184 164.816 m 3
 700.184 111.894429907 701.753 63.3829906542 701.753 46.845 c 0
 701.753 33.7963636364 708.720063042 32.4013214455 720.029 30.569 c 0
 731.69569895 29.0111026161 768.140673469 26.138 780.477 23.184 c 1
 775.954 -6.046 l 1
 735.2315 2.954 707.039 4.954 663.184 4.954 c 3
 638.512191489 4.954 607.261234043 -0.046 585.879 -6.046 c 1
 581.879 22.661 l 1
 594.68265625 25.4242 605.559323934 26.7234664124 619.126 29.569 c 0
 643.564732759 34.4437272727 648.199194624 34.5875611517 650.034 68.368 c 0
 651.08 87.6714029851 653.695 131.104059702 653.695 149.201 c 3
 653.695 196.584328011 652.710620809 246.999981661 650.557 266.569 c 0
 645.053560663 326.233826417 622.411826087 363.971 558.08 363.971 c 3
 509.736982532 363.971 460.871114286 349.319 418.259 329.339 c 1
 420.054 320.306565217 421.167 311.41554197 421.167 299.661 c 3
 421.167 272.793142857 420.644 225.505714286 420.644 186.816 c 3
 420.644 127.74855814 422.213 66.5332093024 422.213 48.276 c 0
 422.213 35.5742727273 429.280243403 31.6723985311 441.92 30.092 c 0
 454.44404697 28.7696012908 473.734285714 26.615 486.46 22.707 c 1
 481.46 -6.046 l 1
 444.809852631 2.954 431.653389474 4.954 392.184 4.954 c 3
 364.52032653 4.954 325.791183674 -0.046 301.816 -6.046 c 1
 297.339 22.184 l 1
 312.309702704 25.615 331.574295683 25.6429208905 347.695 29.569 c 0
 364.490571428 33.88 368.136194624 37.5042594544 369.971 68.368 c 0
 371.017 87.1018507463 374.155 129.253014926 374.155 146.816 c 3
 374.155 193.51271875 371.837489117 263.613062906 370.494 282.661 c 0
 367.879 330.116909091 350.963614286 376.356 300.017 376.356 c 3
 236.9438 376.356 185.696825 346.851528409 142.334 324.724 c 1
 141.288 230.501236051 137.627 103.74918455 137.627 63.368 c 3
 137.627 34.10735 144.373372862 33.8955293201 164.903 30.569 c 0
 179.54089687 28.5426591831 203.095736842 25.7104 216.736 22.707 c 1
 212.259 -6.046 l 1
 175.605324324 2.339 147.410189189 4.954 107.937 4.954 c 3
 80.4710625 4.954 47.5119375 -0.046 20.046 -4.046 c 1
 16.569 24.184 l 1
 30.5672857142 26.5656 37.9635820441 27.2345967706 52.201 30.138 c 0
 77.5421585729 35.4908194001 84.2908240175 38.9998678089 87.477 68.368 c 0
 91.138 102.253268293 91.184 167.828753317 91.184 202.816 c 3
 91.184 225.281621149 89.6946474654 302.994023373 86.954 325.172 c 0
 83.293 351.172275113 78.678 351.741 67.356 351.741 c 3
 56.9974160839 351.741 54.2032543706 348.072565217 36.293 345.017 c 1
 31.908 370.678 l 1
 60.0835 376.714826923 88.259 380.164442308 126.334 415.523 c 1
 147.811 404.339 l 1
 143.969428572 390.625535211 141.173857143 370.817197183 140.765 350.247 c 1
 190.113402597 378.923328572 258.270928571 415 323.552 415 c 3
 373.018096774 415 397.284483871 383.178537313 410.351 352.293 c 1
 451.200421053 372.698 510.903421053 400.523 589.46 400.523 c 3
 668.848037383 400.523 701.23 352.192224138 701.23 275.937 c 3
 701.23 241.983361111 700.184 202.885231481 700.184 164.816 c 3
EndSplineSet
Substitution2: "case-1" M
Substitution2: "pcap-1" m.pcap
Substitution2: "smcp-1" m.smcp
EndChar

StartChar: n
Encoding: 110 110 13
Width: 526
VWidth: 1159
Flags: HMW
LayerCount: 2
Fore
SplineSet
90.293 329.465 m 0
 85.5612084667 345.305066214 82.7171905944 348.879 73.08 348.879 c 3
 65.6597112299 348.879 50.4966363636 340.724 34.862 340.724 c 1
 31.908 367.339 l 1
 60.9374838709 373.825307692 89.9669677418 377.53176923 129.196 415.523 c 1
 150.673 402.908 l 1
 146.908089286 389.568985916 144.104 367.482884763 144.104 350.293 c 1
 195.896588957 381.282001976 252.005226994 414.523 319.983 414.523 c 3
 396.386677966 414.523 446.569 377.887197789 446.569 289.213 c 3
 446.569 255.831771428 444.569 219.415885714 444.569 183 c 3
 444.569 120.214656286 443.48535886 64.6542373378 444.668530506 45.2877945364 c 1
 445.714530506 35.0054300519 453.107842469 32.8967833501 467.799 30.569 c 0
 477.945383789 28.8815654297 508.652962891 24.8024931641 516.908 22.23 c 1
 510 -6.046 l 1
 478.842550781 2.56364257813 446.801211914 5.431 413.247 5.431 c 3
 391.775238281 5.431 339.533829101 -1.26039355469 320.925 -7 c 1
 314.063 20.753 l 1
 323.406077149 23.5160136719 357.684113513 27.669073829 367.804 30.046 c 0
 386.187486328 34.1129619141 390.222706108 38.6484111837 393.511 68.368 c 0
 395.2725 91.5444277344 398.08 140.352164179 398.08 162.08 c 3
 398.08 202.7256875 397.615846036 262.461102558 396.419 280.322 c 0
 393.530222222 335.7605 371.396555556 373.787 300.632 373.787 c 3
 240.160195121 373.787 187.952552147 350.3901 145.673 325.431 c 1
 144.627 231.026341772 140.966 103.851385483 140.966 63.368 c 3
 140.966 35.0067558594 148.070730873 34.2941954615 168.242 29.615 c 0
 176.165023437 27.7887509766 212.886691406 23.5160136719 221.506 21.753 c 1
 216.552 -7 l 1
 186.769652344 -1 143.349369141 5.431 111.276 5.431 c 3
 87.2385 5.431 44.0835 -1.477 20.046 -5.477 c 1
 15.615 23.23 l 1
 26.0527548828 25.23 46.060867649 27.8727015978 56.494 30.138 c 0
 81.75975 35.4639580078 87.6298240175 39.3841494996 90.816 68.368 c 0
 94.477 102.373472656 95 163.897560976 95 199 c 3
 95 222.93853211 94.0527173774 306.81771711 90.293 329.465 c 0
EndSplineSet
Substitution2: "case-1" N
Substitution2: "pcap-1" n.pcap
Substitution2: "smcp-1" n.smcp
EndChar

StartChar: o
Encoding: 111 111 14
Width: 505
VWidth: 1159
Flags: W
HStem: -11 31.845<192.102 329.798> 385.448 34.983<178.446 315.432>
VStem: 32 51.196<122.816 294.278> 420.758 52.242<106.35 282.919>
LayerCount: 2
Fore
SplineSet
256.523 420.431 m 3
 391.821125 420.431 473 310.986626168 473 203.569 c 3
 473 77.4103473309 378.793293795 -11 255.523 -11 c 3
 130.788968 -11 32 72.7172 32 198.293 c 3
 32 353.296123479 166.7138 420.431 256.523 420.431 c 3
245.54 385.448 m 3
 170.507966198 385.448 83.196 323.791200282 83.196 215.552 c 3
 83.196 109.27719722 160.101709 20.845 260.23 20.845 c 3
 361.486261971 20.845 420.758 103.150426495 420.758 191.017 c 3
 420.758 306.427906299 336.116149941 385.448 245.54 385.448 c 3
EndSplineSet
Substitution2: "case-1" O
Substitution2: "pcap-1" o.pcap
Substitution2: "smcp-1" o.smcp
EndChar

StartChar: p
Encoding: 112 112 15
Width: 513
VWidth: 1159
Flags: HMW
LayerCount: 2
Fore
SplineSet
86.615 34.816 m 3
 86.615 167.923632604 84.523 298.845768 82.431 320.666 c 1
 79.816 345.698734754 71.7813658692 355.327 63.741 355.327 c 3
 56.3527704918 355.327 37.2857205882 343.406829268 8.862 335.833 c 1
 1.908 363.494 l 1
 32.549177941 369.694342523 79.7531088241 391.839328738 114.535 426.385 c 1
 128.608115385 419.279049699 131.535 421.292026591 132.581 367.816 c 1
 181.211708478 388.17670075 249.067967609 413.385 305.615 413.385 c 3
 402.615165913 413.385 478.615 309.605440831 478.615 216 c 3
 478.615 78.7013185468 358.61502544 -9.046 241.615 -9.046 c 3
 203.136527287 -9.046 165.898999615 2.01243164468 133.627 17.494 c 1
 133.627 -68.9416163827 133.627 -250.24054785 136.242 -289.247 c 0
 137.288 -305.398385678 148.546522284 -307.857979246 168.242 -308.77 c 0
 181.699754992 -309.435013519 197.4500752 -311.293 209.133 -311.816 c 1
 207.656 -341.046 l 1
 177.851129 -340.046 149.959490445 -338.046 115.213 -338.046 c 3
 91.0430371 -338.046 52.3709629 -343.046 28.201 -347.046 c 1
 24.724 -319.339 l 1
 34.8495 -317.862 41.9479505629 -316.317679211 52.339 -314.339 c 0
 78.2839503 -308.4026 80.862 -302.6912262 81.908 -275.063 c 0
 84.523 -220.808221 86.615 -124.818593 86.615 34.816 c 3
282.603 377.356 m 3
 219.456028478 377.356 174.144611304 354.3470535 131.535 337.632 c 1
 132.581 62.569 l 1
 167.168562741 41.4468015745 205.948213049 23.845 257.305 23.845 c 3
 351.39267232 23.845 432.649 90.7743038489 432.649 196.126 c 3
 432.649 281.130165465 373.027856509 377.356 282.603 377.356 c 3
EndSplineSet
Substitution2: "case-1" P
Substitution2: "pcap-1" p.pcap
Substitution2: "smcp-1" p.smcp
EndChar

StartChar: q
Encoding: 113 113 16
Width: 491
VWidth: 1159
Flags: HMW
LayerCount: 2
Fore
SplineSet
387.281 66.092 m 1
 388.327 163.586161702 390.373 218.68959991 390.373 315.126 c 3
 390.373 320.92862069 388.220808516 337.939989077 382.758 343.172 c 0
 356.294298967 367.82079143 310.368894737 379.494 269.712 379.494 c 3
 166.170605839 379.494 85.489 293.6558 85.489 198.782 c 3
 85.489 110.916640884 148.255904529 22.075 242.828 22.075 c 3
 318.762533088 22.075 373.751628677 56.6910937997 387.281 66.092 c 1
386.758 28.862 m 1
 348.6203125 12.5724 289.68025 -11.862 220.339 -11.862 c 3
 115.339 -11.862 35.339 87.6141894737 35.339 181 c 3
 35.339 307.264983194 154.339 413.954 295.339 413.954 c 3
 366.298766667 413.954 382.023866667 391.385 407.155 391.385 c 3
 423.514657895 391.385 429.204973684 411.31175 434.184 417.954 c 1
 456.046 407.431 l 1
 448.322 391.2649375 446.420413173 380.392024585 444.661 368.753 c 0
 441.3322 352.033368421 438.969137397 333.461623612 436.339 262.862 c 0
 435.479971788 238.332623044 435.339 134.23817341 435.339 93 c 3
 435.339 -141.190705202 437.631818613 -229.301633725 440.046 -268.741 c 0
 442.138 -303.403911041 451.587562089 -306.522871267 470.046 -308.017 c 0
 478.577895423 -308.778821222 497.349384615 -310.54 503.322 -310.54 c 1
 501.322 -340.816 l 1
 481.868181818 -339.816 453.110363636 -338.816 417.586 -338.816 c 3
 393.107181103 -338.816 338.437818897 -343.816 313.959 -347.816 c 1
 311.482 -319.632 l 1
 323.024793103 -318.51275 330.283489934 -317.458682773 341.913 -315.155 c 0
 371.76358801 -309.546821428 382.772961739 -303.960847578 384.666 -275.741 c 0
 386.758 -242.724590909 386.758 -94.6832727273 386.758 28.862 c 1
EndSplineSet
Substitution2: "case-1" Q
Substitution2: "pcap-1" q.pcap
Substitution2: "smcp-1" q.smcp
EndChar

StartChar: r
Encoding: 114 114 17
Width: 358
VWidth: 1159
UnlinkRmOvrlpSave: 1
Flags: HMW
LayerCount: 2
Fore
SplineSet
141.397 196 m 0
 140.92 154.5454375 141.880242905 52.3541629895 145.627 42.937 c 0
 150.875676075 35.6819928613 155.616834923 33.1835729542 193.564 30.661 c 0
 212.421761597 29.5357433058 233.307875 29.184 249.673 28.184 c 1
 249.15 0 l 1
 217.445294118 1 158.913529412 4 124.77 4 c 3
 96.0420000002 4 67.314 -1 38.586 -5 c 1
 35.632 23.707 l 1
 45.6481875 24.8432857143 54.4070052903 24.9957429464 64.77 27.753 c 0
 82.0486666665 31.8750232558 89.77 36.5725611814 90.816 66.937 c 0
 91.862 93.5325985916 93.862 190.302201054 93.862 218 c 3
 93.862 245.12626506 92.816 300.890019231 91.77 330.574 c 0
 90.724 342.309504964 86.0912379777 357.08 78.218 357.08 c 3
 69.409142639 357.08 57.383533234 341.987169491 37.494 333.862 c 1
 29.586 360 l 1
 57.0929772727 366.826545454 96.4948636364 397.05838961 127.719 435.092 c 1
 142.966 428.0903 145.581 428.0903 145.581 411.753 c 3
 145.581 401.530333334 144.535 371.791666666 144.535 336.477 c 1
 163.073484375 360.353492308 261.112973714 422.954 293.046 423.477 c 1
 316.666086267 423.477 346.615 398.314477116 346.615 377.54 c 3
 346.615 361.327 320.477 347.005 300.08 347.005 c 1
 295.458963636 365.904672727 282.412794118 372.804 268.465 372.804 c 3
 234.39031057 372.804 145.058 328.658940228 144.012 285.845 c 0
 141.92 251.574226804 141.56096875 211.744714488 141.397 196 c 0
EndSplineSet
Substitution2: "smcp-1" r.smcp
Substitution2: "pcap-1" r.pcap
Substitution2: "case-1" R
EndChar

StartChar: s
Encoding: 115 115 18
Width: 352
VWidth: 1159
Flags: HMW
LayerCount: 2
Fore
SplineSet
53.523 115.46 m 1
 77 67.72271875 77.2060766442 24.799 165.121 24.799 c 1
 221.834978723 24.799 267.649 47.9185490309 267.649 91.724 c 1
 267.649 143.398674858 216.31 170.063 170.908 186.637006836 c 0
 121.208341106 206.045744397 49.954 227.060676572 49.954 297.063 c 1
 49.954 355.065 112.701331364 408.477 192.046 408.477 c 1
 224.376047683 408.477 253.767000122 402 284.138 395.523 c 1
 284.138 395.523 291.25714 345.267206826 295.707 312.063 c 1
 276.414 308.494 l 1
 262.368637363 352.52752381 235.498722593 377.155 182.632 377.155 c 1
 131.1704 377.155 95.92 345.937309597 95.92 311.184 c 1
 95.92 283.171177534 121.373990072 256.023283668 188.845 234.218006836 c 0
 276.059289486 206.915742662 315.138 155.435416792 315.138 103.23 c 1
 315.138 26.5230236042 226.603371845 -7.569 152.046 -7.569 c 1
 104.008525 -7.569 67.0443 4.69028 30.615 20.293 c 1
 35.569 34.2929935541 38.046 48.2736843835 38.046 63.293 c 1
 38.046 72.0914155561 36.3185714286 97.7535844439 32 106.552 c 1
 53.523 115.46 l 1
EndSplineSet
Substitution2: "case-1" S
Substitution2: "pcap-1" s.pcap
Substitution2: "smcp-1" s.smcp
EndChar

StartChar: t
Encoding: 116 116 19
Width: 341
VWidth: 1159
Flags: HMW
LayerCount: 2
Fore
SplineSet
20.678 383.833 m 1
 69.339 399.523 91.351 413.828 110.903 471.799 c 1
 130.196 469.276 l 1
 127.309 445.234210526 126.514 424.891157895 124.673 399 c 1
 179.623264117 400.046 244.463735883 399.523 299.414 400.569 c 1
 297.322 364.54 l 1
 242.038959741 364.54 177.910040259 365.586 122.627 366.109 c 1
 119.044375 300.203788108 115.242 224.345588703 115.242 105.092 c 3
 115.242 66.3911371357 132.4950923 26.552 182.196 26.552 c 3
 232.052389824 26.552 271.796655406 49.272184 303.276 65.661 c 1
 303.276 65.661 312.615 49.322 315.23 44.092 c 1
 277.7964375 19.943799888 214.7504375 -10 157.615 -10 c 3
 137.61516695 -10 65.615 0.267475388612 65.615 99.862 c 3
 65.615 202.063471027 70.887 265.42859346 73.523 365.586 c 1
 73.523 365.586 42.0377368421 364.017 22.247 364.017 c 1
 20.678 383.833 l 1
EndSplineSet
Substitution2: "case-1" T
Substitution2: "pcap-1" t.pcap
Substitution2: "smcp-1" t.smcp
EndChar

StartChar: u
Encoding: 117 117 20
Width: 506
VWidth: 1159
Flags: HMW
LayerCount: 2
Fore
SplineSet
301.649 369 m 1
 344.807714875 378.43882353 389.596098875 390.709294118 422.983 401.092 c 1
 436.845 386.046 l 1
 428.308876 342.213904 423.431 174.854992 423.431 137 c 3
 423.431 107 424.928927494 81.1513514206 427.523 54 c 0
 429.433985749 33.4584213026 433.29467821 17.397 439.138 17.397 c 3
 443.17616 17.397 469.4242 28.5707539027 489.615 36.552 c 1
 499.431 10.799 l 1
 473.229737778 2.06489532508 441.612726482 -7.53057893026 417.189 -19.816 c 0
 412.043794384 -22.4061820223 408.735 -24.862 403.143 -24.862 c 3
 383.19413579 -24.862 382.24013579 -2.862 377.327 49.138 c 1
 330.771592329 29.9114285714 243.336535038 -11.477 177.477 -11.477 c 3
 140.06778835 -11.477 104.250088904 4.88786041774 86.908 42.569 c 0
 74.9241875 68.5326363636 69.477 95.5348181818 69.477 145.385 c 3
 69.477 199.608816568 71.7274285714 257.959655625 73.908 312 c 0
 73.908 317.23 74.201 348.649 68.971 348.649 c 3
 63.1866486486 348.649 35.5731128462 328.062705556 29.109 324.632 c 1
 17.678 350.385 l 1
 56.9673793104 372.855015385 87.8705327574 394.309278382 118.903 421.046 c 1
 139.765 408.385 l 1
 126.1279215 333.427432417 120.673 245.620324341 120.673 163.167 c 3
 120.673 91.4030909459 135.506568738 28.736 205.719 28.736 c 3
 257.888354747 28.736 332.617516139 60.216204 376.327 78.799 c 1
 374.465 132.896336301 378.988 306.942717338 378.988 314.695 c 3
 378.988 352.136075939 362.357628572 350.356 311.034 342.293 c 1
 301.649 369 l 1
EndSplineSet
Substitution2: "case-1" U
Substitution2: "pcap-1" u.pcap
Substitution2: "smcp-1" u.smcp
EndChar

StartChar: v
Encoding: 118 118 21
Width: 418
VWidth: 1159
Flags: HMW
LayerCount: 2
Fore
SplineSet
419 387.816 m 1
 378.569 371.861765625 378.036204853 370.633394301 360 331.925 c 0
 329.506551724 265.971256685 301.698594167 198.299281875 271.569 133 c 0
 250.885088693 88.308265592 226.12 38 207.615 -20 c 1
 183.293 -20 l 1
 151.980712 110.690467033 100.708065375 247.7764508 59.293 348.77 c 0
 55.0382315855 359.145687986 50.9807076041 369.957038581 37.816 371.77 c 0
 27.6965972332 373.211225885 14.2309677419 377.286 3 378.862 c 1
 6 405 l 1
 25.9227682927 401 57.1062317073 400 77.029 400 c 3
 111.452078261 400 161.061808696 405 193.46 411 c 1
 198.46 382.816 l 1
 177.742036364 377.551 127.242 373.339 127.242 373.339 c 0
 120.242 372.382363636 116.242 371.425727273 116.242 362.816 c 3
 116.242 361.816 117.940882729 351.721857482 119.242 346.816 c 0
 142.213 265.322 187.075 146.581 212.075 66.133 c 1
 250.46 147.058 292.692554555 243.032940942 323.678 329.54 c 0
 326.083719325 336.396340414 328.678 342.54 328.678 351.54 c 3
 328.678 375.081076923 321.873844828 372.944692308 266.385 384.816 c 1
 274.385 412 l 1
 306.558571428 405 321.088571428 404 339.77 404 c 3
 363.200921053 404 391.318026316 409 411 415 c 1
 419 387.816 l 1
EndSplineSet
Substitution2: "case-1" V
Substitution2: "pcap-1" v.pcap
Substitution2: "smcp-1" v.smcp
EndChar

StartChar: w
Encoding: 119 119 22
Width: 657
VWidth: 1159
Flags: HMW
LayerCount: 2
Fore
SplineSet
659 387.339 m 1
 626.51105 371.36240625 626.468312756 370.084564489 609.017 335.741 c 0
 574.078647059 268.522058823 530.420353117 200.006028715 495.092 133 c 0
 471.984129032 89 445.633645161 38 425.937 -20 c 1
 399.707 -20 l 1
 377.178301205 82.4648412162 350.241445783 190.002199324 323.862 280.293 c 1
 302.331880597 231.972776224 280.251859554 183.490756581 258.293 136.339 c 0
 236.958608197 90.3277995207 211.678 38.7887647059 191 -20 c 1
 161.678 -20 l 1
 144.849588235 98.1546318681 94.6304513303 241.89053191 52.046 344.477 c 0
 47.1096478764 356.421251724 41.2114252167 370.53384686 32 371.77 c 0
 23.0115495682 372.776516107 12 375.961 2 378.385 c 1
 5 405 l 1
 22.9158780488 401 50.9581219512 400 68.874 400 c 3
 101.938346154 400 138.892615385 402.11925 170.012 408.477 c 1
 174.012 380.293 l 1
 151.977395349 374.498 114.794 373.339 114.794 373.339 c 0
 109.311727273 372.599181818 106.179 371.859363636 106.179 365.201 c 3
 106.179 361.45825 109.279220252 350.370183426 111.518 343.477 c 0
 137.710584615 259.018934498 171.075 155.485025078 196.552 71.07 c 1
 236.06612 153.935357143 268.60716 224.245357143 312.77 317.155 c 1
 309.132857143 328.155 305.716817685 340.604312344 302.586 351.155 c 0
 299.234565194 363.981365338 296.92499361 369.169442428 285.925 371.293 c 0
 274.520072329 372.901789157 258.022125 376.809 245.339 378.385 c 1
 248.339 405 l 1
 269.307333333 401 301.215666667 400 322.184 400 c 3
 352.658347826 400 396.57726087 405.650454546 425.259 412.431 c 1
 430.259 384.247 l 1
 412.675 378.452 372.012 373.816 372.012 373.816 c 0
 364.73375 372.816 359.535 371.816 359.535 362.816 c 3
 359.535 361.816 360.581812843 351.823921193 361.535 346.816 c 0
 377.5895 263.969518518 405.245375 143.783777778 429.351 63.271 c 1
 472.506 151.828 524.385 240.523 573.172 335.264 c 0
 577.127618942 343.080729803 579.603 348.264 579.603 357.264 c 3
 579.603 373.344307692 572.586926706 374.985483516 519.649 385.77 c 1
 526.218 413.431 l 1
 559.037938461 405.178875 575.977261539 404 595.034 404 c 3
 613.265756757 404 633.685324324 409 649 415 c 1
 659 387.339 l 1
EndSplineSet
Substitution2: "case-1" W
Substitution2: "pcap-1" w.pcap
Substitution2: "smcp-1" w.smcp
EndChar

StartChar: x
Encoding: 120 120 23
Width: 435
VWidth: 1159
Flags: W
HStem: -6 26.615<10.211 55.3532 107.122 163.925 229.163 283.742 351.079 424.034> 375.293 28.707<19 101.304 160.313 205.635 263 325.847> 382.477 24.523<382.348 420>
LayerCount: 2
Fore
SplineSet
8 20.615 m 1xa0
 38 25.8729130435 50.7437913091 27.2776940018 60 37.891 c 2
 198.109 205.247 l 1
 122.385 337.787 l 2
 95.6321132968 374.233407748 86.9054444445 373.862 19 375.293 c 1
 19 404 l 1xc0
 36 403 69 401 86 401 c 0
 124 401 169 403 205 407 c 1xa0
 209 378.816 l 1
 170.957031249 374.91161196 160.305 374.940359886 160.305 369.816 c 3
 160.305 367.93525 161.581933311 364.255031402 162.782 362.293 c 2
 227.753 238.414 l 1
 306.448 335.017 l 2
 312.69161432 342.423947169 325.879 356.0522 325.879 365.971 c 3
 325.879 378.78875 282.247 375.875625 260.431 379.954 c 1
 263 405 l 1
 279 404 306 404 322 404 c 0xc0
 352 404 399 406 420 407 c 1
 423 382.477 l 1
 381.821142857 376.023391304 372.77 365.356 357.77 348.402 c 0
 319.332545524 303.510608424 281.184 258.379333333 242.891 213.368 c 1
 273.877896552 158.352666667 302.247483594 103.209859811 332.753 48.322 c 0
 348.49959293 26.1255065535 368.538157303 28.7504375 427 21.092 c 1
 423 -5 l 1
 396 -1 346 2 318 2 c 0
 291 2 261 -1 230 -5 c 1
 227 19.092 l 1
 277.65902439 28.431 284.695 22.138 284.695 33.092 c 3
 284.695 35.2282857143 283.893884753 37.9002854589 282.264 40.569 c 2
 211.724 178.678 l 1
 112.891 53.891 l 2
 108.881567329 48.8996945531 105.891 43.891 105.891 38.891 c 3
 105.891 27.0018695652 118.475 26.3706521739 166.523 20.661 c 1
 163 -6 l 1
 141 -4 111 -1 88 -1 c 0
 63 -1 34 -4 11 -6 c 1
 8 20.615 l 1xa0
EndSplineSet
Substitution2: "case-1" X
Substitution2: "pcap-1" x.pcap
Substitution2: "smcp-1" x.smcp
EndChar

StartChar: y
Encoding: 121 121 24
Width: 446
VWidth: 1159
Flags: HMW
LayerCount: 2
Fore
SplineSet
96.782 -346 m 1
 93.8454754098 -346 79.8969836065 -343 52 -343 c 3
 22.4934482759 -343 15.6085862069 -345 -5.046 -346 c 1
 -5.046 -346 -4.046 -331.978666667 -6.046 -322.339 c 1
 74.506 -296.833 49.627 -305.085 186.494 -21.983 c 1
 150.845830509 108.361186992 82.8942483968 311.988894637 60.385 350.862 c 0
 52.1657492091 366.679695015 49.849766436 370.45966071 41.77 373.339 c 0
 31.9205991464 374.862 18.8312258065 376.9875 7.908 378.862 c 1
 11.908 406 l 1
 31.7927777777 402 62.0522222223 400 81.937 400 c 3
 114.039148936 400 140.476212766 401 170.69 407 c 1
 174.69 380.908 l 1
 165.647482847 379.250130654 133.159392912 372.900375307 124.041 372.862 c 0
 117.395608221 372.326440007 115.426 371.555818182 115.426 365.678 c 3
 115.426 362.714961539 118.291890834 355.417189399 120.334 348.862 c 0
 141.874 270.625174074 181.506 148.94912963 219.799 43.535 c 1
 267.753 131.410242798 316.522999998 238.129683129 351.063 330.925 c 0
 353.779847122 338.447513348 357.494 350.682278616 357.494 357.356 c 3
 357.494 372.707696946 348.860636364 369.385 276.724 384.339 c 1
 282.724 411 l 1
 314.045456522 404 357.491347826 400 375.678 400 c 3
 396.165837838 400 419.112216216 402 436.322 408 c 1
 441.322 380.862 l 1
 402.536784615 370.562864407 399.839415478 367.59571754 383.954 328.54 c 0
 368.954 292.40830625 296.664806785 135.643226508 223.954 -11.523 c 0
 138.932 -180.998 93.92 -295.31 96.782 -346 c 1
EndSplineSet
Substitution2: "case-1" Y
Substitution2: "pcap-1" y.pcap
Substitution2: "smcp-1" y.smcp
EndChar

StartChar: z
Encoding: 122 122 25
Width: 453
VWidth: 1159
Flags: HMW
LayerCount: 2
Fore
SplineSet
353.092 -0.954 m 2
 168.092 -0.954 l 2
 141.548702128 -0.954 49.1387021276 -3.046 29.477 -6.184 c 1
 20.569 18.092 l 1
 131.797143925 124.77425 245.0927008 246.99275 348.821 370.247 c 1
 314.389646154 370.77 281.541135677 371.293 247.092 371.293 c 3
 199.092 371.293 155.991274391 371.049026367 109.092 368.201 c 0
 71.7735794664 365.703935422 57.3906941177 355.058203704 37.615 306.339 c 1
 13.523 314.816 l 1
 50 408.414 l 1
 71.7706229508 402.615 100.468262295 400 231.092 400 c 3
 322.168126316 400 396.414968421 399.477 419.184 403.138 c 1
 429.184 383.615 l 1
 325.920528738 268.384702857 210.963597534 152.134668571 100.271 26.707 c 1
 281.092 27.23 l 2
 315.747305368 27.23 354.621843751 28.208941287 370.632 38.46 c 0
 383.660024602 47.2984240736 392.046743586 59.1017023501 401.615 81.937 c 0
 405.594587178 91.8688495311 409.525636364 102.3805 414.046 116.983 c 1
 437.092 108.983 l 1
 400.184 -6.184 l 1
 400.184 -6.184 382.884897959 -0.954 353.092 -0.954 c 2
EndSplineSet
Substitution2: "case-1" Z
Substitution2: "pcap-1" z.pcap
Substitution2: "smcp-1" z.smcp
EndChar

StartChar: A
Encoding: 65 65 26
Width: 705
VWidth: 1159
Flags: HMW
LayerCount: 2
Fore
SplineSet
230.8288125 299.841268555 m 1
 294.427625618 296.996984164 417.035880764 297.115942734 475.867583984 296.889364258 c 1
 431.787471855 413.17844641 402.717070862 485.931445862 357.183878906 604.551400391 c 1
 310.935346492 487.885184138 275.134963295 406.759458624 230.8288125 299.841268555 c 1
518.499 -10.4867822266 m 1
 518.499 -10.4867822266 515.361 12.5212529297 513.269 20.3662529297 c 1
 563.135435857 30.1931040216 577.930016585 31.7822076239 565.75322168 63.4801474609 c 0
 536.986158741 137.624505519 518.998976855 183.035241488 488.811802734 260.851047851 c 1
 421.126246334 266.532870975 313.704122189 269.900702038 217.661 266.465 c 1
 184.701441406 189.503932844 162.81447321 142.291641956 132.985914063 71.0116494141 c 0
 117.672771925 32.8741026245 134.336576959 25.4495930094 211.0035 24.1935507812 c 1
 209.9575 -10.4131826172 l 1
 182.555209615 -5.42512952446 141.150588582 -2.62561308427 101.571510785 -2.62561308427 c 1
 69.6077900281 -2.62561308427 38.3922506626 -4.43684661139 16.046 -8.38138964844 c 1
 16.046 -8.38138964844 13.954 16.3088398438 13.431 23.6308398437 c 1
 63.1386636978 34.1250115205 75.6209045041 35.7253007791 89.5758720703 65.9140595703 c 0
 184.532709573 278.931528144 266.179077176 469.898770309 336.126935547 641.574938476 c 0
 351.63824309 679.902531536 350.136376945 680.245308593 356.460461914 711.523 c 1
 388.87096875 711.523 l 1
 395.716155314 684.527274671 392.977412787 682.878071884 407.300919922 643.465936524 c 0
 489.179508731 408.524513357 539.61425976 265.44859907 633.002094726 49.2155615234 c 0
 643.081919978 25.9566202146 658.345074662 26.6247838644 692.954 23.0776777344 c 1
 692.954 23.0776777344 692.431 -1.02340527344 691.908 -7.29940527344 c 1
 664.492260517 -3.28274174391 638.585044604 -0.616238891787 610.867305687 -0.616238891787 c 1
 580.907455722 -0.616238891787 549.764420905 -3.47761639954 518.499 -10.4867822266 c 1
EndSplineSet
Position2: "cpsp-1" dx=0 dy=0 dh=50 dv=100
Substitution2: "c2pc-1" a.pcap
Substitution2: "c2sc-1" a.smcp
EndChar

StartChar: B
Encoding: 66 66 27
Width: 584
VWidth: 1159
Flags: HMW
LayerCount: 2
Fore
SplineSet
16.385 25.414 m 1
 72.5152692308 28.368 91.23 27.2718863054 92.276 62.029 c 0
 92.276 67.2794854701 93.845 170.18879163 93.845 292 c 3
 93.845 468.25988481 90.2408300781 618.446541552 89.661 627.833 c 0
 88.9862272728 645.539412 87.6230986359 653.95829529 66.569 657.448 c 0
 60.1509954651 658.733454 22.160125 664.7308 15.816 665.54 c 1
 21.385 696.385 l 1
 31.0215847818 696.385 70.0770172719 686.862 122.569 686.862 c 3
 173.705704982 686.862 226.656560751 696.862 274.845 696.862 c 3
 424.186613424 696.862 463.69 578.975913941 463.69 518 c 3
 463.69 446.999780329 414.569994373 398.50974079 333.615 369 c 1
 456.806419138 354.387184865 541.845 277.999938119 541.845 181 c 3
 541.845 68.2828 439.84517241 -6.862 280.845 -6.862 c 3
 229.741075 -6.862 181.692146127 -0.862 126.569 -0.862 c 3
 69.3436943998 -0.862 25.6974222172 -4.862 18.908 -4.862 c 1
 16.385 25.414 l 1
274.845 379.569 m 0
 359.680668946 390.458165658 405.172 443.816 405.172 508.063 c 3
 405.172 546.534225494 383.759888772 663.971 265.431 663.971 c 3
 249.430462 663.971 220.218926384 661.825971398 209.0835 659.971 c 0
 154.885748703 651.983549 153.363 644.839653 152.84 627.833 c 0
 147.61 568.734 148.656 377.569 148.656 377.569 c 1
 253.175953643 377.569 262.127616141 378.176799948 274.845 379.569 c 0
250.845 350.431 m 0
 147.61 350.431 l 1
 148.133 245.409673347 148.133 142.531975643 149.179 79.305 c 0
 149.702 39.7118545454 153.15047852 33.9788249822 208.845 30.029 c 0
 218.397097 28.89964902 260.930053 24.46 285.552 24.46 c 3
 394.966436687 24.46 483.327 77.1932221128 483.327 179.431 c 3
 483.327 263.431117295 416.242396516 350.431 250.845 350.431 c 0
EndSplineSet
Position2: "cpsp-1" dx=0 dy=0 dh=50 dv=100
Substitution2: "c2pc-1" b.pcap
Substitution2: "c2sc-1" b.smcp
EndChar

StartChar: C
Encoding: 67 67 28
Width: 743
VWidth: 1159
Flags: W
HStem: -11.862 33.414<349.262 554.839> 669.494 32.368<329.329 564.072>
VStem: 46.339 65.317<239.39 468.808> 640.632 28.707<533.341 618.357>
LayerCount: 2
Fore
SplineSet
46.339 348 m 3
 46.339 524.741545913 172.247082745 701.862 450.339 701.862 c 3
 510.443342375 701.862 543.206208175 699.107471851 601.569 684.201 c 0
 641.633776885 674.37544774 672.018752418 667.4191 682.201 674.184 c 1
 705.862 661.138 l 1
 668.351891892 601.907553713 669.339 565.382444403 669.339 543.664493164 c 0
 669.339 533.204493164 657.368 529.543493164 640.632 529.543493164 c 1
 631.773375 582.784573809 649.234539122 617.444344607 620.804 631.744493164 c 0
 558.943258888 658.953137092 515.004169141 669.494 443.017 669.494 c 3
 256.377937194 669.494 111.656 554.403023522 111.656 358.46 c 3
 111.656 150.281288154 279.057469407 21.552 448.661 21.552 c 3
 560.786552688 21.552 646.103016394 63.2772263158 674.908 163.075 c 1
 700.477 157.46 l 1
 692.069102174 112.7019 684.595357609 87.9421 673.385 43.184 c 1
 610.643130385 12.712092424 539.205069095 -11.862 441.339 -11.862 c 3
 221.339224178 -11.862 46.339 138.332603692 46.339 348 c 3
EndSplineSet
Position2: "cpsp-1" dx=0 dy=0 dh=50 dv=100
Substitution2: "c2pc-1" c.pcap
Substitution2: "c2sc-1" c.smcp
EndChar

StartChar: D
Encoding: 68 68 29
Width: 792
VWidth: 1159
Flags: W
HStem: -9.862 34.46<17.0812 78.9892 141.583 448.124> 654.632 32.891<13 76.6414> 664.724 30.799<142.265 434.364>
VStem: 83.3306 54.8498<30.6266 653.152> 679.804 60.61<221.153 457.195>
LayerCount: 2
Fore
SplineSet
314.983 24.598 m 1xb8
 531.923487305 24.598 679.804 131.009845703 679.804 342.862 c 3
 679.804 530.00828418 531.63840332 664.724 319.632 664.724 c 3
 257.999886719 664.724 223.757313476 660.714333984 161.9235 654.771513672 c 0
 133.934679687 651.580177734 138.6475 648.035513672 138.6475 618.495513672 c 0
 138.6475 510.27650689 138.180405892 410.775163116 138.180405892 310.672881955 c 3
 138.180405892 230.196238362 138.527933723 149.636203519 138.932 64.058 c 0
 138.932 46.058 136.021671875 31.8632861328 163.731 29.782 c 0
 204.503444336 27.1865644531 254.47705214 24.598 314.983 24.598 c 1xb8
13 687.523 m 25xd8
 52.6740429688 686.477 75.7399570313 684.385 115.414 684.385 c 19
 202.430303711 684.385 250.395367187 695.523 337.414 695.523 c 3xb8
 556.992082031 695.523 740.414 555.308332032 740.414 348.092 c 3
 740.414 74.6898476562 522.788168945 -9.862 313.414 -9.862 c 3
 239.414 -9.862 196.462445312 -5.724 122.414 -5.724 c 3
 53.9390947266 -5.724 45.1913359375 -9.293 17.431 -12.862 c 9
 14.954 18.46 l 1
 67.6405 21.3424970703 78.5155488281 22.8949599609 80.414 52.167 c 1
 82.3195889156 121.843767158 83.330642949 215.586548685 83.330642949 308.69656773 c 3
 83.330642949 432.117121536 81.2277131259 555.709349657 78.276 623.109 c 1
 76.2895087888 658.572375 72.8705 653.532664062 12.477 654.632 c 9
 13 687.523 l 25xd8
EndSplineSet
Position2: "cpsp-1" dx=0 dy=0 dh=50 dv=100
Substitution2: "c2pc-1" d.pcap
Substitution2: "c2sc-1" d.smcp
EndChar

StartChar: E
Encoding: 69 69 30
Width: 619
VWidth: 1159
Flags: W
HStem: -7.569 29.753<25.2925 76.1306> -1.25645 30.3297<149.884 492.488> 334.431 30.276<137.748 444.115> 652.879 33.3979<143.693 281.771> 655.378 30.8988<16.523 82.3507 144.595 479.895>
VStem: 85.395 52.353<118.742 334.431 364.707 650.639> 462.661 30.276<256.021 310.616> 500.799 27.138<543.632 632.196> 559.845 25.615<132.331 161.766>
LayerCount: 2
Fore
SplineSet
16.523 688.908 m 1xa780
 54.4515121929 687.002044613 158.135764834 686.276879302 237.896950392 686.276879302 c 3xb780
 369.354498358 686.276879302 525.294484005 688.482573232 533.937 690.477 c 1
 544.125594704 681.504862306 547.800766973 675.747160012 547.800766973 666.844119684 c 3
 547.800766973 650.300601934 535.088868746 622.891460943 527.937 543.632 c 1
 500.799 542.063 l 1
 495.7615 606.826006836 528.5945 641.281 469.937 646.08 c 0
 423.5554313 651.69205858 352.363364973 655.378086492 283.414367805 655.378086492 c 3x2f80
 248.354887909 655.378086492 213.880273473 654.66289792 183.564 652.879 c 0
 144.725994141 651.833 143.501 647.053913086 142.978 624.603 c 0
 140.886 532.884544922 138.271 449.119990234 137.748 364.707 c 1
 214.703394531 365.753 395.642483399 365.78234668 412.477 366.276 c 0
 448.342261719 368.827648437 447.0835 376.431006836 465.707 434.598 c 1
 494.937 430.937 l 1
 486.737786813 402.845102259 483.423515196 374.96468807 483.423515196 347.091760606 c 3
 483.423515196 317.172979217 487.242192487 287.262823936 492.937 257.109 c 1
 462.661 252.402 l 1
 443.3765 327.361006836 450.579597656 327.946429688 412.477 331.816 c 0
 359.570515625 334.431 249.572730469 333.908 137.748 334.431 c 1
 137.225 226.167842774 139.317 133.675182617 145.593 60.012 c 0
 147.685 40.2431640625 146.776536133 34.736 186.564 33.736 c 0
 242.197394773 31.2270306059 290.503414248 29.0732577921 336.209125924 29.0732577921 c 1
 384.053227913 29.0732577921 429.044749547 31.5462083354 476.649 38.443 c 0
 518.547804688 48.903 526.727844726 77.2058984375 559.845 166.506 c 1
 585.46 159.983 l 1
 573.386399414 105.582391601 558.973799805 54.9628525391 547.414 -2.862 c 1
 492.622139665 -3.14737427256 340.858669998 -1.25645459914 229.02745517 -1.25645459914 c 3x7780
 151.047392048 -1.25645459914 56.9748143822 -2.57299920293 26.523 -7.569 c 1
 21.293 22.184 l 1
 71.6695 27.0800068359 83.937 33.3433134766 83.937 61.736 c 1
 84.8773325419 79.9048960035 85.3949952514 217.44822893 85.3949952514 326.55918779 c 3
 85.3949952514 446.695488539 84.6185011871 603.603728191 82.891 627.879 c 0
 82.368 653.196457031 85.3260742187 653.192264649 13.908 661.247 c 1
 16.523 688.908 l 1xa780
EndSplineSet
Position2: "cpsp-1" dx=0 dy=0 dh=50 dv=100
Substitution2: "c2pc-1" e.pcap
Substitution2: "c2sc-1" e.smcp
EndChar

StartChar: F
Encoding: 70 70 31
Width: 566
VWidth: 1159
Flags: W
HStem: -11.862 29.276<39.2662 83.3496> 342.017 31.845<154.518 436.008> 652.925 32.3501<157.273 372.281> 660.201 27.661<21.77 92.7521> 679.523 20G<504.746 516.249>
VStem: 100.553 53.442<122.229 342.017 373.862 652.237> 453.385 29.799<272.011 320.327 390.339 427.608> 498.523 27.661<567.867 635.897>
LayerCount: 2
Fore
SplineSet
271.639 -14.816 m 1xe7
 227.900315218 -4.09111602348 196.227621412 0.874154785156 161.876956055 0.874154785156 c 3
 128.607470908 0.874154785156 92.8494249323 -3.61503600033 41.201 -11.862 c 1
 33.109 17.414 l 1
 86.586 31.1933076923 99.661 32.04167692 99.661 57.443 c 1
 100.298263595 69.7103242126 100.552968789 254.319213836 100.552968789 286.795183022 c 1
 100.552968789 360.930870334 99.2256715339 600.042709864 98.092 630.649 c 0
 97.569 652.353313103 89.9190890002 652.347161448 19.155 660.201 c 1
 21.77 687.862 l 1xd7
 75.3976386153 686.093904804 136.28766038 685.275106061 196.364266473 685.275106061 c 3xe7
 352.416153595 685.275106061 502.986218624 690.762664537 506.506 699.523 c 1xcf
 525.991234303 690.685699619 530.316759766 679.797448096 530.316759766 661.851869141 c 1
 530.316759766 645.247022913 527.570048448 612.779574584 526.184 567.867 c 1
 498.523 566.298 l 1
 491.738348837 618.465789474 499.137449129 641.214101219 461.247 645.988 c 0
 387.554091 654.03778 269.529683321 657.638639648 174.748 652.925 c 0
 159.456035 651.879 156.536544332 642.993961244 156.087 621.649 c 0
 154.052761719 535.518719826 154.518 453.622128174 154.518 373.862 c 1
 231.892062197 374.908 391.523134405 372.878821289 408.402 373.862 c 0
 438.614107319 376.477 440.625291234 389.696392941 456.431 434.075 c 1
 485.184 426.121 l 1
 476.984786813 401.42091234 473.670515196 376.906879635 473.670515196 352.399433458 c 3
 473.670515196 326.093020093 477.489192487 299.794195681 483.184 273.281 c 1
 453.385 265.712 l 1
 435.4801748 329.777231612 441.967342047 336.969334961 408.402 339.402 c 0
 355.350612064 342.017 266.127406197 341.494 153.995 342.017 c 1
 156.61 215.703149188 152.758493164 134.853099906 160.794 61.443 c 0
 162.885999995 36.1005285167 167.070000003 43.4845834577 278.593 23.874 c 1
 271.639 -14.816 l 1xe7
EndSplineSet
Position2: "cpsp-1" dx=0 dy=0 dh=50 dv=100
Substitution2: "c2pc-1" f.pcap
Substitution2: "c2sc-1" f.smcp
EndChar

StartChar: G
Encoding: 71 71 32
Width: 803
VWidth: 1159
Flags: W
HStem: -8.523 30.799<358.231 577.993> 323.293 28.184<503.227 655.388> 324.954 24<723.861 752.891> 678.138 20G<661.569 688.817> 679.724 31.322<348.017 557.652>
VStem: 43 63.702<246.54 468.819> 661.569 25.046<666.688 696.753> 663.281 56.949<55.1764 315.64> 675.954 28.138<538.367 573.563>
LayerCount: 2
Fore
SplineSet
43 355 m 3xa5
 43 597.912607654 284.828 711.046 466 711.046 c 3xad
 537.811 711.046 596.069324105 693.946888346 641.218 666.69 c 0
 657.987151247 660.915800347 658.705798684 663.828571429 661.569 696.753 c 1
 686.615 698.138 l 1x96
 704.092 539.385 l 1
 675.954 535.293 l 1x9480
 651.988 633.201 571.941498703 679.724 453.971 679.724 c 3
 247.920936877 679.724 106.702 530.594718226 106.702 362.661 c 3
 106.702 175.448856619 259.440258065 22.276 463.92 22.276 c 3
 515.170153284 22.276 581.578114895 36.1047407273 646.235 54.937 c 0
 661.891230344 59.7502267668 662.235 67.397 662.235 93.937 c 0
 662.235 139.497885102 663.281 215.031672347 663.281 283.373 c 0
 663.281 302.5434 661.51712464 315.293 629.269 317.385 c 0
 569.476896552 318.431 548.637103448 319.749 501.724 323.293 c 1
 503.724 351.477 l 1xcd
 600.359110266 341.636 706.468250951 342 752.891 348.954 c 1
 755.891 324.954 l 1
 725.995230769 319.0988 720.753 315.172129011 720.23 300.448 c 0
 719.184 217.127631723 718.797069157 140.646967491 717.615 81.305 c 0
 717.066204669 63.7766699241 721.233344828 60.4465227273 745.615 54 c 1
 745 31.569 l 1
 666 20.1141428572 502 -8.523 448 -8.523 c 3
 207.121 -8.523 43 154.889660693 43 355 c 3xa5
EndSplineSet
Position2: "cpsp-1" dx=0 dy=0 dh=50 dv=100
Substitution2: "c2pc-1" g.pcap
Substitution2: "c2sc-1" g.smcp
EndChar

StartChar: H
Encoding: 72 72 33
Width: 831
VWidth: 1159
Flags: W
HStem: -15.816 28.799<32.2888 61.3377 624.6 672.851> 335.54 32.368<158.334 694.436> 663.54 31.322<30.6709 92.9741 168.815 237.526 621.887 682.692> 672.017 29.368<766.601 805.345>
VStem: 96.155 62.179<29.4181 81.02 308.415 335.54 367.908 652.904> 691.821 63.748<405.701 653.293> 694.436 52.0898<56.104 335.54 367.908 489.497>
LayerCount: 2
Fore
SplineSet
31.448 694.862 m 1xea
 71.7767513135 688.400503909 107.434583652 684.363524667 146.471596704 684.363524667 c 1
 173.996615622 684.363524667 203.204270097 686.348540443 236.932 690.862 c 1
 239.886 660.063 l 1
 197.622 651.293 165.656 659.271142957 164.61 640.109 c 0
 161.472 603.217722279 159.38 473.598051869 158.334 367.908 c 1
 285.946 364.247 634.012898827 369.681945843 694.436 367.908 c 1xea
 694.436 437.385861034 694.436 516.93686316 691.821 618.632 c 0
 690.897555555 664.816787234 670.674432748 647.146829787 617.022 666.109 c 1
 623.453 694.385 l 1
 654.936255433 688.014788944 680.511869964 684.247036315 706.164952085 684.247036315 c 1
 735.514230263 684.247036315 764.956353572 689.378288038 803.46 701.385 c 1
 811.368 672.017 l 1
 762.260290323 652.213549422 756.614118126 665.930288481 755.569 631.632 c 0xdc
 751.804217458 544.755251271 746.590433569 395.995083891 746.525844533 274.022291623 c 1
 746.448714573 173.988437705 747.808028585 80.7996791129 751.908 44.414 c 0
 756.780097379 17.9011507857 771.259 26.9177586207 813.184 15.46 c 1
 813.184 15.46 806.753 -5.494 807.276 -12.816 c 1
 779.979910278 -5.72653277283 751.925921211 -1.66519992608 722.553743613 -1.66519992608 c 1
 692.251923988 -1.66519992608 660.550703203 -6.95755864959 626.838 -15.816 c 1
 626.838 -15.816 619.407 6.707 618.361 12.983 c 1
 672.993 29.9402195122 688.16 21.4762352934 689.206 53.414 c 0
 692.867 158.685297537 693.913 225.004960469 694.436 335.54 c 1
 657.826 338.155 235.738 337.632 157.811 335.54 c 1
 157.288 240.418514761 155.719 129.542473975 158.334 55.46 c 0
 159.38 18.1390769231 186.15624 28.9629512195 234.794 15.029 c 1
 234.794 15.029 229.363 -7.494 228.84 -14.816 c 1
 188.063539292 -6.51997432036 152.538883819 -1.84751266107 118.706269186 -1.84751266107 c 1
 89.746533257 -1.84751266107 62.0326443744 -5.28257183029 33.31 -12.816 c 1
 33.31 -12.816 26.879 10.23 25.833 19.644 c 1
 74.2887464787 34.548 95.1145339311 20.7901553247 96.155 55.46 c 0
 100.680114696 145.165384575 102.960504692 292.629268317 102.721797617 415.565611484 c 1
 102.484403779 516.749888622 101.04408655 605.653639779 98.77 635.109 c 0
 95.2477135719 658.84959499 78.1747662336 654.459 27.971 663.54 c 1
 31.448 694.862 l 1xea
EndSplineSet
Position2: "cpsp-1" dx=0 dy=0 dh=50 dv=100
Substitution2: "c2pc-1" h.pcap
Substitution2: "c2sc-1" h.smcp
EndChar

StartChar: I
Encoding: 73 73 34
Width: 341
VWidth: 1159
Flags: W
HStem: -10 32.845<16.1377 136.824 213.54 328> 657.586 34.414<21.4907 132.056 217.626 327.232>
VStem: 146.741 58.518<32.6954 279.677 392.847 644.761>
LayerCount: 2
Fore
SplineSet
22 695 m 1
 80.9376894797 685.522233205 126.967936389 681.395018408 174.124985756 681.395018408 c 3
 219.781512618 681.395018408 266.494273995 685.30393378 327 692 c 1
 329 657.586 l 1
 232.7446 649.341636364 212.072245252 659.490244955 209.92 616 c 0
 205.999753625 537.685329378 201.592810097 432.501688939 201.592810097 296.6486544 c 3
 201.592810097 224.816340657 202.478673894 145.633773627 205.259 55.983 c 0
 206.2965562 24.3645832666 241.3715 31.8145 329 23.322 c 1
 328 -9 l 1
 276.49275987 -3.08888291653 219.263938729 0.35582088554 164.00604231 0.35582088554 c 3
 110.909320698 0.35582088554 59.6323740673 -2.80829879154 17 -10 c 1
 12.954 22.845 l 1
 114.276630252 31.431 145.5747899 21.6496292564 146.741 62.69 c 0
 149.478685051 138.627016919 150.794088261 238.678347865 150.794088261 336.857487632 c 3
 150.794088261 445.126037926 149.217949626 551.082592002 146.172 616.385 c 0
 144.103080631 655.53572487 97.8022432432 650.000078947 18 660.586 c 1
 22 695 l 1
EndSplineSet
Position2: "cpsp-1" dx=0 dy=0 dh=50 dv=100
Substitution2: "c2pc-1" i.pcap
Substitution2: "c2sc-1" i.smcp
EndChar

StartChar: J
Encoding: 74 74 35
Width: 337
VWidth: 1356
Flags: HMW
LayerCount: 2
Fore
SplineSet
135.494 621.632 m 0
 131.833 659.999898788 105.637 644.615 14 659.632 c 1
 18 692 l 1
 72.8070458477 683.581370838 116.452476914 679.935849512 160.221757307 679.935849512 c 3
 209.096166381 679.935849512 252.867368288 684.780115137 323 692 c 1
 325 658.063 l 1
 222.162 646.523 201.334 661.225314651 199.242 622.678 c 0
 193.489 502.662644501 195.581 380.613130435 195.581 225 c 3
 195.581 108.78 199.196 62.292 199.196 23.85 c 3
 199.196 -88.95674 150.370908892 -152.146154014 89.707 -198.569 c 0
 70.431 -212.707 40.025 -234.551058823 15.184 -251 c 1
 -4.569 -223.724 l 1
 18.4227758621 -211.70375 38.4095896411 -199.086293924 55.816 -184.385 c 0
 60.882675964 -180.291360682 65.6834652341 -176.943005726 69.816 -172.908 c 0
 130.79575 -114.862 142.293 -42.6930508474 142.293 65 c 3
 142.293 105.017579785 139.155 585.200391977 135.494 621.632 c 0
EndSplineSet
Position2: "cpsp-1" dx=0 dy=0 dh=50 dv=100
Substitution2: "c2pc-1" j.pcap
Substitution2: "c2sc-1" j.smcp
EndChar

StartChar: K
Encoding: 75 75 36
Width: 687
VWidth: 1159
UnlinkRmOvrlpSave: 1
Flags: W
HStem: -10 27.138<188.832 273.032> -5 28.707<14.2685 90.205 469.903 525.601 628.64 673.762> 658.954 26.046<391 465.497> 660.339 27.661<20.5045 82.5745 168.846 269.331 555.889 604.825>
VStem: 99.5133 52.7287<34.0764 325.54 357.954 648.996>
LayerCount: 2
Fore
SplineSet
391 685 m 1x28
 414.455841442 683.004664367 440.195130263 681.949571772 466.741023273 681.949571772 c 3
 512.626433009 681.949571772 560.921831532 685.101999391 604 692 c 1
 611.092 662.201 l 1
 564.845 651.724 549.03620851 648.682756344 525.632 627.172 c 0
 451.235 560.005 305.382193548 448.789962963 197.024 357.937 c 1
 272.91167385 305.331782045 569.799 75.075 589.356 61.242 c 0
 611.679498225 43.3857207674 635.167 32.753 676.046 23 c 1
 673 -1 l 1
 645 1 606 4 578 4 c 3
 545 4 503 1 471 -4 c 1
 467 20.523 l 1
 526.097 31.272 543.528 28.23 522.959 47.506 c 0
 495.451657368 70.8411291697 273.050734824 235.017302325 152.242 325.54 c 1
 151.765 234.269405063 151.979606013 119.173370059 154.38 58.489 c 0
 155.501410494 28.194869057 174.547 34 276 17.138 c 1
 272 -10 l 1xa8
 225.8 -2.8 178.52 1.88 126.488 1.88 c 3
 91.8 1.88 55 -0.2 15 -5 c 1
 12 23.707 l 1
 81.31 28.523 93.7493914325 28.5977356307 94.816 53.828 c 0
 97.9822673529 155.217133838 99.513267791 261.135419214 99.513267791 367.184455971 c 3
 99.513267791 448.985743028 98.9451343196 533.239147336 97.385 610.942 c 0
 96.339 654.790955476 84.678 648.339 16.431 660.339 c 1
 21 688 l 1x58
 56.6601886794 683.542476415 94.1086338448 681.667989976 131.662527565 681.667989976 c 3
 178.356968161 681.667989976 225.214436321 684.566018868 269 689 c 1
 272 660.816 l 1
 174.886 649.138 159.564 660.028328006 156.949 621.356 c 0
 154.334 533.205529881 152.242 449.252701195 152.242 357.954 c 1
 253.87882449 442.897224669 357.932401666 524.720599832 455.913 611.666 c 0
 469.757342204 623.99525695 474.19577438 633.574016574 470.85 638.649 c 0
 469.911091833 651.332707824 442.481578947 653.565188793 390 658.954 c 1
 391 685 l 1x28
EndSplineSet
Position2: "cpsp-1" dx=0 dy=0 dh=50 dv=100
Substitution2: "c2sc-1" k.smcp
Substitution2: "c2pc-1" k.pcap
EndChar

StartChar: L
Encoding: 76 76 37
Width: 614
VWidth: 1159
Flags: W
HStem: -7 33.983<23 88.0947> 2 37.121<160.483 520.894> 660.109 32.891<15.5078 87.7368 167.207 286.486>
VStem: 92.954 58.518<39.9218 646.915> 567.247 29.753<116.958 160.422>
LayerCount: 2
Fore
SplineSet
286 693 m 1xb8
 290 660.109 l 1
 176.914914286 644.715578947 155.964615046 666.151963944 153.518 603.189 c 0
 151.995 552.77667085 151.472 149.477 151.472 149.477 c 0
 151.472 57.0722474227 152.900328545 38.8384139732 182.07 39.121 c 0
 224.890957746 40.075 432.586641603 39.2567598543 467.097 37.736 c 0
 519.448 38.397 540.377467742 64.8072123894 567.247 165.046 c 1
 597 159 l 1
 590.799 97.707 566.397 63.806 557.046 -20.046 c 1
 536.954 -13.431 524.276 -3.477 486 -1.477 c 0
 475.010218121 -1.14970113254 386 2 284 2 c 3x78
 69 2 34 -7 23 -7 c 1
 18.954 26.983 l 1
 87.494 32.983 92.431 31.159308452 92.954 65.983 c 0
 92.954 70.161875 94 172.5443125 94 300 c 3
 94 461.538407032 91.385 616.741994532 90.862 628.356 c 0
 89.816 654.114166634 85.925 651.816 12 660.494 c 1
 16 696 l 1
 56.3726980984 686.141550464 101.593828395 682.453832817 146.076608846 682.453832817 c 3
 196.348930208 682.453832817 245.67819832 687.163949757 286 693 c 1xb8
EndSplineSet
Position2: "cpsp-1" dx=0 dy=0 dh=50 dv=100
Substitution2: "c2pc-1" l.pcap
Substitution2: "c2sc-1" l.smcp
EndChar

StartChar: M
Encoding: 77 77 38
Width: 958
VWidth: 1159
Flags: W
HStem: -10 32.891<13.5744 96.8134 175.365 271.568> -2 31.322<667.696 760.905 871.953 945> 9 21G<460.132 499.523> 659.109 31.891<844.606 941.773> 664.54 34.46<27.9563 117.876>
VStem: 145.661 13.305<84.087 557.62> 460.632 35.322<9 58.9168> 780.942 54.857<391.461 573.913> 794.465 53.765<48.9981 310.507>
LayerCount: 2
Fore
SplineSet
945 1 m 1x1680
 906.405748 7.78059827445 863.441864231 11.5117307735 817.63681588 11.5117307735 c 3
 781.005528837 11.5117307735 720.274064115 7.28207130503 668.707 -2 c 1
 664.184 29.322 l 1
 782.39 46.523 794.419 40.92 794.465 100.334 c 0x5680
 794.786867012 263.07447264 789.019630662 420.85505002 780.942 573.913 c 1
 703.034 434.568269531 626.431567405 293.757338138 553.109 147.753 c 0
 533.124920182 107.516422265 503.092 41.552 495.954 9 c 1
 460.632 9 l 1x27
 459.632 47.305 425.373823899 120.554378428 403.615 162 c 2
 189.489 569.143 l 1
 175.782 416.048221679 165.139426464 251.990479641 158.966 84.087 c 0
 158.012 27.3950697675 171.38 38.322 274.753 22.891 c 1
 270.707 -10 l 1
 230.910114094 -4.00332071466 183.683161511 0.210175795949 134.3729321 0.210175795949 c 3
 94.6494074556 0.210175795949 53.5256929433 -2.72274967404 14 -10 c 1
 12 22.891 l 1
 107.247 36.707 115.699289824 35.5042859438 118.23 79.903 c 2
 145.661 557.62 l 2
 147.474708453 591.815733557 149 630.143 126.569 643.08 c 0
 109.303892795 653.565515907 85.2942242991 660.985741935 23.862 664.54 c 1
 29 699 l 1x8f
 72.7007063545 694.054769231 132.909219744 687.043860616 178.932 686.477 c 0
 194.619508054 685.733904561 201.308774078 673.063311755 206.886 661 c 0
 297.627 470.968520508 397.368 288.846606446 491.276 110.421 c 1
 789.034 676.569 l 0
 794.034 685.569 802.996132863 689.188662238 809.034 688.569 c 0
 850.246148515 684.954 898.748841584 686 941 691 c 1
 944.523 659.109 l 1
 851.478 650.431 835.503453686 657.723237905 835.799 611.528 c 0x17
 837.510260726 437.410748792 842.437125165 262.78081242 848.23 95.288 c 0
 850.844670213 37.075 862.350340426 43.569 946 34.937 c 1
 945 1 l 1x1680
EndSplineSet
Position2: "cpsp-1" dx=0 dy=0 dh=50 dv=100
Substitution2: "c2pc-1" m.pcap
Substitution2: "c2sc-1" m.smcp
EndChar

StartChar: N
Encoding: 78 78 39
Width: 836
VWidth: 1159
Flags: W
HStem: -10 34.937<23.3051 94.1218 166.434 270.045> 661.201 32.799<13.6109 80.6976 766.142 832> 669.201 31.799<600.119 694.103>
VStem: 106.632 40.0579<42.3704 588.637> 709.494 35.506<104.513 282.253> 715.813 43.3715<416.829 653.551>
LayerCount: 2
Fore
SplineSet
14 692 m 1xd8
 46.3762045454 688.2385 89.5347488459 685.431 123.581 684.477 c 0
 138.5605699 683.936687733 139.727287289 680.619704272 146.581 673.477 c 0
 331.322 480.991371094 518.247 290.701044922 709.494 104.513 c 1xd8
 714.174510677 212.817763527 715.812531956 321.123248741 715.812531956 433.682811088 c 3
 715.812531956 484.878600287 719.32937231 536.079076417 718.063 588.407 c 0
 716.982080357 671.939779661 689.39 656 597 669.201 c 1
 601 701 l 1xb4
 656.519587699 693.825498252 703.298840942 691.263713704 747.271642729 691.263713704 c 3
 776.164975797 691.263713704 803.846638333 692.369750597 832 694 c 1
 837 661.201 l 1
 776.075 655.201 761.84848258 657.84409582 759.184 621.402 c 0xd4
 747.364 450.635842413 745 268.831777243 745 86 c 0
 745 63.3827093023 748.138 24.0482906977 751.276 1.431 c 1
 721.908 -8.138 l 1
 701.318091837 28.7747798165 666.726953286 68.6734854285 634.661 101.661 c 0
 474.188 267.193047331 312.077 430.236215029 146.69 588.637 c 1
 141.983 110.116 l 2
 140.735256836 26.4639413786 160.242 41.4909228516 275.092 24.983 c 1
 269 -11 l 1
 230.475274138 -2.82996917899 193.353344449 0.0350683801344 158.148197194 0.0350683801344 c 3
 109.280738727 0.0350683801344 64.1064561839 -5.48516570496 24 -10 c 1
 19.954 24.937 l 1
 91.787 29.707 100.401267008 32.3699280104 101.77 72.489 c 0
 104.724237948 188.290704507 106.63207391 308.823173199 106.63207391 430.331351559 c 3
 106.63207391 488.577647998 106.567954526 547.108527249 105.954 605.344 c 0
 105.417661054 638.114898545 87.603 653.293 12 658.017 c 1
 14 692 l 1xd8
EndSplineSet
Position2: "cpsp-1" dx=0 dy=0 dh=50 dv=100
Substitution2: "c2pc-1" n.pcap
Substitution2: "c2sc-1" n.smcp
EndChar

StartChar: O
Encoding: 79 79 40
Width: 845
VWidth: 1159
Flags: W
HStem: -9.862 37.598<335.698 542.554> 677.034 37.075<312.529 513.15>
VStem: 43 60.087<255.44 459.815> 737.729 64.271<224.197 453.08>
LayerCount: 2
Fore
SplineSet
408.649 677.034 m 3
 239.691215391 677.034 103.087 536.905379386 103.087 366.828 c 3
 103.087 190.42182868 249.68056536 27.736 439.937 27.736 c 3
 619.5545222 27.736 737.729 172.168770085 737.729 334.925 c 3
 737.729 521.040449342 589.112166298 677.034 408.649 677.034 c 3
428 714.109 m 3
 634.99985769 714.109 802 548.233087068 802 345.385 c 3
 802 149.24888152 644.0001113 -9.862 430 -9.862 c 3
 216.000167904 -9.862 43 148.248018583 43 345.385 c 3
 43 542.237841038 217.999776206 714.109 428 714.109 c 3
EndSplineSet
Position2: "cpsp-1" dx=0 dy=0 dh=50 dv=100
Substitution2: "c2pc-1" o.pcap
Substitution2: "c2sc-1" o.smcp
EndChar

StartChar: P
Encoding: 80 80 41
Width: 596
VWidth: 1159
Flags: W
HStem: -11 30.845<47.9988 96.3502> 242 30.276<175.732 370.488> 656.908 26.092<14.7508 95.208 163.724 291.695>
VStem: 103.954 58.995<404.394 647.998> 114.344 55.0362<34.879 256.678 282.502 449.31> 506.005 57.995<375.891 543.357>
LayerCount: 2
Fore
SplineSet
276.494 272.276 m 3xf4
 396.126123486 272.276 506.005 333.2918952 506.005 462.816 c 3
 506.005 539.049358988 448.436 619.201 374.908 644.925 c 0
 314.58344672 665.703184159 249.293142857 656.908 178.455 656.908 c 3
 169.509230769 656.908 162.944047703 649.770369649 162.949 637.017 c 0
 164.032550052 560.750206327 165.38 425.066810124 167.811 290 c 1
 201.487422535 276.707 235.16384507 272.276 276.494 272.276 c 3xf4
15 687 m 1
 41 685 75 683 114 683 c 3
 185 683 224 694 295 694 c 3
 460 694 564 574.569 564 467 c 3
 564 338.941893073 457.735058823 242 272.31 242 c 3
 232.8535 242 203.69 246.840428571 169.38 256.678 c 1
 170.562285714 179.262744318 170.903 106.496273684 173.518 59.213 c 0
 176.656 24.8468591877 187.593 39.138 265.271 26.029 c 1
 260.317 -10 l 1
 214.661379789 -2.08739935914 183.04331933 2.35718139892 148.745832299 2.35718139892 c 3
 120.475099418 2.35718139892 90.4760063803 -1.25106832404 50.31 -11 c 1
 40.126 19.845 l 1
 105.063 42.5141386719 113.004447911 26.1669952521 113.431 64.213 c 0
 114.113542653 114.485253851 114.34375 172.288637406 114.34375 233.62318182 c 3xec
 114.34375 362.541070604 107.958789686 514.095874285 103.954 628.649 c 0
 103.425758242 646.402 92.971 651.155 12.477 652.632 c 1
 15 687 l 1
EndSplineSet
Position2: "cpsp-1" dx=0 dy=0 dh=50 dv=100
Substitution2: "c2pc-1" p.pcap
Substitution2: "c2sc-1" p.smcp
EndChar

StartChar: Q
Encoding: 81 81 42
Width: 785
VWidth: 1361
Flags: W
HStem: -154.138 33.937<682.038 873.03> -7.862 38.121<304.245 419.68> 685.448 28.184<295.012 467.237>
VStem: 42.046 62.702<247 495.046> 675.252 64.794<240.002 482.107>
LayerCount: 2
Fore
SplineSet
382.293 685.448 m 3
 220.684518987 685.448 104.748 560.183220904 104.748 378.075 c 3
 104.748 199.140963884 217.288498099 30.259 397.799 30.259 c 3
 555.209384592 30.259 675.252 165.323623294 675.252 355.494 c 3
 675.252 555.855081804 539.435758621 685.448 382.293 685.448 c 3
473.995 7.167 m 1
 602.612611465 -91.2341666666 711.442898089 -120.201 784.656 -120.201 c 3
 817.616 -120.201 847.28 -116.293 872 -109.385 c 1
 878.431 -136.046 l 1
 844.515078125 -148.6928 800.6294375 -154.138 748.046 -154.138 c 3
 627.353286517 -154.138 510.585539326 -99.2845 398.724 -7.862 c 1
 185.73628 -14.2674285714 42.046 162.972364575 42.046 363.954 c 3
 42.046 582.129288987 197.046 713.632 388.046 713.632 c 3
 580.046 713.632 740.046 565.196180043 740.046 365.954 c 3
 740.046 204.188571109 639.871873487 49.779101162 473.995 7.167 c 1
EndSplineSet
Position2: "cpsp-1" dx=0 dy=0 dh=50 dv=100
Substitution2: "salt-1" Q.alt
Substitution2: "c2pc-1" q.pcap
Substitution2: "c2sc-1" q.smcp
EndChar

StartChar: R
Encoding: 82 82 43
Width: 734
VWidth: 1159
Flags: HMW
LayerCount: 2
Fore
SplineSet
150.334 373.385 m 1
 202.346679612 372.50425 228.987320388 369.862 281 369.862 c 3
 465.263577143 369.862 481.281 477.79944534 481.281 517.586 c 3
 481.281 588.94371875 406.434525424 673.586 289.017 673.586 c 3
 239.410593031 673.586 153.518 661.931636363 151.426 638.85 c 0
 147.765 555.480699793 149.129 456.753989158 150.334 373.385 c 1
12 693 m 1
 59.1211081081 692 83.5108918919 691 113.937 691 c 0
 175.022033898 691 213.138932203 707 300 707 c 0
 430.389259259 707 538.23 625.520695746 538.23 523.339 c 0
 538.23 437.023805846 472.8092 374.195358366 379.644 348.724 c 1
 495.578553314 135.721070796 599.963956773 -0.130646017699 738.569 -2.201 c 1
 733 -33 l 1
 566.824225352 -38.1875842697 410.574 144.414 322.741 336.356 c 1
 307.65925 334.879 294.25325 334.879 282.523 334.879 c 0
 230.906342857 334.879 201.950657143 338.1158 150.334 338.925 c 1
 152.472 230.453195122 153.518 150.552 156.133 60.966 c 0
 157.179 29.7910255217 170.731 40.908 270.092 23.983 c 1
 264 -10 l 1
 220.980060644 -0.858262886928 168.448330731 3.94586051795 134.784678701 3.94586051795 c 3
 97.6709470415 3.94586051795 60.4423114024 0.396012128874 23 -7 c 1
 16.954 25.414 l 1
 80.772625 35.0388270677 89.1145 29.6004962406 91.339 53.259 c 1
 94.2958874479 184.966356955 95.5236239017 273.515463569 95.5236239017 360.943477088 c 3
 95.5236239017 442.171180774 94.5329264708 522.481220959 92.908 632.189 c 1
 90.6492405063 653.485411765 84.1535696202 660.070058823 12 662.201 c 1
 12 693 l 1
EndSplineSet
Position2: "cpsp-1" dx=0 dy=0 dh=50 dv=100
Substitution2: "salt-1" R.alt
Substitution2: "c2pc-1" r.pcap
Substitution2: "c2sc-1" r.smcp
EndChar

StartChar: S
Encoding: 83 83 44
Width: 575
VWidth: 1159
Flags: W
HStem: -12.862 33.937<189.651 384.031> 0.77 21G<58.954 90.2958> 680.523 20G<482.478 514.431> 681.54 31.322<220.709 391.855>
VStem: 31.431 29.23<143.697 188.282> 58.954 28.184<2.862 19.7859> 68.954 54.334<456.348 602.428> 476.666 53.288<95.1152 228.473> 487.724 26.322<531.767 604.075 683.082 694.895>
LayerCount: 2
Fore
SplineSet
31.431 186.845 m 1x48
 60.661 192.845 l 1
 86.8976254179 102.006413415 87.0948697624 89.9332150446 103.799 76.15 c 0
 143.908322576 45.6186232733 232.235430769 21.075 294.983 21.075 c 3
 429.357074322 21.075 476.666 102.080709924 476.666 164.477 c 3
 476.666 263.973478948 355.783750411 305.475784637 238.792 345.569 c 0
 162.680124091 369.621819013 68.954 397.942497709 68.954 520.494 c 3
 68.954 623.7938 160.31 712.862 310.954 712.862 c 3x5b
 374.315627907 712.862 426.757196435 696.499018422 451.879 686.615 c 0
 469.245562577 679.364262884 476.708181818 677.201 488.247 700.523 c 1
 514.431 692.954 l 1
 502.201 615.519867151 501.431 601.720181818 514.046 557.046 c 0
 520.243784618 535.659732297 509.446488117 527.343631417 487.724 528.816 c 1x2280
 472.38048943 572.482 481.684519567 597.296799912 470.632 613.051 c 0
 448.29798943 647.625386236 378.367638554 681.54 304.155 681.54 c 3
 227.023596805 681.54 123.288 644.169226251 123.288 530.954 c 3
 123.288 417.425608937 202.588574182 419.801423769 348.823 365.477 c 0
 504.184 312.280301648 529.954 227.002532609 529.954 173.368 c 3
 529.954 95.3659057592 474.954 -12.862 282.954 -12.862 c 3x93
 225.861638037 -12.862 165.751766825 -2.40183084881 113.753 18 c 0
 92.275645768 26.3442727273 93.4535862069 25.8212727273 87.138 0.77 c 1
 58.954 2.862 l 1x45
 59.9369642857 68.2992525773 56.9880714286 85.3698402062 31.431 186.845 c 1x48
EndSplineSet
Position2: "cpsp-1" dx=0 dy=0 dh=50 dv=100
Substitution2: "c2pc-1" s.pcap
Substitution2: "c2sc-1" s.smcp
EndChar

StartChar: T
Encoding: 84 84 45
Width: 728
VWidth: 1159
Flags: HMW
LayerCount: 2
Fore
SplineSet
125 683.569 m 0
 250.148728921 683.399579414 375.31580054 682.171572875 500.827254201 682.171572875 c 3
 554.403691979 682.171572875 608.04097244 682.216633693 661.77 682.523 c 0
 677.36831579 682.523 691.991736842 687.9506 698.816 696.092 c 1
 720.477 682 l 1
 705.869909091 646 688.132727273 606 686.046 559 c 1
 654.77 564.046 l 1
 656.457552416 576.289 662.017748929 604.21902879 666.017 616.465 c 0
 675.146512497 652.43110452 587.388 643.971 396.351 644.925 c 1
 394.163109951 517.839025033 393.246428439 392.755200795 393.246428439 265.485340345 c 3
 393.246428439 202.557444735 393.196957247 139.209356184 394.213 74.903 c 0
 395.010428286 27.9242791682 398.217297297 40.813238806 518.569 26.983 c 1
 513 -7 l 1
 474.745360611 -1.66214334103 425.212355377 0.945200232948 374.874776298 0.945200232948 c 3
 331.128779143 0.945200232948 247.969467552 -3.11635527979 203 -11 c 1
 197.862 26.029 l 1
 331.557 38.0397897949 331.034 39.2240290156 331.557 57.443 c 0
 333.409142402 132.424681874 335.625681603 299.576676504 335.625681603 437.35859411 c 3
 335.625681603 535.01379994 334.557334396 618.217045415 331.557 645.448 c 1
 255.378276596 646.2095 181.243600018 644.934862343 107.782 642.787 c 0
 68.5658348625 640.861602578 69.74675 644.218 29.368 558.293 c 1
 -2 573 l 1
 17.682 611.06985 46.2209 688.1857 57.046 709.661 c 1
 84.816 693.092 86.3020567774 683.309242847 125 683.569 c 0
EndSplineSet
Position2: "cpsp-1" dx=0 dy=0 dh=50 dv=100
Substitution2: "c2pc-1" t.pcap
Substitution2: "c2sc-1" t.smcp
EndChar

StartChar: space
Encoding: 44 44 46
Width: 200
VWidth: 1159
Flags: W
HStem: -116.305 223.857
VStem: 38.448 121.581
LayerCount: 2
Fore
SplineSet
55.402 -116.305 m 1
 38.448 -95.598 l 1
 72.448 -67.443 100.804384846 -24.4145718575 90.954 -3.506 c 0
 82.385 14.201 64.9021316273 26.3204824293 47.017 35.908 c 0
 42.971 37.749 41.925 43.3975 41.925 48.523 c 3
 41.925 53.5008571428 42.9164626933 58.0647313467 46.54 59.615 c 0
 65.155 69.184 79.9794105424 81.1567605807 88.339 100.937 c 0
 89.809 104.983 94.643 107.552 99.477 107.552 c 3
 104.523 107.552 109.001375658 105.035940479 110.615 101.414 c 0
 121.476921053 81.368 135.527505887 68.0024980378 154.414 59.615 c 0
 158.46 58.092 160.029 53.569 160.029 48.523 c 1
 160.029 41.092 134.288 -65.138 55.402 -116.305 c 1
EndSplineSet
Position2: "cpsp-1" dx=0 dy=0 dh=7 dv=14
EndChar

StartChar: period
Encoding: 46 46 48
Width: 200
VWidth: 1159
Flags: W
HStem: -9.552 117.104<78.8758 120.754>
VStem: 41.9012 117.913<26.223 69.3255>
LayerCount: 2
Fore
SplineSet
153.34075 35.0989863281 m 0
 135.546223237 25.9696167729 120.293593671 14.3504577899 110.97275 -3.07849316406 c 0
 109.427635545 -7.12449316406 105.565095115 -9.552 100.930243164 -9.552 c 3
 95.883976981 -9.552 89.9973318917 -7.12449316406 88.3152431641 -3.07849316406 c 0
 78.9766853013 14.3504577899 65.393516356 25.9696167729 47.5657363281 35.0989863281 c 0
 43.5197363281 36.9555760574 41.9012431641 44.3834655329 41.9012431641 49.954 c 3
 41.9012431641 54.5888519506 43.5197363281 58.4513923809 47.5657363281 59.9965068359 c 0
 65.393516356 69.2257542432 78.9766853013 82.6499231885 88.3152431641 100.269013672 c 0
 89.9973318917 104.315013672 95.883976981 107.552 100.930243164 107.552 c 3
 105.565095115 107.552 109.427635545 104.315013672 110.97275 100.269013672 c 0
 120.293593671 82.6499231885 135.546223237 69.2257542432 153.34075 59.9965068359 c 0
 157.38675 58.4513923809 159.814256836 54.5888519506 159.814256836 49.954 c 3
 159.814256836 44.3834655329 157.38675 36.9555760574 153.34075 35.0989863281 c 0
EndSplineSet
Position2: "cpsp-1" dx=0 dy=0 dh=7 dv=14
EndChar

StartChar: dotlessi
Encoding: 305 305 50
Width: 263
VWidth: 1159
Flags: HMW
LayerCount: 2
Fore
SplineSet
155.121 200.293 m 3
 155.121 157.624842428 156.69 86.0371458576 159.828 44.937 c 0
 160.874 34.3766271169 176.888600192 32.7502976889 201.414 30.615 c 0
 220.2922816 27.89406596 240.82 24.819999841 257.046 23.661 c 1
 253.523 -5.569 l 1
 214.969472 0.431 171.473184 5.431 129.954 5.431 c 3
 102.040875 5.431 68.545125 -1.569 40.632 -5.569 c 1
 37.1531367187 23.1403291016 l 1
 42.9066622596 23.6628630904 51.2749514875 24.7068176969 57.029 25.753 c 0
 104.722923077 35.092 103.925 38.5443795859 104.971 65.506 c 0
 106.017 94.20275 106.54 150.44838 106.54 180.293 c 3
 106.54 200.293 107.063 242.293 104.448 305.293 c 0
 103.925 335.172792918 101.317453125 342.402 91.465 342.402 c 3
 81.9829 342.402 61.3127769784 334.981402065 44.0545 331.296493164 c 1
 37.77 359.385 l 1
 104.18597385 376.608093079 125.077545163 385.781171838 162.598 434.816 c 1
 183.552 421.678 l 1
 174.549969158 403.253008732 166.558849535 375.91712222 164.350068359 363.190986328 c 0
 157.211091978 328.730958096 155.121 216.875643968 155.121 200.293 c 3
EndSplineSet
Substitution2: "case-1" I
Substitution2: "pcap-1" i.pcap
Substitution2: "smcp-1" i.smcp
EndChar

StartChar: uniFB01
Encoding: 64257 64257 51
Width: 576
VWidth: 1159
Flags: W
HStem: -7 33<326.576 383.392> -6 36<34 95.891 473.708 547.909> 1 32<191.619 271.026> 360 37<39 113 187 374.27> 701 55<287.006 403.458>
VStem: 114 71<42.7113 360 397 601.139> 396 65<39.2303 341.179>
LayerCount: 2
Fore
SplineSet
338 355 m 0x9e
 288 360 238 358 186 360 c 1
 185 330 185 305 185 293 c 3
 185 211 186 134 191 54 c 0
 192 39 198 34 214 33 c 0x3e
 239 32 251 32 276 31 c 1
 273 -6 l 1x5e
 231 -1 182 1 140 1 c 3x3e
 110 1 64 -2 34 -6 c 1
 33 30 l 1x5e
 44 31 58 31 69 33 c 0
 100 40 104 53 106 81 c 0
 111 133 114 201 114 266 c 3
 114 286 113 323 113 360 c 1
 88 359 64 356 39 355 c 1
 39 401 l 1
 64 400 88 398 113 397 c 1
 113 436 113 481 113 493 c 3
 113 601 137 644 224 704 c 0
 263 731 342 756 384 756 c 3
 412 756 477 736 502 716 c 1
 501 689 500 689 451 652 c 1
 412 670 392 701 308 701 c 3
 232 701 203 636 191 498 c 0
 190 487 188 435 187 397 c 1
 287 397 l 2
 340 397 391 397 470 431 c 1
 490 415 l 1
 484 401 477 374 475 363 c 0
 465 319 461 213 461 196 c 3
 461 157 465 91 471 54 c 0
 473 39 492 35 503 33 c 0x3e
 519 29 538 28 552 27 c 1
 547 -7 l 1
 508 -1 464 4 422 4 c 3
 392 4 357 -3 327 -7 c 1
 325 26 l 1
 336 27 351 29 362 31 c 0
 385 37 392 48 394 76 c 0
 396 101 396 160 396 186 c 3
 396 206 396 253 391 316 c 0
 390 332 372 351 338 355 c 0x9e
EndSplineSet
LCarets2: 1 298
Ligature2: "liga-1" f i
EndChar

StartChar: uni0237
Encoding: 567 567 52
Width: 265
VWidth: 1159
Flags: HMW
LayerCount: 2
Fore
SplineSet
-27 -330.954 m 1
 -22.3066428572 -277.656490909 -10.707 -250.092 16.431 -222.385 c 0
 38.7025783716 -199.559570727 64.2290643047 -167.098815124 73.632 -140 c 0
 82.155 -115.954 87.247 -73.126 87.247 96 c 3
 87.247 203.385334115 85.3147059017 252.943293634 86.017 301 c 0
 86.6115248752 324.301562947 85.754625 343.356 74.896 343.356 c 3
 69.2776 343.356 55.804 332.421153846 37.264 327.385 c 1
 29.787 354.615 l 1
 70.2583802817 367.001756757 99.0553239437 381.452972973 140.305 431 c 1
 160.305 418.339 l 1
 153.828 403.440038461 149.506719355 374.685692689 147.305 363 c 0
 137.986428572 319 134.259 217 134.259 196 c 3
 134.259 63.673 132.782 -39.155 132.782 -84 c 3
 132.782 -138.779352941 119.804028962 -163.886249822 105.828 -185.046 c 0
 86.213 -215.23 53.915321201 -239.429152791 28.276 -262.707 c 0
 16.629478188 -273.65482247 -0.0942941176476 -301.52542647 -0.954 -335 c 1
 -27 -330.954 l 1
EndSplineSet
EndChar

StartChar: U
Encoding: 85 85 53
Width: 815
VWidth: 1159
Flags: W
HStem: -10 39.69<293.881 543.552> 658.109 32.368<29.8949 97.9441 171.408 243.455 603.396 678.475>
VStem: 99.477 56.949<152.927 647.622> 678.787 40.213<152.914 619.358> 682.649 43.351<266.16 653.951>
LayerCount: 2
Fore
SplineSet
30.741 690.477 m 1xf0
 54.4240977735 686.977 92.5144133591 685.227 132.677 685.227 c 3
 171.324090596 685.227 211.965257118 686.977 242.731 690.477 c 1
 246.731 660.201 l 1
 179.762147802 653.267465276 163.818990383 653.019038672 162.995 611.511 c 0
 162.919446326 604.629319996 156.426 290.450418248 156.426 256.431 c 0
 156.426 190.877150685 176.495643178 136.855390773 218.552 94.213 c 0
 257.156160516 54.6308437623 327.905464789 29.69 422.966 29.69 c 3
 471.38826697 29.69 558.173443268 37.8784238678 618.063 91.414 c 0
 653.632 123.598 675.190363827 174.758251178 678.787 257 c 0xf0
 683.056294944 357.535751198 684.900095404 521.477119622 682.649 624.218 c 0
 681.728879504 660.779474901 666.959 652.567285714 600.959 659.155 c 1
 603.913 692 l 1
 627.713111625 687.878263908 677.115665592 684.796652821 718.796500645 684.796652821 c 3
 750.016045075 684.796652821 777.196768844 686.299374976 788.167 690 c 1
 791.644 657.678 l 1
 741.69 651.069636363 727.046 662.827765029 726 629.448 c 0xe8
 725.477 617.974163481 724.11353162 494.912045861 719 255 c 0
 717.722059601 179.913203076 694.996989033 116.573895803 653.431 74 c 0
 599.121904 17.477 511.250364 -10 402 -10 c 3
 302.620371186 -10 220.638064499 16.1650526599 173.448 62.954 c 0
 127.122896499 108.913814201 99.477 164.998465517 99.477 246.971 c 0
 99.477 277.943888715 104.611576186 599.097854088 104.477 614.511 c 0
 104.267695321 649.225329607 98.2076640654 649.831255995 25.741 658.109 c 1
 30.741 690.477 l 1xf0
EndSplineSet
Position2: "cpsp-1" dx=0 dy=0 dh=50 dv=100
Substitution2: "c2pc-1" u.pcap
Substitution2: "c2sc-1" u.smcp
EndChar

StartChar: V
Encoding: 86 86 54
Width: 841
VWidth: 1159
Flags: W
HStem: 658.862 27.2101<156.176 263.187 593.907 693.921> 665.632 32.368<9.93439 75.7214 154.95 266.138 592.138 694.482 760.679 831.078>
LayerCount: 2
Fore
SplineSet
266.138 694 m 1x80
 266.138 663.724 l 1
 239.213651007 663.293 194.982691275 659.908 169.409 658.862 c 0x80
 148.426 655.724 151.658789682 647.075830663 157.179 634.787 c 2
 437.029 59.547 l 1
 692.758 633.988 l 2
 697.309404051 645.339230436 697.840638189 658.77 680.39 659.816 c 0
 645.696615385 659.816 597.960384616 664.201 591.138 665.632 c 1
 592.138 698 l 1
 629.742203208 690.912815141 675.762371407 687.843849512 719.042686762 687.843849512 c 3
 764.025944565 687.843849512 805.829749859 691.66964065 830 698 c 1x40
 835 665.54 l 1
 783.344276596 655 757.371425532 661.586 736.54 625.235 c 0
 716.441784675 588.078570755 544.185661884 222.057251066 471.385 60 c 0
 460.004502746 34.1679537497 444.138 -3.816 440.138 -27 c 1
 404.632 -27 l 1
 402.678 -2.862 389.434292511 20.612699348 373.293 56.523 c 0
 323.342708465 167.760025456 199.150765813 423.264318007 93.569 630.126 c 0
 78.3200225506 658.892433264 64.42415 653.385 6 665.155 c 1
 11 696 l 1
 47.1969575181 688.55627118 90.8893691607 686.072082269 122.547796277 686.072082269 c 3
 153.647402316 686.072082269 202.973182149 690.113841317 266.138 694 c 1x80
EndSplineSet
Position2: "cpsp-1" dx=0 dy=0 dh=50 dv=100
Substitution2: "c2pc-1" v.pcap
Substitution2: "c2sc-1" v.smcp
EndChar

StartChar: W
Encoding: 87 87 55
Width: 1130
VWidth: 1159
Flags: W
HStem: 659.862 22.7223<865 966.185> 663.247 29.753<10.0136 76.8591 198.652 286.142 413.769 487.689 574.315 687.212 1084.57 1121.77>
VStem: 379.816 32.23<-21 25.3123> 762.247 31.23<-15 29.5574>
LayerCount: 2
Fore
SplineSet
1121 693 m 1x70
 1125.569 663.201 l 1
 1055.77 643.433055664 1053.18505627 630.93031448 1024.327 558.981 c 0
 877.201 198.419 832.002769962 87.2031100456 814 42 c 0
 804.470854251 18.9022269039 794.954571429 1.276 793.477 -15 c 1
 762.247 -15.523 l 1
 761.6286 -2.52505405406 755.67448114 18.1991274573 740.339 57.523 c 0
 689.966432386 183.201 639.617445306 308.879 590.724 434.557 c 1
 479.816939454 157.707204082 442.775710359 61.7170038185 426.954 23.477 c 0
 418.926615385 3.26018181818 413.192769231 -9.2874318182 412.046 -21 c 1
 379.816 -21 l 1
 377.618 -5.68327272728 372.411386595 12.597278918 351.448 63.242 c 0
 235.364571428 348.554942361 129.136664695 580.682485426 119.661 601.344 c 0
 115.638452737 609.984718896 110.105289469 621.447072945 94.247 639.695 c 0
 66.339 657.479294118 35.385 656.826117647 5 662.586 c 1
 11 695 l 1
 42 686 93.25 682 145.375 682 c 3
 197.5 682 250.5 686 285 693 c 1
 291.569 664.247 l 1
 211.627 655.661 177.179 650.20284375 177.179 624.804 c 0
 177.179 615.911314286 180.08288534 607.179137695 183.748 598.867 c 2
 410.029 64.07 l 1
 573.017 474.356 l 1
 525.965215821 592.874125 500.533741221 631.879238339 496.281 639.586 c 1
 484.075377049 659.816 468.509573771 653.615 409.971 663.385 c 1
 414.54 690 l 1
 445.757530507 684.958333333 484.515782064 682.4375 524.877242477 682.4375 c 3
 579.951411206 682.4375 637.610944837 685.958333333 686.54 693 c 1
 690.54 663.247 l 1x70
 661.307754098 659.431 607.269131148 657.477 590.38 656.477 c 0
 567.855531849 653.710882469 566.430806844 640.112926892 572.828 623.31 c 2
 790.937 68.363 l 1
 861.385 245.23 941.419925316 449.398105617 986.482 570.809 c 0
 1009.804 638.140004883 999.712 657.230787109 865 659.862 c 1
 865 688 l 1
 891.424707408 684.754860494 927.735594389 682.584305724 968.652078053 682.584305724 c 3xb0
 1015.99540112 682.584305724 1069.50477037 685.490279012 1121 693 c 1x70
EndSplineSet
Position2: "cpsp-1" dx=0 dy=0 dh=50 dv=100
Substitution2: "c2pc-1" w.pcap
Substitution2: "c2sc-1" w.smcp
EndChar

StartChar: X
Encoding: 88 88 56
Width: 761
VWidth: 1159
Flags: W
HStem: -6 33.661<164.059 262.627 682.072 743.023> -6 27.661<18.6188 78.8881 162.994 263> 659.247 29.753<632.254 702.471> 659.954 25.046<13 73.5693 172.687 271.977 447 535.453>
LayerCount: 2
Fore
SplineSet
13 685 m 1x50
 57.995726729 682.979465194 91.5563485075 681.795874747 121.969454011 681.795874747 c 3
 169.962021553 681.795874747 210.11678477 684.743198768 275 692 c 1
 276 663.247 l 1
 262.441384615 660.1022 221.008119608 656.974792797 187.869 655.385 c 0
 168.793049512 652.640986866 167.790595051 640.684720663 175.685 630.264 c 2
 373.707 384.46 l 1
 443.223463318 477.932222646 504.653084162 564.645359021 537.482 611.097 c 0
 546.028187721 623.206319517 552.773359194 642.173933165 532.821 648.724 c 0
 523.192392857 650.430461539 471.373 654.954 442.954 659.816 c 1
 447 686 l 1
 487.585712798 683.584183762 528.871765767 681.868707696 570.181401645 681.868707696 c 3
 614.37006491 681.868707696 658.585712798 683.831632476 702 689 c 1
 704 659.247 l 1
 686.936654546 657.883 628.037639033 653.588705461 599.724 624.465 c 0
 582.639977142 605.05104025 542.115680664 550.938797852 393.891 363.414 c 1
 453.463074689 294.767266477 631.994223288 89.2708286578 654.925 63.765 c 0
 677.688295332 38.5713977056 703.617 36.2656666667 747.092 28.845 c 1
 742 -2 l 1
 713.157233926 3.8521554354 672.607337968 6.55911179773 629.84557086 6.55911179773 c 3
 570.309176868 6.55911179773 506.485189515 1.31182235955 464 -8 c 1
 461 20.707 l 1
 500.62 29.569 542.634644124 33.3089467197 558.177 36.615 c 0
 582.125050254 43.5618153548 576.991410441 63.3995439543 562.792 81.443 c 0
 520.298 134.950445312 453.126 220.650751953 365.816 322.448 c 1
 285.368 218.97822272 213.414150309 119.606485234 168.087 56.673 c 0
 160.811046182 45.8625698001 154.927960866 30.4557833778 178.271 27.661 c 0xa0
 203.12275 26.138 245.72575 23.138 263.477 21.661 c 1
 263 -6 l 1
 215.659693502 -2.91258870663 174.674126 -0.619519787796 134.593382787 -0.619519787796 c 3
 96.7821846861 -0.619519787796 59.7762418928 -2.66025403784 19 -8 c 1
 17 20.23 l 1
 50.85 25.092 84.247 29.891 112.891 58.489 c 0
 130.151647578 76.0487683315 142.057560748 91.472995958 344.063 345.109 c 1
 171.361 548.580609375 116.702999511 610.517525911 99.138 628.356 c 0
 72.4367488128 653.980329387 55.419 657.325375 12 659.954 c 1
 13 685 l 1x50
EndSplineSet
Position2: "cpsp-1" dx=0 dy=0 dh=50 dv=100
Substitution2: "c2pc-1" x.pcap
Substitution2: "c2sc-1" x.smcp
EndChar

StartChar: Y
Encoding: 89 89 57
Width: 735
VWidth: 1159
Flags: W
HStem: -11 32.937<246.784 336.681 434.417 545.358> 654.724 29.4908<174.374 267.95 482.983 575.291 647.642 729> 659.155 32.845<9.24917 84.3955 482.574 575.291>
VStem: 365.402 59.041<40.1628 326.206>
LayerCount: 2
Fore
SplineSet
272.569 658.155 m 1xd0
 272.569 658.155 225.326675676 654.724 193.116 654.724 c 0xd0
 170.172545454 654.724 163.110049709 648.174692388 177.317 629.155 c 0
 287.463083787 474.386565253 389.881064516 356.087954847 395.753 350.351 c 1
 483.9354 483.27 567.949988917 611.386039283 570.821 616.189 c 0
 579.2435 629.723 584.542886039 644.934322734 563.298 650.155 c 0
 538.307062356 652.747183603 503.769340426 656.201 481 659.155 c 1
 483 691 l 1
 506.158416846 687.343407866 568.314609615 682.572593564 628.046975448 682.572593564 c 3
 666.327781965 682.572593564 703.613081447 684.532048312 729 690 c 1
 729.477 656.063 l 1
 661.138 648.202714286 645.052795406 644.797865755 624.356 621.942 c 0
 559.036707692 541.801497721 477.283138461 414.582814012 417.644 322.121 c 1
 417.121 270.531 415.478516601 215.682196522 424.443 59.012 c 0
 427.002137654 29.0868822335 439.788265734 33.57525 548.569 22.937 c 1
 544.523 -11 l 1
 489.882774596 -3.57320366615 439.819964064 0.770642451937 389.622667727 0.770642451937 c 3
 343.888884636 0.770642451937 298.043469121 -2.83504983146 248.523 -11 c 1
 240.339 21.937 l 1
 345.068215517 37.2782368376 365.402 37.1823985315 365.402 70.903 c 2
 363.31 302.77 l 1
 335.938057627 335.923447266 229.408451987 482.955692396 105.891 627.08 c 0
 83.6856362334 650.131738317 68.4918846154 648.922363636 6.477 659.155 c 1
 10 692 l 1xb0
 45.1714158843 688.297745696 113.467325179 684.214750089 174.244228645 684.214750089 c 3
 211.964454466 684.214750089 246.788458268 685.787466223 269 690 c 1
 272.569 658.155 l 1xd0
EndSplineSet
Position2: "cpsp-1" dx=0 dy=0 dh=50 dv=100
Substitution2: "c2pc-1" y.pcap
Substitution2: "c2sc-1" y.smcp
EndChar

StartChar: Z
Encoding: 90 90 58
Width: 710
VWidth: 1159
Flags: W
HStem: -1.046 32.891<120.3 597.312> 649.155 33.937<95.4117 589.608>
LayerCount: 2
Fore
SplineSet
12 563 m 1
 59.3875625 667.000673077 47.0621875 700.395653846 81.724 711.845 c 1
 99.2548235295 690.863304285 134.234095492 683.451066141 155.925 683.092 c 0
 187.827654484 682.410102766 537.429986071 681.421790098 642.385 682.579203125 c 0
 654.018143164 682.827192456 662.748686484 682.889544243 667.862 683.092 c 1
 679.862 662.523 l 1
 659.958242188 640.099609375 l 0
 120.3 32.891 l 1
 229.702497816 32.891 340.544502184 31.845 449.947 31.845 c 0
 595.96829927 31.845 630.736 36.116 672.908 152.138 c 1
 698 141 l 1
 662.431 53.358875 650.895108108 18.6876607143 626.862 -20.799 c 1
 605.365289256 -12.10768 588.989919617 -1.569 503 -1.046 c 0
 352 0 108 4.184 29 0.523 c 1
 21.385 21.799 l 1
 55.760173913 46.8086336634 90.382160758 84.3616424465 117.908 115.046 c 0
 274.172 289.497874023 433.913 469.065175781 585.608 644.678 c 0
 589.608 648.678 l 1
 171.23 649.155 l 2
 87.9812631683 649.266794428 88.494 662.273829102 36.184 547.862 c 1
 12 563 l 1
EndSplineSet
Position2: "cpsp-1" dx=0 dy=0 dh=50 dv=100
Substitution2: "c2pc-1" z.pcap
Substitution2: "c2sc-1" z.smcp
EndChar

StartChar: parenleft
Encoding: 40 40 59
Width: 383
VWidth: 1515
Flags: W
VStem: 37 36.552<60.6287 364.871>
LayerCount: 2
Fore
SplineSet
334.615 726.385 m 1
 350.845 697.586 l 1
 161.206382252 600.729112999 73.552 420.366986194 73.552 212.431 c 3
 73.552 5.76040981288 157.815693137 -171.876578858 350.753 -275.063 c 1
 334.046 -302.908 l 1
 144.068693545 -201.019829088 37 -20.3793088228 37 212.431 c 3
 37 444.562884911 145.785683056 629.950403136 334.615 726.385 c 1
EndSplineSet
Position2: "cpsp-1" dx=0 dy=0 dh=50 dv=100
Position2: "'case' vertical ajustments for all-caps-1" dx=0 dy=125 dh=0 dv=0
EndChar

StartChar: zero
Encoding: 48 48 63
Width: 502
VWidth: 1159
Flags: W
HStem: -1.862 28.707<195.146 316.341> 366.586 30.276<183.509 304.618>
VStem: 52.138 49.627<111.71 281.429> 391.373 52.765<103.825 284.937>
LayerCount: 2
Fore
SplineSet
240.678 366.586 m 3
 156.986177099 366.586 101.765 287.567800461 101.765 204.983 c 3
 101.765 108.431528181 160.542448172 26.845 259.46 26.845 c 3
 347.027873438 26.845 391.373 109.14699787 391.373 188.247 c 3
 391.373 286.609626085 337.305316462 366.586 240.678 366.586 c 3
251.138 396.862 m 3
 358.502721538 396.862 444.138 304.241793915 444.138 194 c 3
 444.138 86.7327183304 363.215274562 -1.862 252.138 -1.862 c 3
 141.162191828 -1.862 52.138 86.4021880192 52.138 194 c 3
 52.138 302.478859539 142.825224901 396.862 251.138 396.862 c 3
EndSplineSet
Substitution2: "'zero' Slashed Zero lookup 22-1" zero.alt
Substitution2: "dnom-1" zero.denom
Substitution2: "numr-1" zero.numerator
Substitution2: "lnum-1" zero.proportionallining
Substitution2: "tnum-1" zero.tabulartext
EndChar

StartChar: one
Encoding: 49 49 64
Width: 371
VWidth: 1159
Flags: W
HStem: -2.862 25.046<82.247 145.358 219.627 282.598> 371.385 23.477<92.247 152.19> 381.385 23.477<232.698 277.479>
VStem: 163.247 47.012<32.475 365.914>
LayerCount: 2
Fore
SplineSet
92.247 394.862 m 1xd0
 141.056640707 390.747865164 224.546303944 391.699942797 276.598 404.862 c 1
 279.552 381.385 l 1xb0
 215.589394337 369.605035484 213.588869148 365.786197736 210.259 330.339 c 0
 209.69081543 321.102408 206.598 250.288377 206.598 200 c 3
 206.598 142.967503 209.353561265 65.9239642517 210.259 52.753 c 0
 213.187977528 26.8233414634 228.250022472 26.9291219512 284.075 22.707 c 1
 282.598 -2.862 l 1
 214.138444273 3.6155390625 150.923097281 4.4280390625 82.247 -2.862 c 1
 80.724 22.184 l 1
 136.466129032 27.4242 151.741 27.9881637383 158.017 56.753 c 0
 160.109 66.0917654 163.247 89.9697316 163.247 200 c 3
 163.247 300.620080561 161.664025332 322.178757611 161.109 328.339 c 0
 157.766571428 364.367 159.991995143 367.471761 91.724 371.385 c 1
 92.247 394.862 l 1xd0
EndSplineSet
Substitution2: "dnom-1" one.denom
Substitution2: "numr-1" one.numerator
Substitution2: "tnum-1" one.tabulartext
Substitution2: "lnum-1" one.proportionallining
EndChar

StartChar: two
Encoding: 50 50 65
Width: 445
VWidth: 1159
Flags: W
HStem: 1.046 44.443<98.581 364.655> 418.833 39.167<119.521 243.504>
VStem: 281.465 47.012<263.986 386.088>
LayerCount: 2
Fore
SplineSet
55.046 367 m 1
 81.849735439 414.314453125 121.494243266 458 190 458 c 0
 266.262695652 458 328.477 405 328.477 335 c 3
 328.477 209.567855019 117.461347826 70.2427286246 98.581 45.489 c 1
 337.523 47.535 l 2
 360.223154041 47.5576773918 383.127148352 96.2409130435 413.569 133.707 c 1
 433.092 117.184 l 1
 433.092 117.184 375.723018916 42.5958966942 371.908 -5.753 c 1
 337.553508197 2.615 261.769314675 1.44674794083 187 1.046 c 0
 97 0.569 38 -0.477 33 -0.477 c 1
 27 18 l 1
 83.1134678112 76.2694104234 281.465 201.276536612 281.465 329.77 c 3
 281.465 388.9343875 228.552296703 418.833 179.017 418.833 c 0
 127.590483871 418.833 97.4053548387 388.448538461 75.046 353 c 1
 55.046 367 l 1
EndSplineSet
Substitution2: "dnom-1" two.denom
Substitution2: "numr-1" two.numerator
Substitution2: "tnum-1" two.tabulartext
Substitution2: "lnum-1" two.proportionallining
EndChar

StartChar: three
Encoding: 51 51 66
Width: 388
VWidth: 1159
Flags: W
HStem: -236.862 24.569<102.239 118.583> 122 24.569<92.2745 119.682> 418.218 38.644<131.718 227.03>
VStem: 253.172 46.489<261.937 395.382> 270.557 49.104<-82.9676 68.526>
LayerCount: 2
Fore
SplineSet
95.77 -212.293 m 1xe8
 222.2904125 -160.693149254 270.557 -83.007641791 270.557 -0.322 c 3xe8
 270.557 73.68425 206.75975 120.09425 154.155 141.77 c 1
 149.731 141.77 117.657 123.908 94.431 122 c 1
 86.862 146.569 l 1
 152.51068421 165.366606558 253.172 224.892360656 253.172 337.678 c 3
 253.172 401.086239437 200.555387097 418.218 180.678 418.218 c 3
 141.303333333 418.218 111.562 389.792125 92.523 366.293 c 1
 76.615 382.385 l 1
 86.0543157895 414.696162162 148.238263158 456.862 189.661 456.862 c 3
 248.661 456.862 299.661 411.081454546 299.661 344.954 c 3xf0
 299.661 238.127209302 200.828564357 171.363116279 196.753 167.23 c 1
 247.541429752 147.362228915 319.661 92.4425903615 319.661 6 c 3
 319.661 -143.7649 147.397891892 -229.778525 104.816 -236.862 c 1
 95.77 -212.293 l 1xe8
EndSplineSet
Substitution2: "dnom-1" three.denom
Substitution2: "numr-1" three.numerator
Substitution2: "tnum-1" three.tabulartext
Substitution2: "lnum-1" three.proportionallining
EndChar

StartChar: four
Encoding: 52 52 67
Width: 463
VWidth: 1159
Flags: W
HStem: -7 21G<402.722 421.689> 0 34.529<68.2077 266.494 309.845 402.41> 398.961 20G<309.099 342.569>
VStem: 266.494 43.351<-178.586 0 34.7675 294.433>
LayerCount: 2
Fore
SplineSet
267.017 34.529 m 1x70
 267.017 128.07221444 270.581980469 231.200151251 265.971 294.4335 c 1
 265.971 294.4335 138.443974922 132.833442391 47.845 34.529 c 1
 267.017 34.529 l 1x70
342.569 407.592 m 1
 331.438165296 380.031117188 314.344638672 353.991135389 314.029 340.592 c 0
 311.937 223.719674242 311.680607422 167.291651115 309.845 34.7675 c 1
 394.432737238 34.3984840127 397.65418663 32.1455605438 435.046 102.115 c 1
 435.046 102.115 451.3663125 95.45484375 456.046 93.115 c 1
 456.046 93.115 430.762751605 32.0444684642 412.615 -7 c 1xb0
 392.828449917 2.01988598633 338.969242966 0.579936767578 309.845 0.523 c 1
 309.035574915 -124.496011004 305.39934654 -160.261821011 321.138 -179.5 c 1
 283.62624 -203 262.46576 -227 249 -252.5 c 1
 249 -252.5 227.169742187 -242.651049548 223.908 -238.27 c 1
 256.597058823 -171.208659529 265.983936754 -180.216580074 266.494 0 c 1
 64.0562511273 0 26.8560119522 0.915823529412 6.431 -15.569 c 1
 6.431 -15.569 -8.41319308036 -1.73245190429 -13.138 2.046 c 1
 1.69189598811 17.9549911334 298.652839246 364.77080364 319.546 418.960804688 c 1
 342.569 407.592 l 1
EndSplineSet
Substitution2: "dnom-1" four.denom
Substitution2: "numr-1" four.numerator
Substitution2: "tnum-1" four.tabulartext
Substitution2: "lnum-1" four.proportionallining
EndChar

StartChar: five
Encoding: 53 53 68
Width: 362
VWidth: 1159
Flags: W
HStem: 348.442 50.058<120.441 289.957>
VStem: 261.264 44.397<-41.9064 107.503>
LayerCount: 2
Fore
SplineSet
96.477 393.5 m 1
 158.594262926 395.450195312 240.748776763 396.274270637 255.753 398.5 c 0
 284.830192796 402.759765625 299.910640305 428.610351562 313 448.5 c 1
 313 448.5 330.784347656 436.442565569 335.092 434.023 c 1
 310.164661295 395.014639719 280.081560375 348.547405446 261.753 348.442 c 0
 232.333148701 348.360070312 181.765867417 345.442 122 345.442 c 1
 122 345.442 115.903384277 274.253765137 111.138 217.977 c 1
 192.482192308 223.541346154 305.661 174.141351066 305.661 48.5 c 3
 305.661 -95.0740055888 153.043363636 -205.07858444 47.385 -214.046 c 1
 47.385 -214.046 47.6437910156 -190.624239197 45.862 -185.385 c 1
 134.993862069 -179.353450237 261.264 -86.0092612328 261.264 37.54 c 3
 261.264 101.376868471 213.964354286 184.049387097 74.816 171.557 c 1
 83.04718 223.022043478 93.322616875 312.314934988 96.477 393.5 c 1
EndSplineSet
Substitution2: "dnom-1" five.denom
Substitution2: "numr-1" five.numerator
Substitution2: "tnum-1" five.tabulartext
Substitution2: "lnum-1" five.proportionallining
EndChar

StartChar: six
Encoding: 54 54 69
Width: 487
VWidth: 1159
Flags: W
HStem: -12.862 32.368<212.743 322.646> 332.402 34.46<214.286 320.235>
VStem: 69.569 49.104<121.579 355.241> 392.649 44.92<93.2567 256.374>
LayerCount: 2
Fore
SplineSet
365.661 632.385 m 1
 365.661 632.385 373.713095703 612.717559571 375.753 609.862 c 1
 212.739335664 544.066043903 118.673 404.59849987 118.673 229.69 c 3
 118.673 133.363561572 170.073015524 19.506 273.351 19.506 c 3
 339.456932034 19.506 392.649 89.8794796628 392.649 159.172 c 3
 392.649 260.177733803 334.985768036 332.402 264.201 332.402 c 3
 224.714722338 332.402 192.438942069 308.058237946 169.673 263.874 c 1
 148.196 275.012 l 1
 168.524582413 329.041471964 219.171339286 366.862 281.46 366.862 c 3
 368.201001667 366.862 437.569 279.174782033 437.569 178 c 3
 437.569 77.7366670543 347.408082907 -12.862 255.569 -12.862 c 3
 133.286310949 -12.862 69.569 115.012662294 69.569 214 c 3
 69.569 417.101536381 192.775208622 574.052212224 365.661 632.385 c 1
EndSplineSet
Substitution2: "dnom-1" six.denom
Substitution2: "numr-1" six.numerator
Substitution2: "tnum-1" six.tabulartext
Substitution2: "lnum-1" six.proportionallining
EndChar

StartChar: seven
Encoding: 55 55 70
Width: 420
VWidth: 1159
Flags: W
HStem: 363.327 46.489<84.808 374.619>
LayerCount: 2
Fore
SplineSet
84.661 420.569 m 1
 87.7638 412.127671053 92.8717270329 410.122956054 117.661 409.816 c 0
 237.310499971 407.238794922 410.750363636 408.77 424.707 410.862 c 1
 424.707 410.862 432.598178711 392.378904297 434.23 390.339 c 1
 406.339 359.385 161.31 -98.133 133.351 -171.908 c 1
 133.351 -171.908 98.8469765625 -164.729916992 86.201 -165.138 c 1
 188.639873794 13.4366474227 268.303391155 151.009632823 374.511 350.39 c 0
 376.906808673 355.031343935 373.373618239 360.899442383 368.804 361.235 c 0
 281.742705586 364.436332031 270.83491746 365.419 138.661 363.327 c 0
 80.7766748194 362.500108398 67.7424594594 357.992297852 40.753 285.862 c 1
 40.753 285.862 19.4016425781 294.092344727 16.138 294.908 c 1
 18.523 303.494 54.6933846091 394.741966187 60.661 425.092 c 1
 84.661 420.569 l 1
EndSplineSet
Substitution2: "dnom-1" seven.denom
Substitution2: "numr-1" seven.numerator
Substitution2: "tnum-1" seven.tabulartext
Substitution2: "lnum-1" seven.proportionallining
EndChar

StartChar: eight
Encoding: 56 56 71
Width: 468
VWidth: 1159
UnlinkRmOvrlpSave: 1
Flags: W
HStem: -9.862 29.23<175.729 300.086> 606.724 27.138<177.855 272.345>
VStem: 60.23 45.966<79.6944 221.96> 91.23 34.46<446.545 554.43> 333.971 41.259<425.972 554.944> 364.264 45.966<74.6257 214.573>
LayerCount: 2
Fore
SplineSet
221.477 606.724 m 3xe8
 167.123571228 606.724 125.69 550.179091578 125.69 503.351 c 3
 125.69 355.603540227 410.23 328.271622914 410.23 155 c 3xd4
 410.23 54.9477472811 327.65392571 -9.862 220.23 -9.862 c 3
 132.545172949 -9.862 60.23 44.407447533 60.23 133 c 3
 60.23 343.865119109 333.971 330.623348867 333.971 486.017 c 3
 333.971 533.427712992 301.096483034 606.724 221.477 606.724 c 3xe8
228.799 633.862 m 3
 308.874083258 633.862 375.23 583.994678908 375.23 497 c 3
 375.23 323.837879219 106.196 335.332626437 106.196 153.92 c 3xe8
 106.196 87.3351673895 153.949592954 19.368 234.874 19.368 c 3
 342.935781322 19.368 364.264 103.547360453 364.264 139.678 c 3
 364.264 222.576884002 312.060987818 255.366384958 235.836284179 308.020493164 c 0
 166.196578441 356.656609635 91.23 404.550078897 91.23 484 c 3
 91.23 571.553139146 160.473488179 633.862 228.799 633.862 c 3
EndSplineSet
Substitution2: "dnom-1" eight.denom
Substitution2: "numr-1" eight.numerator
Substitution2: "lnum-1" eight.proportionallining
Substitution2: "tnum-1" eight.tabulartext
EndChar

StartChar: uniFB00
Encoding: 64256 64256 73
Width: 642
VWidth: 1159
Flags: W
HStem: -6 39<34 100.133 318.611 384.133 475.174 568.568> 1 32<191.619 269.028 475.619 566.018> 360 37<39 113 187 399 471 624> 669 55<273.933 387.321> 701 55<557.254 661.117>
VStem: 114 71<42.7113 360 397 588.557> 400 69<44.5312 360 397 610.446>
LayerCount: 2
Fore
SplineSet
399 397 m 1x36
 399 436 397 481 397 493 c 3
 397 551 409 593 431 627 c 1
 393 645 346 669 309 669 c 3
 206 669 189 602 189 491 c 3
 189 480 188 435 187 397 c 1
 209 398 245 399 282 399 c 3
 332 399 385 398 399 397 c 1x36
483 685 m 1
 490 691 499 698 508 704 c 0
 547 731 584 756 643 756 c 3
 675 756 725 745 750 723 c 1
 749 696 750 696 701 659 c 1
 662 677 631 701 593 701 c 3
 490 701 475 609 475 498 c 3
 475 487 472 435 471 397 c 1
 523 399 572 399 624 401 c 1
 624 355 l 1
 572 357 522 358 470 360 c 1
 469 330 469 305 469 293 c 3
 469 211 470 134 475 54 c 0
 476 39 482 34 498 33 c 0
 523 32 546 32 571 31 c 1
 568 -6 l 1xae
 526 -1 466 1 424 1 c 3x66
 394 1 349 -2 319 -6 c 1
 317 30 l 1
 328 31 342 31 353 33 c 0xa6
 384 40 388 53 390 81 c 0
 395 133 400 201 400 266 c 3
 400 286 399 323 399 360 c 1
 385 359 332 359 282 359 c 3
 245 359 208 359 186 360 c 1
 185 330 185 305 185 293 c 3
 185 211 186 134 191 54 c 0
 192 39 198 34 214 33 c 0
 239 32 248 32 273 31 c 1
 271 -7 l 1
 229 -2 182 1 140 1 c 3x66
 110 1 64 -2 34 -6 c 1
 33 30 l 1
 44 31 58 31 69 33 c 0xa6
 100 40 104 53 106 81 c 0
 111 133 114 201 114 266 c 3
 114 286 113 323 113 360 c 1
 88 359 64 356 39 355 c 1
 39 401 l 1
 64 400 88 398 113 397 c 1
 113 436 113 474 113 486 c 3
 113 594 156 625 224 672 c 0
 263 699 304 724 363 724 c 3
 394 724 457 706 483 685 c 1
EndSplineSet
Substitution2: "salt-1" uniFB00.alt
LCarets2: 1 311
Ligature2: "liga-1" f f
EndChar

StartChar: question
Encoding: 63 63 74
Width: 378
VWidth: 1159
Flags: W
HStem: -9.552 117.104<96.8758 138.754> 592.576 57.1355<62.6658 190.853> 681.372 20G<41.3305 59.1523>
VStem: 26.3259 24.7201<669.685 694.462> 59.9012 117.913<26.223 69.3255> 109.046 20.862<182.138 243.997> 275.431 25.569<381.85 499.755>
LayerCount: 2
Fore
SplineSet
38 587.518893164 m 1xf6
 39.1001386505 599.4070515 39.5489165845 610.020823799 39.5489165845 619.521870035 c 1
 39.5489165845 655.517614528 26.3259481677 677.472620316 26.3259481677 685.387342727 c 1
 26.3259481677 690.327971883 31.6149501778 696.545235591 51.046 701.3724 c 1
 67.2585791304 650.245234042 74.5569800851 649.7114 104.276 649.7114 c 3
 206.150781542 649.7114 301 568.19232974 301 444.799906836 c 3
 301 276.637751649 169.50596 265.56960748 152.92 259.891906836 c 0
 138.63687 252.569906836 131.302841 223.444642224 129.908 182.138 c 1
 129.908 182.138 114.613016 181.414906836 109.046 181.414906836 c 1
 107.36017904 208.769193838 105.770891046 235.262182137 105.770891046 256.222079845 c 3
 105.770891046 283.942590292 109.155313522 303.787893699 120.552 309.748906836 c 0
 155.146344 322.699920616 275.431 310.215825361 275.431 440.092906836 c 3
 275.431 534.212508281 196.507773394 592.575920822 93.2849613239 592.575920822 c 3
 75.2716119696 592.575920822 56.7540090407 590.925173742 38 587.518893164 c 1xf6
EndSplineSet
Refer: 48 46 N 1 0 0 1 18 0 2
Position2: "cpsp-1" dx=0 dy=0 dh=50 dv=100
Substitution2: "smcp-1" question.smcp
Substitution2: "pcap-1" question.pcap
EndChar

StartChar: exclam
Encoding: 33 33 75
Width: 266
VWidth: 1159
Flags: W
HStem: -9.552 117.104<101.876 143.754>
VStem: 64.9012 117.913<26.223 69.3255> 110.017 54.857<312.687 650.739> 114.724 34.983<208.523 405.954>
LayerCount: 2
Fore
SplineSet
114.724 208.523 m 1x90
 114.724 338.714388889 113.678 436.858666667 110.017 533 c 0
 107.925 579.629371 95.373 603.440002 96.419 653.046 c 1
 138.782 658.276 172.719 672.92 175.334 656.707 c 1
 166.966 621.914165729 168.012 613.416790873 164.874 533 c 0xa0
 159.121 408 149.707 342 149.707 208 c 1
 114.724 208.523 l 1x90
EndSplineSet
Refer: 48 46 N 1 0 0 1 23 0 2
Substitution2: "pcap-1" exclam.pcap
Substitution2: "smcp-1" exclam.smcp
Position2: "cpsp-1" dx=0 dy=0 dh=50 dv=100
EndChar

StartChar: paragraph
Encoding: 182 182 76
Width: 591
VWidth: 1159
UnlinkRmOvrlpSave: 1
Flags: W
HStem: -9.908 21G<358.385 461.166> 661 20G<301.535 333.618> 702.695 40.213<419.091 554.046>
VStem: 53.9294 143.204<291.216 437.268> 293.535 31.322<51.753 537.259> 301.535 32.368<189.218 676.816>
LayerCount: 2
Fore
SplineSet
301.535 676.816 m 1xf4
 333.903 681 l 1xf4
 324.857 45.477 l 1
 293.535 51.753 l 1xf8
 301.535 676.816 l 1xf4
554.046 742.908 m 1
 556.046 702.695 l 1
 510.085790697 698.562125 353.397550572 690.771214178 273.719 636.569 c 0
 220.632420954 600.683372821 197.133 570.504649315 197.133 329.068 c 3
 197.133 159.6848 218.116173579 122.4393874 266.966 87.092 c 0
 292.51581291 68.3686855469 368.150170561 47.0718369141 464.707 29.782 c 1
 457.569 -9.908 l 1
 259.200545628 33.0993143401 221.656508393 67.5921286218 166.615 128.138 c 0
 106.466184466 194.732 76.2550202512 277.376460531 59.799 342.046 c 0
 56.6367006644 354.48210308 53.9294296875 364.771698725 53.9294296875 375.217072266 c 3
 53.9294296875 382.724096098 55.320095999 391.059215105 58.799 399.954 c 0
 89.3493846154 478.098209303 141.943670537 587.332292752 244.138 658.431 c 0
 346.76987013 729.834178571 554.046 742.908 554.046 742.908 c 1
EndSplineSet
Position2: "cpsp-1" dx=0 dy=0 dh=50 dv=100
EndChar

StartChar: ampersand
Encoding: 38 38 78
Width: 676
VWidth: 1159
Flags: W
HStem: -13.862 41.259<144.673 290.835 514.345 595.094> 469.777 29.562<570.659 632.36> 495.053 28.516<486.074 513.791>
VStem: 17 49.104<105.767 266.16> 81 31.322<475.197 562.753> 301.64 43.874<463.107 571.822>
LayerCount: 2
Fore
SplineSet
209.3935 374.119013672 m 1x9c
 119.3620233 337.758902454 66.104 270.517006706 66.104 195.012 c 3
 66.104 95.7780568474 128.72495153 27.397 221.489 27.397 c 3
 308.300111733 27.397 359.146306414 104.598579056 400.0715 156.303013672 c 1
 330.787 304.431 248.7728265 357.356642358 209.3935 374.119013672 c 1x9c
214.4105 609.550013672 m 1
 183.646882876 609.550013672 112.322 580.879 112.322 515.937 c 3
 112.322 462.42847097 177.906080603 436.730237837 220.9455 415.286013672 c 1
 275.1623458 446.300236462 301.6405 476.925125067 301.6405 503.734013672 c 3
 301.6405 569.914635639 255.116753574 609.550013672 214.4105 609.550013672 c 1
632.3595 469.776986328 m 1xdc
 596.66081034 469.776986328 567.071982845 462.090570367 560.092 442.666 c 0
 530.339641277 348.374065748 499.119811021 257.037723966 446.8075 173.654013672 c 1
 477.2658 96.465 511.543902484 27.644 553.075 27.644 c 3
 597.738358775 27.644 627.916456125 82.48725 644.816 117.184 c 1
 671.523 105.615 l 1
 636.53975455 36.3237259682 608.652924025 -7.862 534.77 -7.862 c 3
 477.301728702 -7.862 443.078948052 56.8005002899 415.54 124.218 c 1
 384.466011786 88.9264583334 328.029772759 -13.862 199 -13.862 c 3
 86.6780235694 -13.862 17 75.5303979237 17 172 c 3
 17 279.57358448 91.4533977586 351.591599604 176.3935 389.257013672 c 1
 124.360717867 412.970372568 81 453.100894522 81 506 c 3
 81 594.97615349 156 629.208928315 231 656.339 c 1
 312.114348114 627.416453002 345.5145 581.123169134 345.5145 506.872013672 c 3
 345.5145 483.591382751 309.491952509 436.094046382 252.1295 401.194013672 c 1
 302.056142857 380.529684275 391.8128495 291.611489465 429.908 202.644 c 1
 470.78532074 270.893435548 514.379549264 379.609081718 530.293 460.649 c 0
 534.118728825 478.264044444 498.245196372 488.707131138 479.3935 495.052986328 c 1
 488.247 523.569 l 1xbc
 525.26919326 510.200609 589.616758803 498.503565 633.69 499.339 c 1
 632.3595 469.776986328 l 1xdc
EndSplineSet
Substitution2: "pcap-1" ampersand.pcap
Substitution2: "smcp-1" ampersand.smcp
Position2: "cpsp-1" dx=0 dy=0 dh=50 dv=100
EndChar

StartChar: quotesingle
Encoding: 39 39 79
Width: 200
VWidth: 1159
Flags: W
HStem: 448.562 248.276<82.339 114.707>
VStem: 67.695 61.656<471.465 696.838> 82.339 32.368<448.562 645.516>
LayerCount: 2
Fore
SplineSet
67.695 696.838 m 1xc0
 129.351 696.838 l 1xc0
 128.810218 660.768782 116.101318 496.329682 114.707 448.562 c 1
 82.339 448.562 l 1xa0
 80.8801438 496.265353 68.3170562 660.85037 67.695 696.838 c 1xc0
EndSplineSet
Position2: "cpsp-1" dx=0 dy=0 dh=7 dv=14
EndChar

StartChar: bracketleft
Encoding: 91 91 85
Width: 246
VWidth: 1515
Flags: W
HStem: -227.138 33.414<72.506 219> 680.724 33.414<72.506 219>
VStem: 37 35.506<-193.724 680.724>
LayerCount: 2
Fore
SplineSet
72.506 680.724 m 1
 72.506 -193.724 l 1
 219 -198.431 l 1
 219 -227.138 l 1
 37 -227.138 l 1
 37 714.138 l 1
 219 714.138 l 1
 219 685.954 l 1
 72.506 680.724 l 1
EndSplineSet
Position2: "cpsp-1" dx=0 dy=0 dh=50 dv=100
Position2: "'case' vertical ajustments for all-caps-1" dx=0 dy=90 dh=0 dv=0
EndChar

StartChar: asterisk
Encoding: 42 42 87
Width: 362
VWidth: 1159
Flags: W
HStem: 408.214 21G<244.605 269.477>
VStem: 30.7022 305.009
LayerCount: 2
Fore
SplineSet
187.997702727 520.323487835 m 1
 162.937346641 472.831711393 159.436009707 449.032832143 127.572103318 394.505816072 c 1
 115.543103318 392.413816072 87.9937464328 415.644030939 85.3787464328 425.058030939 c 1
 119.69714557 477.288858512 136.655560142 487.426056317 168.47632534 532.380393497 c 1
 114.364766438 541.648798413 90.6637765733 538.996923354 30.7022037198 552.601709484 c 1
 24.4262037198 564.630709484 39.9546160347 597.650993387 46.2306160347 602.357993387 c 1
 105.90964873 585.66197417 123.030522473 571.450229174 173.100797226 555.09753317 c 1
 165.286122611 611.488742386 153.361618194 632.683360575 147.659632348 691.055387898 c 1
 155.504632348 699.423387898 192.016479762 697.766099823 200.384479762 691.490099823 c 1
 203.087994044 632.64484272 196.654610785 614.076650247 196.587867115 556.939120489 c 1
 248.990838935 582.773553943 262.576887957 598.05687481 319.206286928 623.098382849 c 1
 327.574286928 619.437382849 340.418518461 587.457782744 335.711518461 573.859782744 c 1
 280.968288857 552.925777543 259.531630578 552.920045632 205.542685267 535.275399716 c 1
 244.654061897 493.66850236 265.502146202 482.815397859 305.520749 438.798280375 c 1
 304.474749 428.338280375 275.49182906 408.214181387 263.46282906 408.214181387 c 1
 225.746736527 454.894160486 220.640366249 475.021478292 187.997702727 520.323487835 c 1
EndSplineSet
EndChar

StartChar: Acute
Encoding: 58018 58018 90
Width: 222
VWidth: 1159
Flags: W
HStem: 836.378 47.168<181.985 239.662>
VStem: 26.6842 230.032
LayerCount: 2
Fore
SplineSet
26.6841503906 778.14103418 m 1
 81.0852275391 814.639794922 175.262989258 866.191087891 236.228789062 883.545923828 c 1
 237.69206543 881.999396484 251.798798828 851.979089844 256.716224609 836.377958984 c 1
 198.800839844 826.165724609 120.941117187 794.772021484 40.3267275391 748.785797852 c 1
 26.6841503906 778.14103418 l 1
EndSplineSet
EndChar

StartChar: acutecomb
Encoding: 769 769 92
Width: 0
VWidth: 1159
Flags: W
HStem: 431.313 219.546
VStem: -233.366 159.413
LayerCount: 2
Fore
SplineSet
-233.365553 446.895875 m 1
 -206.408647688 507.126823455 -154.243174625 602.125737 -112.901412 650.859764 c 1
 -110.981042097 650.464652217 -85.3245797469 634.619277727 -73.9526993 625.00226 c 1
 -116.191715484 583.70613351 -164.626290984 514.11192512 -208.400143 431.313373 c 1
 -233.365553 446.895875 l 1
EndSplineSet
EndChar

StartChar: uni0302
Encoding: 770 770 93
Width: 0
VWidth: 1159
Flags: W
HStem: 423.077 184.609
VStem: -311.085 227.169
LayerCount: 2
Fore
SplineSet
-83.91525 435.8954 m 1
 -104.072906836 423.076813672 l 1
 -197.7385 555.015863 l 1
 -290.927093164 423.076813672 l 1
 -311.08475 435.8954 l 1
 -212.28135 607.6862 l 1
 -182.71865 607.6862 l 1
 -83.91525 435.8954 l 1
EndSplineSet
EndChar

StartChar: gravecomb
Encoding: 768 768 94
Width: 0
VWidth: 1159
Flags: W
HStem: 432.477 219.546
VStem: -327.714 159.412
LayerCount: 2
Fore
SplineSet
-168.302318 448.059027 m 1
 -193.267205 432.476525 l 1
 -237.041057016 515.27455412 -285.475632516 584.869755355 -327.714178 626.165412 c 1
 -316.492018332 635.714632935 -289.919634183 651.424785354 -288.766459 652.022393 c 1
 -247.424173375 603.288889 -195.259746312 508.2894913 -168.302318 448.059027 c 1
EndSplineSet
EndChar

StartChar: Grave
Encoding: 58019 58019 96
Width: 222
VWidth: 1159
Flags: W
HStem: 835.236 47.1669<-92.9544 -35.5935>
VStem: -110.325 230.032
LayerCount: 2
Fore
SplineSet
119.706392578 776.998065429 m 1
 106.063860351 747.642829101 l 1
 25.4504472656 793.628076172 -52.4107177734 825.023266601 -110.325125977 835.235500976 c 1
 -105.502698242 850.683919922 -90.5308125 881.155211914 -89.8372246094 882.402444336 c 1
 -28.871890625 865.04765332 65.3048496094 813.495849609 119.706392578 776.998065429 c 1
EndSplineSet
EndChar

StartChar: uni030A
Encoding: 778 778 98
Width: 0
VWidth: 1159
Flags: W
HStem: 427.127 27.8899<-232.17 -165.104> 546.983 27.8899<-230.896 -164.218>
VStem: -273.209 28.2137<467.854 532.968> -151.005 28.2137<469.032 533.985>
LayerCount: 2
Fore
SplineSet
-198 546.982920125 m 1
 -222.401574315 546.982920125 -244.995173961 527.09944015 -244.995173961 499.986291524 c 1
 -244.995173961 473.004222904 -223.305300149 455.017079875 -198 455.017079875 c 1
 -173.598425685 455.017079875 -151.004826039 474.90055985 -151.004826039 502.013708476 c 1
 -151.004826039 527.196611434 -172.694699851 546.982920125 -198 546.982920125 c 1
-198 574.872818086 m 1
 -157.503063103 574.872818086 -122.791076719 542.955865614 -122.791076719 502.336105195 c 1
 -122.791076719 458.946122214 -158.949300732 427.127181914 -198 427.127181914 c 1
 -238.496936897 427.127181914 -273.208923281 456.141752154 -273.208923281 499.663894805 c 1
 -273.208923281 543.052783957 -237.050699268 574.872818086 -198 574.872818086 c 1
EndSplineSet
EndChar

StartChar: uni031B
Encoding: 795 795 99
Width: 0
VWidth: 1159
Flags: W
HStem: 330 18<-84.5 -47.4434>
VStem: 31.0642 44.5608<400.591 474.018>
LayerCount: 2
Fore
SplineSet
31.0642001953 429.249732422 m 3
 31.0642001953 445.681719789 23.0023657882 455.147447724 4.82322363281 462.225623047 c 1
 9.90166549043 480.699187851 22.4592807558 492.322265625 38.40803125 492.322265625 c 3
 56.5858434211 492.322265625 75.625 475.058421875 75.625 444.775390625 c 3
 75.625 399.205078125 -15.2378927954 330.428 -84.5 330 c 1
 -85 348 l 1
 -33.2859747181 349.778426031 31.0642001953 395.183486211 31.0642001953 429.249732422 c 3
EndSplineSet
EndChar

StartChar: tildecomb
Encoding: 771 771 100
Width: 0
VWidth: 1159
Flags: W
HStem: 441.684 42.828<-207.217 -122.126> 480.667 42.5383<-290.807 -204.229>
VStem: -342.338 268.524
LayerCount: 2
Fore
SplineSet
-342.337798 438.762642 m 1x60
 -313.615943509 486.743223767 -281.9268196 523.204959008 -264.295622336 523.204959008 c 3x60
 -226.047996185 523.204959008 -179.963010425 484.512407476 -145.120248437 484.512407476 c 3
 -137.185137684 484.512407476 -113.729859716 511.392011452 -100.669392 543.614952 c 1
 -73.8134939 531.419897 l 1
 -93.3593748844 486.092185857 -125.511752861 441.684407476 -142.423089437 441.684407476 c 3xa0
 -180.78512226 441.684407476 -235.035338936 480.666701008 -267.118905516 480.666701008 c 3
 -276.477905668 480.666701008 -296.707 453.759233 -316.60573 425.153335 c 1
 -342.337798 438.762642 l 1x60
EndSplineSet
EndChar

StartChar: uni0306
Encoding: 774 774 105
Width: 0
VWidth: 1159
Flags: W
HStem: 433.412 40.066<-259.731 -136.09>
VStem: -329.045 25.8462<527.396 550.25> -91.7892 25.8233<528.55 550.233>
LayerCount: 2
Fore
SplineSet
-329.04458739 547.61022978 m 1
 -303.198401576 557.357301603 l 1
 -287.806365787 500.641748912 -242.507463473 473.478037 -197.953303 473.478037 c 0
 -153.443475934 473.478037 -107.890175907 500.547725426 -91.7892192631 557.411093129 c 1
 -65.965900329 547.563812533 l 1
 -84.7951429825 472.289561206 -141.064937724 433.412 -198.026 433.412 c 0
 -254.975551365 433.412 -310.904123122 472.318254756 -329.04458739 547.61022978 c 1
EndSplineSet
EndChar

StartChar: uni0313
Encoding: 787 787 111
Width: 0
VWidth: 1159
Flags: W
HStem: 452.463 181.324
VStem: -206.041 95.6643<564.677 605.662>
LayerCount: 2
Fore
SplineSet
-195.124506836 452.463193359 m 1
 -208.857263672 469.235844727 l 1
 -181.317224609 492.041346679 -158.348329102 526.894230468 -166.327279297 543.830367187 c 0
 -173.268438476 558.172865234 -187.42922168 567.989451172 -201.916149414 575.755552734 c 0
 -205.193624023 577.246637696 -206.040945312 581.821881836 -206.040945312 585.973720703 c 3
 -206.040945312 590.005333008 -205.237876953 593.702045899 -202.302780274 594.957891602 c 0
 -187.224260742 602.709086914 -175.216436523 612.406908203 -168.445837891 628.428668945 c 0
 -167.254741211 631.706188476 -163.339073242 633.786951172 -159.423405273 633.786951172 c 3
 -155.336360351 633.786951172 -151.709035156 631.749043945 -150.401483398 628.815299805 c 0
 -141.603589843 612.577864258 -130.222810547 601.751826172 -114.924423828 594.957891602 c 0
 -111.647415039 593.724405274 -110.376688477 590.060765625 -110.376688477 585.973720703 c 1
 -110.376688477 579.954408203 -131.226731445 493.908231445 -195.124506836 452.463193359 c 1
EndSplineSet
EndChar

StartChar: uni0315
Encoding: 789 789 113
Width: 0
VWidth: 1159
Flags: W
HStem: 450.494 205.797
VStem: -54.98 43.351<568.043 645.597>
LayerCount: 2
Fore
SplineSet
-54.98 656.291055899 m 1
 -11.629 643.538055899 l 1
 -24.0930993203 578.543482333 -51.7558961482 503.716783835 -106 450.494 c 1
 -126 464.494 l 1
 -84.2235168 521.576089891 -64.1438848 587.244473993 -54.98 656.291055899 c 1
EndSplineSet
EndChar

StartChar: Circumflex
Encoding: 58020 58020 159
Width: 281
VWidth: 1159
Flags: HMW
LayerCount: 2
Fore
SplineSet
279.504944101 761.361156516 m 1
 254.958847211 747.855223594 l 1
 235.896793679 763.237558403 148.960820695 812.773854664 140.5 812.773854664 c 1
 132.6295 812.773854664 46.2125570116 763.933718 26.0413096891 747.855223594 c 1
 1.49511865844 761.361156516 l 1
 121.845858391 859.400186328 l 1
 159.154141609 859.400186328 l 1
 279.504944101 761.361156516 l 1
EndSplineSet
EndChar

StartChar: Tilde
Encoding: 58022 58022 161
Width: 329
VWidth: 1159
Flags: W
HStem: 761.684 42.828<167.222 261.236> 800.667 42.5384<74.8669 170.524>
VStem: 17.9329 296.681
LayerCount: 2
Fore
SplineSet
17.9329130859 758.762388672 m 1x60
 49.6660849609 806.743603516 84.6786728516 843.204914062 104.158567383 843.204914062 c 3x60
 146.416582031 843.204914062 197.334178711 804.512268554 235.830447266 804.512268554 c 3
 244.597368164 804.512268554 270.512646484 831.392429687 284.942576172 863.615066406 c 1
 314.614052734 851.419929688 l 1
 293.019069336 806.09218457 257.495164063 761.684268554 238.810607422 761.684268554 c 3xa0
 196.425331055 761.684268554 136.487022461 800.666504883 101.039172852 800.666504883 c 3
 90.6987470703 800.666504883 68.3484511719 773.759486328 46.3631503906 745.153089844 c 1
 17.9329130859 758.762388672 l 1x60
EndSplineSet
EndChar

StartChar: Breve
Encoding: 58023 58023 162
Width: 321
VWidth: 1159
Flags: W
HStem: 747.448 39.0004<84.3115 237.138>
VStem: 16.7646 287.47
LayerCount: 2
Fore
SplineSet
16.7646 838.464 m 1
 43.3695223594 850.412929195 l 1
 60.0893144219 807.814494909 110.004090785 786.448154568 160.081245996 786.448154568 c 3
 210.041971124 786.448154568 260.164358986 807.725277301 277.630216141 850.412929195 c 1
 304.235 838.464 l 1
 283.3205 777.7865 221.529825 747.44775 159.9293125 747.44775 c 3
 98.3288 747.44775 36.91845 777.7865 16.7646 838.464 c 1
EndSplineSet
EndChar

StartChar: Ring
Encoding: 58026 58026 165
Width: 281
VWidth: 1159
Flags: W
HStem: 743.827 31.5167<103.529 174.222> 868.246 31.5166<104.777 175.099>
VStem: 60.2278 31.9099<786.891 855.65> 186.862 31.91<787.939 856.566>
LayerCount: 2
Fore
SplineSet
139.5 868.246 m 1
 114.908 868.246 92.1377 848.208 92.1377 820.884 c 1
 92.1377 793.56 113.998 775.344 139.5 775.344 c 1
 164.092 775.344 186.862 795.382 186.862 822.706 c 1
 186.862 848.208 165.002 868.246 139.5 868.246 c 1
139.5 899.762600719 m 1
 182.185485696 899.762600719 218.771997336 866.030204994 218.771997336 823.099322086 c 1
 218.771997336 777.364349361 180.660283888 743.82732475 139.5 743.82732475 c 1
 96.8146695423 743.82732475 60.2278457641 774.492636203 60.2278457641 820.490603383 c 1
 60.2278457641 866.223742932 98.339594103 899.762600719 139.5 899.762600719 c 1
EndSplineSet
EndChar

StartChar: Uni030B
Encoding: 58027 58027 166
Width: 300
VWidth: 1159
Flags: W
HStem: 730.632 177.075
VStem: 22.6465 253.026
LayerCount: 2
Fore
SplineSet
22.6465 752.7259 m 1
 49.3705 815.3119 67.4678926174 857.586289157 103.109 907.707 c 1
 103.109 907.707 126.744330642 895.676407273 141.6295 885.9729 c 1
 102.281058824 841.306361492 87.2911764706 816.942795033 46.069 735.730906836 c 1
 22.6465 752.7259 l 1
121.938833 753.826316 m 1
 171.703843 812.921339 197.132144953 841.82837402 244.846406 878.07096 c 1
 244.846406 878.07096 264.130060867 860.071247187 275.672434 846.774232 c 1
 224.406518798 815.794475841 202.829571064 796.795748945 139.539189 730.631856 c 1
 121.938833 753.826316 l 1
EndSplineSet
EndChar

StartChar: eogonek
Encoding: 281 281 253
Width: 409
VWidth: 1159
UnlinkRmOvrlpSave: 1
Flags: W
HStem: -304.612 42.8949<242.66 330.81>
VStem: 180.895 47.6443<-249.037 -115.493>
LayerCount: 2
Back
SplineSet
366.630859375 52.54296875 m 5xd0
 276.377929688 -47.1502175719 262.771484375 -94.5674013864 262.771484375 -186 c 7
 262.771484375 -236.143554688 288.107421875 -265.872070312 320.166015625 -265.872070312 c 7
 339.918945312 -265.872070312 363.635742188 -255.18359375 387.97265625 -231.599609375 c 13
 387.97265625 -231.599609375 399.081054688 -241.926757812 401.771484375 -250 c 5
 374.767578125 -302.788085938 329.271484375 -326 287.771484375 -326 c 7
 237.798828125 -326 193.561523438 -284.413085938 193.561523438 -214.834960938 c 7
 193.561523438 -150.617750838 236.666992188 -26.3930451996 359.931640625 73.76171875 c 5
 366.630859375 52.54296875 l 5xd0
EndSplineSet
Fore
SplineSet
359.645079101 49.5051220703 m 1
 257.569116468 -44.372120975 228.538942383 -118.554486953 228.538942383 -194.090479492 c 3
 228.538942383 -236.955597656 253.293536133 -261.717295899 282.983433594 -261.717295899 c 3
 304.082664062 -261.717295899 328.317892578 -252.456995117 346.445160156 -230.531365234 c 1
 349.758540039 -232.608923828 358.455897461 -240.737400391 361.516609375 -249.566203125 c 1
 339.178382812 -287.517072266 301.118586914 -304.612203125 266.04109375 -304.612203125 c 3
 220.839414062 -304.612203125 180.894643554 -268.418764649 180.894643554 -209.171164062 c 3
 180.894643554 -139.324275995 228.727363053 -25.1168303073 352.697623047 71.1105029297 c 1
 359.645079101 49.5051220703 l 1
EndSplineSet
Refer: 4 101 N 1 0 0 1 0 0 3
Substitution2: "smcp-1" eogonek.smcp
Substitution2: "case-1" Eogonek
Substitution2: "pcap-1" eogonek.pcap
EndChar

StartChar: uni0328
Encoding: 808 808 254
Width: 0
VWidth: 1159
Flags: W
HStem: -300 42.8949<-215.69 -127.54>
VStem: -277.455 47.6443<-244.425 -127.113>
LayerCount: 2
Back
SplineSet
-94.3691 15.543 m 1
 -195.162388974 -70.3584937184 -226.228515625 -111.215514218 -226.228515625 -190 c 3
 -226.228515625 -221.309227792 -201.775586907 -239.872070312 -170.833984375 -239.872070312 c 3
 -154.801506148 -239.872070312 -135.55173736 -232.614365408 -115.798828125 -216.599609375 c 1
 -115.798828125 -216.599609375 -104.690305483 -226.926828613 -102 -235 c 1
 -125.978710258 -280.147631579 -166.377945685 -300 -203.228515625 -300 c 3
 -253.201025342 -300 -297.438476562 -268.513714542 -297.438476562 -215.834960938 c 3
 -297.438476562 -159.628200176 -233.56061762 -50.8996824072 -101.068 36.7617 c 1
 -94.3691 15.543 l 1
EndSplineSet
Fore
SplineSet
-94.4115090266 15.1633415391 m 1
 -199.555665675 -63.6278434172 -229.81092032 -126.187064449 -229.81092032 -189.478276367 c 3
 -229.81092032 -232.343236527 -205.056332486 -257.105056 -175.366183953 -257.105056 c 3
 -154.267363423 -257.105056 -130.031827176 -247.845082168 -111.904449219 -225.919162109 c 1
 -108.591401705 -227.996785827 -99.89452041 -236.125023422 -96.833 -244.954 c 1
 -119.171509791 -282.904638621 -157.231506397 -300 -192.308768953 -300 c 3
 -237.510771257 -300 -277.45522732 -263.806576312 -277.45522732 -204.558981367 c 3
 -277.45522732 -144.420134223 -228.341909443 -46.0846839992 -101.359309117 36.7686962484 c 1
 -94.4115090266 15.1633415391 l 1
EndSplineSet
EndChar

StartChar: Aogonek
Encoding: 260 260 255
Width: 730
VWidth: 0
Flags: W
HStem: -346.843 49.5111<494.335 582.366> -8.38139 32.0122<20.7296 71.6795 651.976 697.138> 266.465 33.3763<236.059 420.505>
VStem: 361.69 32.4105<652.878 711.523> 422.278 49.082<-273.986 -123.939>
LayerCount: 2
Fore
SplineSet
236.0588125 299.841268555 m 1
 299.657625618 296.996984164 422.265880764 297.115942734 481.097583984 296.889364258 c 1
 437.017471855 413.17844641 407.947070862 485.931445862 362.413878906 604.551400391 c 1
 316.165346492 487.885184138 280.364963295 406.759458624 236.0588125 299.841268555 c 1
543.040990734 6.77384033 m 0
 566.881107604 23.0742693794 580.19875 31.305 570.98322168 63.4801474609 c 0
 543.856349312 137.339826888 524.228976855 183.035241488 494.041802734 260.851047851 c 1
 426.356246334 266.532870975 318.934122189 269.900702038 222.891 266.465 c 1
 189.863451406 189.702672844 167.903661925 142.357846529 138.215914062 71.0116494141 c 0
 122.902771925 32.8741026245 139.566576959 25.4495930094 216.2335 24.1935507812 c 1
 215.1875 -10.4131826172 l 1
 165.109365903 -1.42658571149 70.7317020031 0.263662637378 21.276 -8.38138964844 c 1
 21.276 -8.38138964844 19.184 16.3088398438 18.661 23.6308398437 c 1
 68.3686636978 34.1250115205 80.8509973145 35.7252588611 94.8058720703 65.9140595703 c 0
 189.762709573 278.931528144 271.40883829 469.89886955 341.356935547 641.574938476 c 0
 356.86824309 679.902531536 355.366376945 680.245308593 361.690461914 711.523 c 1
 394.10096875 711.523 l 1
 401.186735314 684.370374671 398.207660736 682.878163178 412.530919922 643.465936524 c 0
 493.529822731 411.811045357 543.758170319 270.81537948 635.617094726 57.6872201234 c 0
 643.604919978 39.0283776146 662.448532662 27.1895715644 698.184 23.0776777344 c 1
 698.184 23.0776777344 697.661 -1.02340527344 697.138 -7.29940527344 c 1
 648.996352993 15.4340057476 599.932169357 17.785388927 562.059853516 -15.431 c 0
 490.387978744 -68.2059710426 471.360249023 -159.571818505 471.360249023 -215.715739258 c 3
 471.360249023 -261.114989988 505.130431601 -297.332154297 537.465833984 -297.332154297 c 3
 561.141188885 -297.332154297 594.845490774 -281.281922716 619.390832031 -255.0569375 c 1
 619.390832031 -255.0569375 634.904782724 -266.532606366 636.311632812 -270.754127929 c 1
 609.211125731 -314.924937105 559.162738585 -346.84321582 519.085244141 -346.84321582 c 3
 469.616519064 -346.84321582 422.278210937 -298.183045748 422.278210937 -235.843578125 c 3
 422.278210937 -144.583082868 468.97114651 -41.7632396892 543.040990734 6.77384033 c 0
EndSplineSet
Position2: "cpsp-1" dx=0 dy=0 dh=50 dv=100
Substitution2: "c2pc-1" aogonek.pcap
Substitution2: "c2sc-1" aogonek.smcp
EndChar

StartChar: Uni0328
Encoding: 58029 58029 257
Width: 0
VWidth: 1159
Flags: W
HStem: -338.23 73.7197<-184.546 -117.498>
VStem: -275.584 71.875<-244.983 -118.496>
LayerCount: 2
Fore
SplineSet
-92.1719 12.3926 m 1
 -164.514989866 -37.5177021671 -203.708984375 -122.700132364 -203.708984375 -187.03125 c 3
 -203.708984375 -228.469229743 -175.522824414 -264.510742188 -144.514648438 -264.510742188 c 3
 -123.539764965 -264.510742188 -98.3555048772 -255.777742187 -72.5146484375 -236.510742188 c 9
 -72.5146484375 -236.510742188 -61.4052257941 -246.838961447 -58.7158203125 -254.911132812 c 1
 -85.7705506897 -302.647325281 -138.205109564 -338.23046875 -179.78515625 -338.23046875 c 3
 -228.965068015 -338.23046875 -275.583984375 -289.420252063 -275.583984375 -227.85546875 c 3
 -275.583984375 -144.145292738 -241.514987387 -38.8975355005 -98.8711 45.1113 c 1
 -92.1719 12.3926 l 1
EndSplineSet
EndChar

StartChar: Eogonek
Encoding: 280 280 258
Width: 672
VWidth: 0
UnlinkRmOvrlpSave: 1
Flags: W
HStem: -347.889 73.7197<484.634 553.852> -9 35<56 103.477> 3.0702 37.3021<232.525 492.796> 333 36<205 473.393> 646.077 36.8925<248.298 487.505> 657 31<48 108.489>
VStem: 122 93<372.549 638.287> 126.788 78.2122<90.4625 333 369 603.172> 395.766 71.875<-257.592 -149.807> 497 36<247.75 305.348 393.846 441.094> 538 30<537 618.59>
LayerCount: 2
Fore
SplineSet
48 688 m 1xd6e0
 120.521055818 684.355725838 206.588460485 682.969176485 287.955928091 682.969176485 c 3
 429.86328558 682.969176485 557.47511282 687.186564497 574 691 c 1
 585.145145837 681.247997393 589.133414459 675.741599913 589.133414459 667.087387512 c 3
 589.133414459 650.893580795 575.168856119 623.677987617 568 537 c 1
 538 534 l 1
 527 570 546 617 510 628 c 0
 468.488636507 639.860389569 402.664140046 646.076658986 339.417525988 646.076658986 c 3
 306.677490841 646.076658986 274.628246937 644.410894684 247 641 c 0
 229 639 216 625 215 607 c 0x9ae0
 211 525.313559322 206 444.635593221 205 369 c 1
 269 371 429 371 443 372 c 0
 480 377 485 403 501 447 c 1
 535 440 l 1
 526.800908316 409.132831309 523.486685813 378.498275435 523.486685813 347.871954284 c 3
 523.486685813 314.997648821 527.305294619 282.132831309 533 249 c 1
 497 240 l 1
 477 311 484 324 443 328 c 0
 399 333 298 332 205 333 c 1
 204 235.613545816 208 147.262948207 220 81 c 0
 224 64 233 50 250 49 c 0
 295.831179232 44.5647245905 336.319436302 40.3723092792 374.696225476 40.3723092792 c 3
 414.193090286 40.3723092792 451.453436792 44.8130178498 490 58 c 0
 550.414440108 78.6680979317 560.916666667 101 601 177 c 1
 629 170 l 1
 601.909278218 96.0751847998 563.005363884 18.4683882549 538.489257812 -19.9775390625 c 0
 508.313510966 -67.2988618945 467.640625 -148.391015834 467.640625 -206.689453125 c 0
 467.640625 -242.779181534 495.826784961 -274.168945312 526.834960938 -274.168945312 c 0
 547.809960937 -274.168945312 572.993960937 -265.436945313 598.834960938 -246.168945312 c 1
 598.834960938 -246.168945312 609.943822568 -256.497164572 612.633789062 -264.569335938 c 1
 585.578932221 -312.305955472 533.145209671 -347.888671875 491.565429688 -347.888671875 c 0
 442.385016588 -347.888671875 395.765625 -303.499671875 395.765625 -247.513671875 c 0
 395.765625 -172.157942368 443.587456716 -80.3722695124 506.53125 0.1865234375 c 1
 426.116814261 0.92057786207 344.873636713 3.07020290016 269.953021447 3.07020290016 c 3xb9e0
 188.876938008 3.07020290016 115.205017511 0.552841530585 58 -9 c 1
 48 26 l 1
 101 36 124 49 124 77 c 1
 125.797958971 111.804426856 126.787753827 207.154066657 126.787753827 309.259280672 c 3xd1e0
 126.787753827 434.312117879 125.303061543 569.498316407 122 616 c 0
 121 643 116 643 43 657 c 1
 48 688 l 1xd6e0
EndSplineSet
Position2: "cpsp-1" dx=0 dy=0 dh=50 dv=100
Substitution2: "c2pc-1" eogonek.pcap
Substitution2: "c2sc-1" eogonek.smcp
EndChar

StartChar: Iogonek
Encoding: 302 302 259
Width: 341
VWidth: 0
UnlinkRmOvrlpSave: 1
Flags: W
HStem: -346.889 73.7197<164.804 231.852> -10 32.845<16.1377 136.824 213.54 328> 657.586 34.414<21.4907 132.056 217.626 327.232>
VStem: 73.7656 71.875<-253.641 -109.865> 146.741 58.518<32.6954 279.677 392.847 644.761>
LayerCount: 2
Fore
SplineSet
207.177734375 3.734375 m 1
 167.264648438 -46.17578125 145.640625 -131.358398438 145.640625 -195.689453125 c 3
 145.640625 -237.126953125 173.827148438 -273.168945312 204.834960938 -273.168945312 c 3
 225.810546875 -273.168945312 250.994140625 -264.435546875 276.834960938 -245.168945312 c 9
 276.834960938 -245.168945312 287.944335938 -255.497070312 290.633789062 -263.569335938 c 1
 263.579101562 -311.305664062 211.14453125 -346.888671875 169.564453125 -346.888671875 c 3
 120.384765625 -346.888671875 73.765625 -298.078125 73.765625 -236.513671875 c 3
 73.765625 -152.803710938 98.1953125 -47.5556640625 200.478515625 36.453125 c 1
 207.177734375 3.734375 l 1
EndSplineSet
Refer: 34 73 N 1 0 0 1 0 0 3
Position2: "cpsp-1" dx=0 dy=0 dh=50 dv=100
Substitution2: "c2pc-1" iogonek.pcap
Substitution2: "c2sc-1" iogonek.smcp
EndChar

StartChar: iogonek
Encoding: 303 303 260
Width: 263
VWidth: 0
UnlinkRmOvrlpSave: 1
Flags: W
HStem: -326 60.1279<121.017 198.674> 581.106 83.7883<109.633 185.723>
VStem: 36.5625 69.209<-252.6 -120.517> 104.962 85.4315<585.704 660.315>
LayerCount: 2
Fore
SplineSet
168 12.9248046875 m 1xe0
 113.924804688 -74.3896484375 105.771484375 -115.919921875 105.771484375 -196 c 3
 105.771484375 -239.865234375 131.106445312 -265.872070312 163.166015625 -265.872070312 c 3
 182.918945312 -265.872070312 206.635742188 -255.18359375 230.97265625 -231.599609375 c 1
 230.97265625 -231.599609375 242.081054688 -241.926757812 244.771484375 -250 c 1
 217.768554688 -302.788085938 172.271484375 -326 130.771484375 -326 c 3
 80.798828125 -326 36.5625 -288.154296875 36.5625 -224.834960938 c 3
 36.5625 -167.208984375 66.80859375 -55.732421875 153.30078125 34.1435546875 c 1
 168 12.9248046875 l 1xe0
EndSplineSet
Refer: 8 105 N 1 0 0 1 0 0 3
Substitution2: "smcp-1" iogonek.smcp
Substitution2: "case-1" Iogonek
Substitution2: "pcap-1" iogonek.pcap
EndChar

StartChar: uogonek
Encoding: 371 371 262
Width: 506
VWidth: 0
UnlinkRmOvrlpSave: 1
Flags: W
HStem: -324.658 60.1279<313.017 390.674> -18.7812 20G<319.052 378.615>
VStem: 228.562 69.21<-251.259 -142.76>
LayerCount: 2
Fore
SplineSet
379 -20 m 1
 308.413085938 -92.994140625 297.771484375 -127.711914062 297.771484375 -194.658203125 c 3
 297.771484375 -238.5234375 323.107421875 -264.530273438 355.166015625 -264.530273438 c 3
 374.918945312 -264.530273438 398.635742188 -253.841796875 422.97265625 -230.2578125 c 1
 422.97265625 -230.2578125 434.081054688 -240.584960938 436.771484375 -248.658203125 c 1
 409.767578125 -301.446289062 364.271484375 -324.658203125 322.771484375 -324.658203125 c 3
 272.798828125 -324.658203125 228.561523438 -286.8125 228.561523438 -223.493164062 c 3
 228.561523438 -173.491210938 265.803710938 -76.765625 372.30078125 1.21875 c 1
 379 -20 l 1
EndSplineSet
Refer: 20 117 N 1 0 0 1 0 0 3
Substitution2: "smcp-1" uogonek.smcp
Substitution2: "case-1" Uogonek
Substitution2: "pcap-1" uogonek.pcap
EndChar

StartChar: uni0327
Encoding: 807 807 268
Width: 0
VWidth: 1159
UnlinkRmOvrlpSave: 1
Flags: W
VStem: -176.874 44.302<-161.175 -89.3829>
LayerCount: 2
Fore
SplineSet
-289.175 -200.003 m 1
 -284.186821125 -177.33477268 l 1
 -229.25598078 -195.304949686 -176.874 -159.503152766 -176.874 -118.799 c 1
 -176.874 -101.677243729 -191.906631551 -75.2348341609 -233.773877024 -94.6519029813 c 1
 -241.123 -72.4629 l 1
 -238.075 -70.4492 -234.739077876 -68.8657739702 -231.521 -67.0766 c 0
 -200.700965883 -47.1057003695 -206.539149273 -44.5771004339 -187.10101118 5.43261865844 c 1
 -155.44001118 13.4326081984 l 1
 -155.44001118 13.4326081984 -173.445000973 -43.8772905531 -179.842126703 -54.3137052172 c 1
 -155.327944454 -57.6240187151 -132.572 -77.3056151847 -132.572 -111.429 c 1
 -132.572 -180.25 -220.06 -229.425 -289.175 -200.003 c 1
EndSplineSet
EndChar

StartChar: cedillafloating
Encoding: 58084 58084 269
Width: 0
VWidth: 1159
Flags: W
VStem: -195 63.126<-165.105 -94.3474>
LayerCount: 2
Fore
SplineSet
-289.175 -200.003 m 1
 -285.141 -177.812 l 1
 -239 -188 -195 -161.724 -195 -125 c 3
 -195 -109.445 -206 -85 -236.636 -95.1289 c 1
 -241.123 -72.4629 l 1
 -199.113 -38.5203 -131.874 -44.0724 -131.874 -109.349 c 3
 -131.874 -179.786 -219.751 -230.116 -289.175 -200.003 c 1
EndSplineSet
EndChar

StartChar: Uni0327
Encoding: 58030 58030 281
Width: 0
VWidth: 1159
Flags: W
VStem: -194.928 70.897<-182.621 -103.12>
LayerCount: 2
Fore
SplineSet
-302.112 -226.844 m 1
 -297.393 -200.881 l 1
 -243.408 -212.801 -194.928 -182.057 -194.928 -139.091 c 0
 -194.928 -120.892 -206.823 -92.29 -240.667 -104.142 c 1
 -245.892 -77.6221 l 1
 -241.051 -73.5835 -235.91 -70.2296 -230.581 -67.5294 c 0
 -201.19 -48.4085 -207.089 -43.3329 -187.571 4.44336 c 1
 -142.571 12.4434 l 1
 -142.571 12.4434 -152.525 -33.2849 -173.391 -61.6674 c 1
 -145.899 -69.2159 -124.031 -91.6921 -124.031 -124.709 c 0
 -124.031 -204.066 -223.518 -260.771 -302.112 -226.844 c 1
EndSplineSet
EndChar

StartChar: Cedillafloating
Encoding: 58085 58085 282
Width: 0
VWidth: 1159
Flags: W
VStem: -194.928 70.897<-182.621 -103.74>
LayerCount: 2
Fore
SplineSet
-302.112 -226.844 m 1
 -297.393 -200.881 l 1
 -243.408 -212.801 -194.928 -182.057 -194.928 -139.091 c 3
 -194.928 -120.892 -206.798 -92.29 -240.642 -104.142 c 1
 -245.892 -77.6221 l 1
 -199.032 -34.292 -124.031 -58.5156 -124.031 -124.709 c 3
 -124.031 -204.066 -223.518 -260.771 -302.112 -226.844 c 1
EndSplineSet
EndChar

StartChar: Uni030F
Encoding: 58034 58034 295
Width: 300
VWidth: 1159
Flags: W
HStem: 730.336 177.371
VStem: -102.185 253.538
LayerCount: 2
Fore
SplineSet
151.3535 752.7259 m 1
 127.931 735.730906836 l 1
 86.7088235294 816.942795033 71.7189411765 841.306361492 32.3705 885.9729 c 1
 47.2554601578 895.676407273 70.891 907.707 70.891 907.707 c 1
 106.532107383 857.586289157 124.6295 815.3119 151.3535 752.7259 c 1
51.5480517 753.531344 m 1
 33.9473296 730.336361 l 1
 -29.3429478645 796.500776945 -50.9195817984 815.498980841 -102.184974 846.478737 c 1
 -90.6439606673 859.776275187 -71.3598351 877.775465 -71.3598351 877.775465 c 1
 -23.6452079527 841.53340202 1.7829371 812.626367 51.5480517 753.531344 c 1
EndSplineSet
EndChar

StartChar: uni01EA
Encoding: 490 490 308
Width: 845
VWidth: 0
UnlinkRmOvrlpSave: 1
Flags: W
HStem: -346.889 73.7197<406.804 473.852> -9.862 37.598<335.698 542.554> 677.034 37.075<312.529 513.15>
VStem: 43 60.087<255.44 459.815> 315.766 71.875<-253.641 -127.154> 737.729 64.271<224.197 453.08>
LayerCount: 2
Fore
SplineSet
499.177734375 3.734375 m 1
 426.834960938 -46.17578125 387.640625 -131.358398438 387.640625 -195.689453125 c 3
 387.640625 -237.126953125 415.827148438 -273.168945312 446.834960938 -273.168945312 c 3
 467.810546875 -273.168945312 492.994140625 -264.435546875 518.834960938 -245.168945312 c 9
 518.834960938 -245.168945312 529.944335938 -255.497070312 532.633789062 -263.569335938 c 1
 505.579101562 -311.305664062 453.14453125 -346.888671875 411.564453125 -346.888671875 c 3
 362.384765625 -346.888671875 315.765625 -298.078125 315.765625 -236.513671875 c 3
 315.765625 -152.803710938 349.834960938 -47.5556640625 492.478515625 36.453125 c 1
 499.177734375 3.734375 l 1
EndSplineSet
Refer: 40 79 N 1 0 0 1 0 0 3
Position2: "cpsp-1" dx=0 dy=0 dh=50 dv=100
EndChar

StartChar: uni01EB
Encoding: 491 491 309
Width: 505
VWidth: 0
UnlinkRmOvrlpSave: 1
Flags: W
HStem: -326 60.1279<272.366 350.024> -11 31.845<192.102 329.798> 385.448 34.983<178.446 315.432>
VStem: 32 51.196<122.816 294.278> 187.912 69.209<-252.6 -139.048> 420.758 52.242<106.35 282.919>
LayerCount: 2
Fore
SplineSet
360.98046875 13.54296875 m 1
 270.727539062 -74.0302734375 257.12109375 -115.682617188 257.12109375 -196 c 3
 257.12109375 -239.865234375 282.45703125 -265.872070312 314.515625 -265.872070312 c 3
 334.268554688 -265.872070312 357.986328125 -255.18359375 382.322265625 -231.599609375 c 9
 382.322265625 -231.599609375 393.431640625 -241.926757812 396.12109375 -250 c 1
 369.1171875 -302.788085938 323.62109375 -326 282.12109375 -326 c 3
 232.149414062 -326 187.912109375 -288.154296875 187.912109375 -224.834960938 c 3
 187.912109375 -172.674804688 223.05859375 -76.5009765625 320.63671875 8 c 9
 360.98046875 13.54296875 l 1
EndSplineSet
Refer: 14 111 N 1 0 0 1 0 0 3
Substitution2: "case-1" uni01EA
EndChar

StartChar: thorn
Encoding: 254 254 317
Width: 515
VWidth: 1159
Flags: W
HStem: -348 32<8.34375 55.6963> -342 34<151.753 229> -10 46<184.803 329.513> 369 43<198.188 323.819> 654 29<16 45.5305> 739 20G<129 175>
VStem: 67 82<-302.037 -18.4171> 80 65<-197.411 7 69.4004 345.78 368 599.495> 406 69<130.435 275.055>
LayerCount: 2
Fore
SplineSet
145 332 m 9x3d80
 144 241 143 189 143 98 c 3
 143 92 147 85 154 79 c 0
 185 52 227 36 268 36 c 3
 345 36 406 96 406 180 c 3
 406 270 352 369 251 369 c 3
 207 369 155 342 145 332 c 9x3d80
76 31 m 24
 79.1289 217.79 80 367 80 510 c 3
 80 570 80 607 76 627 c 0
 71 654 64 656 46 656 c 3
 36 656 25 654 16 654 c 1
 11 683 l 1
 48 690 104 718 154 759 c 1
 175 743 l 1
 165 717 157 687 156 667 c 0
 151 599 145 484 145 368 c 1xbd80
 178 382 234 412 294 412 c 3
 399 412 475 315 475 223 c 3
 475 94 363.004 -10 225 -10 c 3
 198 -10 170 -2 144 7 c 1
 144 -75 144 -247 149 -284 c 0
 151 -299 170 -303 181 -304 c 0
 197 -305 216 -307 230 -308 c 1
 229 -342 l 1x7e80
 190 -341 159 -339 117 -339 c 3
 87 -339 39 -344 9 -348 c 1
 6 -316 l 1
 17 -315 25 -313 36 -311 c 0
 59 -305 65 -294 67 -266 c 0xbe80
 72 -214 74.0589 -84.8672 76 31 c 24
EndSplineSet
Substitution2: "pcap-1" thorn.pcap
Substitution2: "case-1" Thorn
Substitution2: "smcp-1" thorn.smcp
EndChar

StartChar: Thorn
Encoding: 222 222 318
Width: 594
VWidth: 1159
Flags: W
HStem: -9 35<33 79.7574> 178 45<189.142 391.092> 519 42<188.8 373.894> 661 31<15.871 81.5947>
VStem: 103 86.1416<54.7783 182.945 226.958 514.181 554.895 640.551> 465 87<299.251 431.707>
LayerCount: 2
Fore
SplineSet
300 652.244140625 m 1
 269.541015625 652.76953125 239.069335938 648.46484375 211 641 c 0
 193.498046875 636.344726562 190 622 189 604 c 0
 188.240234375 587.23828125 187.66015625 570.91015625 187.219726562 554.89453125 c 1
 223.961914062 557.525390625 259.918945312 561 309 561 c 3
 442 561 552 478 552 375 c 3
 552 258.262695312 417.193359375 178 292 178 c 3
 251.719726562 178 228.8125 181.861328125 189.141601562 182.9453125 c 1
 190.319335938 145.3203125 192.446289062 106.4140625 198 75 c 0
 201.80078125 58.8486328125 209.211914062 38.1826171875 306 36.1611328125 c 1
 302 -10.6103515625 l 1
 253.839897611 0.765337346976 217.431629665 6.17477902914 177.51514646 6.17477902914 c 3
 138.247715333 6.17477902914 95.5852303172 0.939824883774 35 -9 c 1
 25 26 l 1
 78 36 103 49 103 77 c 1
 104.6 108.20234375 105.4 187.70734375 105.4 277.3266875 c 3
 105.4 411.755703125 103.6 568.941992187 100 620 c 0
 99 647 85 647 12 661 c 1
 17 692 l 1
 64.3137479468 686.877828443 116.634803726 684.064503692 169.426581172 684.064503692 c 3
 212.805530712 684.064503692 256.502306442 685.964030206 298 690.04296875 c 1
 300 652.244140625 l 1
189.073242188 226.958007812 m 1
 228.5625 225.396484375 249.3671875 223 290 223 c 3
 436 223 465 311 465 364 c 3
 465 424 404 519 288 519 c 3
 266.518554688 519 216.749023438 516.599609375 187.26171875 510.466796875 c 1
 185.9765625 417.948242188 187.340820312 313.534179688 189.073242188 226.958007812 c 1
EndSplineSet
Position2: "cpsp-1" dx=0 dy=0 dh=50 dv=100
Substitution2: "c2pc-1" thorn.pcap
Substitution2: "c2sc-1" thorn.smcp
EndChar

StartChar: AE
Encoding: 198 198 319
Width: 1067
VWidth: 1159
Flags: W
HStem: -7.569 29.753<449.77 523.698> -1.25645 30.3297<21.3674 92.0421 599.983 927.551> 248.243 35.3633<289.72 535.832> 334.954 30.276<588.443 879.376> 654.448 33.1905<594.503 921.133> 663.862 28.138<396 466.25>
VStem: 535.832 52.6111<118.854 248.243 283.606 334.954 365.23 650.681> 897.724 30.276<256.544 311.847> 935.862 27.138<545.201 633.765> 994.908 25.615<132.331 161.766>
LayerCount: 2
Fore
SplineSet
396 692 m 1xb7c0
 429.091262482 689.140261267 557.614074393 687.638466434 657.39384562 687.638466434 c 1
 793.492549445 687.638466434 960.712943361 690.133602314 969 692.046 c 1
 979.188594704 683.073862306 982.863766973 677.316160012 982.863766973 668.413119684 c 1
 982.863766973 651.869601934 970.151868746 624.460460943 963 545.201 c 1
 935.862 543.632 l 1
 930.8245 608.395006836 963.65749361 642.850266739 905 647.649 c 0
 858.618430866 653.260893252 789.242902254 656.947042845 721.533108664 656.947042845 c 3
 691.100987517 656.947042845 661.049339657 656.23189792 634.259 654.448 c 0
 595.420994141 653.402 594.196 648.622913086 593.673 626.172 c 0
 591.581 534.094302718 588.966 449.975621905 588.443 365.23 c 1
 662.085373996 366.276 831.430258958 366.309711294 847.54 366.799 c 0
 883.405261719 369.350648438 882.1465 376.954006836 900.77 435.121 c 1
 930 431.46 l 1
 921.800786813 403.368102259 918.486515196 375.48768807 918.486515196 347.614760606 c 1
 918.486515196 317.695979217 922.305192487 287.785823936 928 257.632 c 1
 897.724 252.925 l 1
 878.4395 327.884006836 885.737162178 330.247 847.54 332.339 c 0
 796.911190625 334.954 695.453579576 334.431 588.443 334.954 c 1
 587.92 226.488865604 590.012 133.812836793 596.288 60.012 c 0
 598.38 40.2431640625 597.468593412 34.4727311323 637.259 33.736 c 0
 688.599013345 31.2270306059 732.21017247 29.0732577921 773.409257426 29.0732577921 c 1
 820.19253405 29.0732577921 864.107749547 31.5462083354 911.712 38.443 c 0
 953.610804688 48.903 961.790844726 77.2058984375 994.908 166.506 c 1
 1020.523 159.983 l 1
 1008.44939941 105.582391601 994.036799805 54.9628525391 982.477 -2.862 c 1
 927.605451398 -2.10178931564 775.624384666 -1.25645459914 663.496861669 -1.25645459914 c 1x7bc0
 581.497302171 -1.25645459914 481.451814382 -2.57299920293 451 -7.569 c 1
 445.77 22.184 l 1
 517.705790698 27.470117647 534.632 34.4374705882 534.632 58.874 c 1
 535.261800759 89.93466659 535.67406715 162.498346792 535.831859375 248.242890625 c 1
 471.27770426 252.665342851 355.219498227 254.643373863 270.054992188 251.293 c 1
 227.806100711 179.40547 198.607196268 134.18445067 161.725017 66.966 c 0
 142.235483386 32.5692477276 157.252724 31.385 244.013051 23.506 c 1
 239.598824851 -10.954 l 1
 207.951058668 -4.07044238412 156.803204766 -0.180988084272 108.669956895 -0.180988084272 c 1
 76.3230525339 -0.180988084272 45.3376094824 -2.81375659219 22.546888075 -5.477 c 1
 22.546888075 -5.477 18.283225813 15.548 19.9365111797 27.322 c 1
 81.666366463 38.0348478261 104.014035057 43.1349117223 116.863996 63.305 c 0
 247.344871541 277.917142414 366.902315757 481.52380413 467.271515625 657.546162109 c 1
 445.530507532 659.437880033 419.850857584 661.251146841 392.431 663.862 c 1
 396 692 l 1xb7c0
499.988252929 653.017921875 m 1
 472.086767018 603.77321637 340.066066251 370.928405942 289.72 285.184 c 1
 342.765355818 282.667612592 479.072582977 283.532276654 535.97053125 283.606210938 c 1
 536.072011301 420.103420963 535.310795333 575.827993505 533.586 627.54 c 0
 533.440081686 645.708876384 528.078693337 649.393005859 499.988252929 653.017921875 c 1
EndSplineSet
Position2: "cpsp-1" dx=0 dy=0 dh=50 dv=100
Substitution2: "c2pc-1" ae.pcap
Substitution2: "c2sc-1" ae.smcp
EndChar

StartChar: ae
Encoding: 230 230 322
Width: 578
VWidth: 1159
Flags: W
HStem: -9.431 37.598<77.6156 176.926 346.318 466.554> 281.339 24<526.648 549.523> 381.448 36.029<341.787 430.028> 389.08 38.644<135.234 213.097>
VStem: 27.6745 44.1032<28.0032 125.186> 42.8117 51.719<308.378 369.235> 261.004 27.0215<254.466 296.625>
LayerCount: 2
Fore
SplineSet
381.790429688 381.448 m 3xe2
 339.300448273 381.448 294.791923027 321.673749 288.02553125 232.138 c 1
 355.857674125 252.646849318 408.630100912 268.322359572 472.218 286.375266471 c 0
 475.511452536 287.30992048 478.836194495 288.251398871 482.196893554 289.201 c 1
 471.010070962 335.854655173 426.873273689 381.448 381.790429688 381.448 c 3xe2
286.771289062 205.138 m 1
 280.123826455 105.128063193 328.730071243 28.167 402.900870117 28.167 c 3
 450.036966097 28.167 492.954808826 53.665 524.171234375 80.322 c 1
 542.00346875 57.138 l 1
 503.577831434 24.8324558823 448.684063839 -9.431 385.555257812 -9.431 c 3
 331.242288964 -9.431 292.516284899 18.1386873536 270.258448242 55.9151044922 c 1
 204.467705649 19.5998316979 146.329303731 -11.862 88.67453125 -11.862 c 3
 39.53653125 -11.862 27.67453125 24.138 27.67453125 68.138 c 3xea
 27.67453125 88.1143050848 31.5006215056 110.145266993 40.1507148438 124.276 c 0
 47.9750306332 138.276 59.5209296491 146.054686479 77.3227148438 155.293 c 0
 124.957604742 179.520406728 177.334422119 196.35701561 241.304414062 217.318695312 c 1
 244.889001973 247.834304107 251.731990702 275.563965157 261.004032227 300.690004883 c 1
 260.914706581 321.770718294 252.583568609 334.409020411 232.434633789 353.213106445 c 0
 223.248974204 364.355594377 190.130243077 389.08 170.598714844 389.08 c 3
 150.210809672 389.08 94.5307148438 368.177142857 94.5307148438 337.23 c 3
 94.5307148438 329.343 100.121857701 317.950666667 101.053714844 313.569 c 1
 50.3807148437 294.54 l 1
 47.0167148437 303.22825 42.8117148438 320.60475 42.8117148438 329.293 c 3
 42.8117148438 344.921780488 51.7373815104 361.666902439 71.7197148437 375.063 c 1
 118.917149873 407.948875 184.736992447 427.724 198.51953125 427.724 c 3xd6
 217.987154271 427.724 278.502399114 381.768058786 295.657664062 360.80034375 c 1
 327.713570663 401.162487747 370.667930914 417.477 388.76821875 417.477 c 3
 443.886402815 417.477 499.334469308 370.329667075 520.859375 323 c 0
 526.17515337 311.421927112 533.628385316 303.5088 549.523 305.339 c 1
 550.477 281.339 l 1
 466.633979977 258.4787 372.817942904 231.264057143 286.771289062 205.138 c 1
239.718476562 190.074453125 m 1
 200.132270241 176.737892335 157.722883265 161.868749641 138.51953125 152.707 c 0
 99.1884984716 134.308860634 71.7777148438 116.076149754 71.7777148438 77.213 c 3
 71.7777148438 41.1894931448 88.060804313 22.075 117.007714844 22.075 c 3
 146.574921928 22.075 201.373019158 43.4734994006 258.640583008 76.4140332031 c 1
 245.128920436 109.380690962 239.009364093 147.701210149 239.718476562 190.074453125 c 1
EndSplineSet
Substitution2: "pcap-1" ae.pcap
Substitution2: "case-1" AE
Substitution2: "smcp-1" ae.smcp
EndChar

StartChar: germandbls
Encoding: 223 223 327
Width: 579
VWidth: 1159
Flags: W
HStem: -9 40<37 88.8477 173.148 208.525 365.019 460.981> 356 30<40 95.2842> 705 51<244.321 344.378>
VStem: 100 65<36.3341 356 396.595 588.58> 276 67<305.481 354.885> 301 22<88.2815 107.227> 396.559 58.286<487.211 649.856> 477 62<53.3627 166.162>
LayerCount: 2
Fore
SplineSet
312 756 m 0xfb
 411.877 756 454.845 679.623 454.845 588.779 c 0
 454.845 446.016 343 385.103 343 345 c 0xfb
 343 322 360.358 300 417 276 c 1
 495.85 246.667 539 186.985 539 128 c 0
 539 33.1543 458.812 -9 408 -9 c 0
 365.699560976 -9 332.401317073 2 300 16 c 1
 304 30 306 44 306 59 c 0
 306 68.3555 304.571 95.6445 301 105 c 1
 323 112 l 1xf7
 342.104493506 56.8506 380.314818182 31 426 31 c 0
 451.5 31 477 56.9092 477 106 c 0
 477 163.711 429.343 194.988 396 212 c 0
 347 237 276 253 276 324 c 0
 276 346 396.559 432.484 396.559 571.703 c 0
 396.559 648.474 347.395 705 278 705 c 0
 190.602 705 180.067 591.244 171 454 c 1
 167.34 417.394 165 295.325 165 249 c 0
 165 182.096 166.167 119.272 172 54 c 0
 172.739 39 177.174 34 189 33 c 0
 196.534 32 203.466 32 211 31 c 1
 208 -6 l 1
 182.625 -1 146.375 1 121 1 c 0
 97.2266 1 60.7734 -2 37 -6 c 1
 36 30 l 1
 47 31 61 31 72 33 c 1
 89.5947 40 91.8652 53 93 81 c 1
 97.375 120.633 100 172.459 100 222 c 0
 99.4055 259.124 99.1645 308.001 99.0667 356 c 1
 40 356 l 1
 40 386 l 1
 59.9402 389.935 79.0951 397.74 99.0097 401.801 c 1
 99 418.369 99 434.298 99 449 c 0
 99 579.533 140.062 647.199 205 704 c 0
 235.911 731 265.237 756 312 756 c 0xfb
EndSplineSet
MultipleSubs2: "case-2" S S
Substitution2: "pcap-1" uni1E9E.pcap
Substitution2: "case-1" uni1E9E
Substitution2: "smcp-1" uni1E9E.smcp
EndChar

StartChar: greater
Encoding: 62 62 333
Width: 463
VWidth: 0
Flags: W
HStem: -7 21G<76.2322 118.468> 392 20G<87.1966 131.105>
LayerCount: 2
Fore
SplineSet
77.5085 378.1928 m 1
 101.23 412 l 1
 412 203.954 l 1
 87.724 -7 l 1
 74.155 16.615 l 1
 349.4335 195.8998 l 1
 77.5085 378.1928 l 1
EndSplineSet
Position2: "'case' vertical ajustments for all-caps-1" dx=0 dy=90 dh=0 dv=0
EndChar

StartChar: braceleft
Encoding: 123 123 336
Width: 266
VWidth: 1515
Flags: W
HStem: -233.516 27.661<185.334 239.5> 692.455 27.661<184.126 239.5>
VStem: 96.27 42.5665<-164.733 25.8817 460.596 654.119> 124.494 45.966<-4.91044 164.591 321.585 490.316>
LayerCount: 2
Fore
SplineSet
239.5 720.115906836 m 1xe0
 239.5 720.115906836 239.5 698.777976836 239.5 692.454906836 c 1
 176.754222441 691.435993672 138.8365 662.740128838 138.8365 558.298006836 c 3xe0
 138.8365 487.268489332 170.46 467.842532143 170.46 390 c 3
 170.46 334.826964961 122.018123604 270.553921418 64.713 243.299906836 c 1
 122.018123604 216.045922117 170.46 150.818967751 170.46 96.5996044719 c 3xd0
 170.46 16.8482360653 138.8365 1.71598970013 138.8365 -71.6984023641 c 3
 138.8365 -177.095269905 179.153251852 -204.836178553 239.5 -205.855093164 c 1
 239.5 -233.516093164 l 1
 164.154565525 -234.823222474 96.27 -196.486755486 96.27 -58.7801977641 c 3xe0
 96.27 8.73988231584 124.494 36.8940352739 124.494 98.1686044719 c 3
 124.494 145.140851215 88.7126034127 208.374467543 11.5 230.299906836 c 1
 11.5 255.822906836 l 1
 87.7586034127 277.82651599 124.494 340.810794548 124.494 388.431 c 3xd0
 124.494 451.612965108 96.27 475.474202681 96.27 545.379906836 c 3
 96.27 683.08658532 161.25047729 721.423034727 239.5 720.115906836 c 1xe0
EndSplineSet
Position2: "cpsp-1" dx=0 dy=0 dh=50 dv=100
Position2: "'case' vertical ajustments for all-caps-1" dx=0 dy=90 dh=0 dv=0
EndChar

StartChar: asciitilde
Encoding: 126 126 339
Width: 394
VWidth: 0
Flags: W
HStem: 198.109 44.92<173.898 325.208> 229.971 44.92<70.8184 223.151>
LayerCount: 2
Fore
SplineSet
18.954 206.833 m 1x40
 48.6462580645 241.6182 97.3580645162 274.891 111 274.891 c 3x40
 153.533840909 274.891 243.547318182 243.029 285.092 243.029 c 3
 296.306181818 243.029 329.948727273 263.888347826 346.77 286.644 c 1
 375.046 273.167 l 1
 349.48482353 238.166072165 305.245811765 198.109 288.138 198.109 c 3x80
 248.512275676 198.109 144.169762162 229.971 109.339 229.971 c 3
 94.78875 229.971 62.3305 207.732230769 46.661 193.833 c 1
 18.954 206.833 l 1x40
EndSplineSet
Position2: "cpsp-1" dx=0 dy=0 dh=50 dv=100
Position2: "'case' vertical ajustments for all-caps-1" dx=0 dy=90 dh=0 dv=0
EndChar

StartChar: kgreenlandic
Encoding: 312 312 345
Width: 520
VWidth: 1159
Flags: W
HStem: -5 33<33.6364 85.0934 314.455 358.094 457 501.545> 344 29<39.7931 76.7086> 374 27<269 299.949 413.248 459.333> 395 20G<145.5 187>
VStem: 105 64<42.314 204 227 346.994>
LayerCount: 2
Fore
SplineSet
179 211 m 1xe8
 169 204 l 1
 169 140.25 171.723635175 78.5727361869 175 54 c 0
 177 39 185.619315018 37.1522739927 196 33 c 0
 206 29 216 28 230 27 c 1
 225 -7 l 1
 191 -1 172 4 130 4 c 3
 100 4 64 -3 34 -5 c 1
 32 28 l 1
 43 29 54.2438024311 30.030722479 64 33 c 0
 87 40 93.3132247115 48.0575369992 96 76 c 0
 101 128 105 170 105 235 c 3
 105 253.368013699 103.27297056 281.632471039 101 318 c 0
 100 334 94 348 77 348 c 3
 71 348 51 345 41 344 c 1
 36 373 l 1
 88 381.884615385 124 387.538461538 167 415 c 1xd8
 187 399 l 1
 181 385 174.184346429 357.982026431 173 347 c 0
 171 328.454705882 168 273.908529412 167 227 c 1
 201.5858 255.29682906 250.733796152 297.620653704 285 330 c 0
 291.596571429 336.233333333 301 348.518518519 301 355 c 3
 301 373 277 372 267 374 c 1
 269 401 l 1
 295 399 330 399 357 399 c 3
 388.166666667 399 428.777777778 399 459 403 c 1
 461 371 l 1
 400.820895522 364.000222222 364.689666047 341.369176033 333 319 c 2
 231 247 l 1
 297.824402928 186.179636497 367.532605558 122.858938129 446 52 c 1
 462 37 490 29 504 28 c 1
 501 -6 l 1
 467 0 449 4 407 4 c 3
 377 4 345 -3 315 -5 c 1
 312 28 l 1
 348 33 348 37 359 38 c 1
 296.777686305 99.8038948798 205.773756239 186.901875399 179 211 c 1xe8
EndSplineSet
MultipleSubs2: "case-2" K quoteleft
EndChar

StartChar: OE
Encoding: 338 338 346
Width: 1081
VWidth: 1159
Flags: W
HStem: -7 49<336.528 518.419> 3.06988 37.3024<639.125 901.73> 334 36<614 882.393> 650 44<298.396 500.529>
VStem: 37 93<266.365 448.041> 531 93<373.564 620.777> 534.995 79.0053<90.5 334 370 605.156> 906 36<248.75 306.348 394.846 442.094> 947 30<539 620.59> 1007 28<152.034 171.75>
LayerCount: 2
Fore
SplineSet
385 650 m 3xbdc0
 244 650 130 535.515933333 130 377 c 3
 130 202.722537538 273 42 443 42 c 3
 495.7 42 533 62.631 533 92 c 1
 534.422110588 116.770777747 534.994687396 175.604459673 534.994687396 244.572312164 c 0xbbc0
 534.994687396 369.591771373 533.113224845 527.911675418 531 577 c 0
 528.17 641.262 448.642 650 385 650 c 3xbdc0
424 -7 m 3
 210 -7 37 145.659140762 37 336 c 3
 37 527.127628169 212 694 422 694 c 3
 507.490017004 694 461.789007914 684.96875 696.956054688 684.96875 c 3
 838.863027557 684.96875 966.475003159 689.186881304 983 693 c 1
 994.145145837 683.247997393 998.133414459 677.741599913 998.133414459 669.087387512 c 0
 998.133414459 652.893580795 984.168856119 625.677987617 977 539 c 1
 947 536 l 1
 936 572 955 619 919 630 c 0
 856 648 737 653 656 643 c 0
 638 641 625 627 624 609 c 0xbdc0
 620 526.970338983 615 445.953389831 614 370 c 1
 678 372 838 372 852 373 c 0
 889 378 894 404 910 448 c 1
 944 441 l 1
 935.800908316 410.132831309 932.486685813 379.498275435 932.486685813 348.871954284 c 0
 932.486685813 315.997648821 936.305294619 283.132831309 942 250 c 1
 906 241 l 1
 886 312 893 325 852 329 c 0
 808 334 707 333 614 334 c 1
 613 236.227091633 617 147.525896414 629 81 c 0
 633 64 642 50 659 49 c 0
 704.831179232 44.5647245905 745.319436302 40.3723092792 783.696225476 40.3723092792 c 0
 823.193090286 40.3723092792 860.453436792 44.8130178498 899 58 c 0
 958 78 968 101 1007 177 c 1
 1035 170 l 1
 1019 104 1008 62 996 0 c 1
 886.301 -0.545565 771.508 3.06988 667.928 3.06988 c 3x7bc0
 487.932 3.06988 491.022 -7.00001 424 -7 c 3
EndSplineSet
Position2: "cpsp-1" dx=0 dy=0 dh=50 dv=100
Substitution2: "c2pc-1" oe.pcap
Substitution2: "c2sc-1" oe.smcp
EndChar

StartChar: uni2605
Encoding: 9733 9733 347
Width: 821
VWidth: 0
Flags: W
LayerCount: 2
Fore
SplineSet
796.5 438.6 m 1
 558 264.9 l 1
 648.9 -15 l 1
 410.4 158.7 l 1
 171.9 -15 l 1
 262.8 265.8 l 1
 24.2998 438.6 l 1
 318.6 437.7 l 1
 410.4 718.5 l 1
 501.3 438.6 l 1
 796.5 438.6 l 1
EndSplineSet
EndChar

StartChar: uni2606
Encoding: 9734 9734 348
Width: 821
VWidth: 30
Flags: W
HStem: 401.928 36.6719<152.512 318.6 501.3 667.922> 409.188 29.4116<117.412 313.655 501.3 704.049>
LayerCount: 2
Fore
SplineSet
704.049071 409.1884 m 1x40
 474.701583 401.928114 l 1x80
 410.21443 622.243627 l 1
 345.716817 401.044743 l 1
 117.411716 409.155974 l 1
 306.447328 279.876452 l 1
 229.015426 63.8402579 l 1
 410.400186328 204.629787586 l 1
 591.865853 63.850561 l 1
 514.448072 278.993081 l 1
 704.049071 409.1884 l 1x40
796.5 438.6 m 1x40
 558 264.9 l 1
 648.9 -15 l 1
 410.4 158.7 l 1
 171.9 -15 l 1
 262.8 265.8 l 1
 24.2998 438.6 l 1x40
 318.6 437.7 l 1
 410.4 718.5 l 1
 501.3 438.6 l 1x80
 796.5 438.6 l 1x40
EndSplineSet
EndChar

StartChar: uni261C
Encoding: 9756 9756 349
Width: 2241
Flags: W
HStem: -39.8809 34.5928<702.366 803.644>
VStem: 65.4062 47.9918<389.495 407.811>
LayerCount: 2
Fore
SplineSet
65.4062 488.98 m 1
 133.471 493.169 171.866 495.579 238.634 514.306 c 1
 246.596 504.546 534.656 534.515 542.911 561.332 c 1
 564.898 551.482 577.512 547.037 605.929 570.229 c 1
 773.769 556.794 986.458 616.839 1106 648 c 1
 1329.25 569.701 1572.25 468.729 1696.18 430.638 c 1
 1739.57 483.052 1793.53 507.924 1848.05 516.793 c 1
 2110.43 547.303 l 1
 2163.02 255.056 2175.68 -29.6611 2148.35 -306.85 c 1
 1892.24 -297.519 l 1
 1875.45 -261.822 1858.65 -226.126 1841.85 -190.43 c 1
 1814.48 -179.761 1789.09 -165.358 1754.94 -149.172 c 1
 1614.8 -241.059 1469.34 -206.779 1327.96 -171.926 c 1
 1302.89 -235.181 1261.64 -288.312 1185.82 -267.69 c 1
 1164.81 -330.418 1107.45 -355.95 1072.25 -326.185 c 0
 999.4 -264.557 891.756 -230.288 835.198 -172.483 c 1
 682.232 -206.512 560.41 -112.538 687.913 48.1104 c 1
 660.334 112.992 745.543 185.467 777.889 271.683 c 1
 695.375 282.243 590.004 307.018 566.297 298.763 c 0
 515.511 281.073 363.284 309.172 334.218 317.119 c 1
 176.398 304.119 59.9014 331.849 65.4062 488.98 c 1
227.493 480.275 m 1
 178.401 472.663 150.689 468.371 101.594 460.757 c 1
 93.8691 413.082 244.447 408.912 227.493 480.275 c 1
1084.38 592.183 m 0
 825.397 554.269 996.286 546.32 636.788 522.399 c 0
 585.692 519 590.137 488.802 569.033 486.987 c 0
 550.55 485.4 544.591 511.314 526.415 507.695 c 0
 434.1 489.321 365.902 488.599 263.3 476.39 c 1
 250.997 394.928 192.292 410.334 113.398 407.811 c 1
 114.412 376.567 264.124 347.652 350.099 377.665 c 1
 407.623 368.682 461.089 357.379 523.575 380.384 c 1
 604.456 372.626 651.254 355.211 727.339 401.371 c 1
 807.605 356.047 974.055 358.16 1064.13 421.6 c 1
 1070.94 421.779 1071.33 413.38 1077.52 410.565 c 1
 1051.33 362.256 1084.46 312.087 1114.36 315.387 c 0
 1130.39 317.154 1149.22 354.088 1163.9 376.21 c 0
 1172.19 388.706 1208.8 379.251 1202.08 365.563 c 0
 1164.56 289.234 1183.03 221.194 1302.92 308.083 c 0
 1330.21 327.857 1391.28 329.565 1389.06 296.334 c 0
 1387.54 273.576 1345.13 302.372 1303.25 264.596 c 0
 1210.07 180.539 1123.04 118.563 1008.84 107.013 c 1
 996.464 98.4824 989.483 93.6709 977.105 85.1396 c 1
 876.257 142.62 705.042 54.8047 694.435 -5.28809 c 1
 757.921 -1.57617 796.29 11.3975 834.737 -28.0469 c 1
 861.688 11.0107 922.306 3.84277 985.483 11.0127 c 1
 998.435 5.33398 1005.74 2.13281 1018.69 -3.54395 c 1
 1031.07 4.98828 1038.05 9.79883 1050.42 18.3291 c 1
 1063.43 11.9795 1070.77 8.39844 1083.78 2.04883 c 1
 1093.29 11.6924 1098.66 17.1289 1108.17 26.7725 c 1
 1169 0.666992 1265.6 3.79102 1298.85 55.3369 c 0
 1307.77 69.1582 1331.21 74.7871 1353.92 73.9941 c 0
 1497.96 68.9609 1697.02 60.1641 1760.13 150.666 c 0
 1796.28 202.51 1766.13 361.801 1721.3 387.54 c 1
 1551.99 437.4 1391.01 515.096 1175.49 584.343 c 0
 1141.59 595.234 1119.66 597.348 1084.38 592.183 c 0
823.456 -100.385 m 1
 821.674 -60.501 792.91 -39.6387 757.787 -39.8809 c 0
 715.507 -40.1699 663.499 -75.8311 669.326 -101.442 c 0
 672.815 -116.764 791.04 -134.5 823.456 -100.385 c 1
1825.2 474.796 m 1
 1793.57 452.477 1775.72 439.887 1744.09 417.571 c 1
 1790.28 409.132 l 1
 1834.35 392.028 1910.85 90.5078 1840.19 -91.3711 c 1
 1844.61 -94.3838 1847.1 -96.085 1851.52 -99.1006 c 1
 1989.62 -17.6104 1923.24 389.222 1825.2 474.796 c 1
EndSplineSet
EndChar

StartChar: uni261E
Encoding: 9758 9758 350
Width: 2241
Flags: HMW
LayerCount: 2
Fore
SplineSet
2162.17 488.98 m 1
 2167.68 331.849 2051.18 304.119 1893.36 317.119 c 1
 1864.29 309.172 1712.07 281.073 1661.28 298.763 c 0
 1637.57 307.018 1532.2 282.243 1449.69 271.683 c 1
 1482.03 185.467 1567.24 112.992 1539.66 48.1104 c 1
 1667.17 -112.538 1545.34 -206.512 1392.38 -172.483 c 1
 1335.82 -230.288 1228.18 -264.557 1155.32 -326.185 c 0
 1120.13 -355.95 1062.77 -330.418 1041.76 -267.69 c 1
 965.937 -288.312 924.688 -235.181 899.613 -171.926 c 1
 758.235 -206.779 612.779 -241.059 472.641 -149.172 c 1
 438.485 -165.358 413.094 -179.761 385.725 -190.43 c 1
 368.927 -226.126 352.131 -261.822 335.333 -297.519 c 1
 79.2285 -306.85 l 1
 51.9014 -29.6611 64.5586 255.056 117.149 547.303 c 1
 379.524 516.793 l 1
 434.047 507.924 488.01 483.052 531.394 430.638 c 1
 655.332 468.729 898.328 569.701 1121.58 648 c 1
 1241.12 616.839 1453.81 556.794 1621.65 570.229 c 1
 1650.07 547.037 1662.68 551.482 1684.67 561.332 c 1
 1692.92 534.515 1980.98 504.546 1988.94 514.306 c 1
 2055.71 495.579 2094.11 493.169 2162.17 488.98 c 1
2000.08 480.275 m 1
 1983.13 408.912 2133.71 413.082 2125.98 460.757 c 1
 2076.89 468.371 2049.18 472.663 2000.08 480.275 c 1
1143.19 592.183 m 0
 1107.92 597.348 1085.99 595.234 1052.09 584.343 c 0
 836.569 515.096 675.586 437.4 506.281 387.54 c 1
 461.443 361.801 431.295 202.51 467.448 150.666 c 0
 530.558 60.1641 729.622 68.9609 873.661 73.9941 c 0
 896.366 74.7871 919.808 69.1582 928.726 55.3369 c 0
 961.981 3.79102 1058.58 0.666992 1119.41 26.7725 c 1
 1128.92 17.1289 1134.29 11.6924 1143.8 2.04883 c 1
 1156.8 8.39844 1164.14 11.9795 1177.15 18.3291 c 1
 1189.53 9.79883 1196.51 4.98828 1208.89 -3.54395 c 1
 1221.83 2.13281 1229.14 5.33398 1242.09 11.0127 c 1
 1305.27 3.84277 1365.89 11.0107 1392.84 -28.0469 c 1
 1431.29 11.3975 1469.66 -1.57617 1533.14 -5.28809 c 1
 1522.54 54.8047 1351.32 142.62 1250.47 85.1396 c 1
 1238.09 93.6709 1231.11 98.4824 1218.74 107.013 c 1
 1104.54 118.563 1017.5 180.539 924.325 264.596 c 0
 882.445 302.372 840.035 273.576 838.518 296.334 c 0
 836.301 329.565 897.366 327.857 924.653 308.083 c 0
 1044.55 221.194 1063.02 289.234 1025.5 365.563 c 0
 1018.77 379.251 1055.38 388.706 1063.68 376.21 c 0
 1078.36 354.088 1097.19 317.154 1113.21 315.387 c 0
 1143.12 312.087 1176.25 362.256 1150.06 410.565 c 1
 1156.25 413.38 1156.63 421.779 1163.45 421.6 c 1
 1253.52 358.16 1419.97 356.047 1500.24 401.371 c 1
 1576.32 355.211 1623.12 372.626 1704 380.384 c 1
 1766.49 357.379 1819.95 368.682 1877.48 377.665 c 1
 1963.45 347.652 2113.17 376.567 2114.18 407.811 c 1
 2035.29 410.334 1976.58 394.928 1964.28 476.39 c 1
 1861.67 488.599 1793.48 489.321 1701.16 507.695 c 0
 1682.99 511.314 1677.03 485.4 1658.54 486.987 c 0
 1637.44 488.802 1641.88 519 1590.79 522.399 c 0
 1231.29 546.32 1402.18 554.269 1143.19 592.183 c 0
1404.12 -100.385 m 1
 1436.54 -134.5 1554.76 -116.764 1558.25 -101.442 c 0
 1564.08 -75.8311 1512.07 -40.1699 1469.79 -39.8809 c 0
 1434.67 -39.6387 1405.9 -60.501 1404.12 -100.385 c 1
402.373 474.796 m 1
 304.342 389.222 237.955 -17.6104 376.058 -99.1006 c 1
 380.473 -96.085 382.967 -94.3838 387.383 -91.3711 c 1
 316.725 90.5078 393.227 392.028 437.294 409.132 c 1
 483.483 417.571 l 1
 451.853 439.887 434.009 452.477 402.373 474.796 c 1
EndSplineSet
EndChar

StartChar: uni211F
Encoding: 8479 8479 429
Width: 831
UnlinkRmOvrlpSave: 1
Flags: W
LayerCount: 2
Fore
SplineSet
500.264 -78.678 m 1
 594.339 98.8632021661 753.492857143 486.170108303 757.988 508.097 c 1
 654.62 544.281 l 1
 649.9475 559.859012048 675.693875602 580.573969758 692 596 c 1
 739.19 579.23 765.81 569.77 813 553 c 1
 773 475 572.146067416 -19.3583460949 537 -97 c 1
 500.264 -78.678 l 1
EndSplineSet
Refer: 43 82 N 1 0 0 1 0 0 2
EndChar

StartChar: uni2123
Encoding: 8483 8483 430
Width: 841
UnlinkRmOvrlpSave: 1
Flags: W
HStem: 658.862 27.2101<156.176 263.187 593.907 693.921> 665.632 32.368<9.93439 75.7214 154.95 266.138 592.138 694.482 760.679 831.078>
LayerCount: 2
Fore
SplineSet
216.264 -78.678 m 1x00
 310.339 98.8632021661 469.492857143 486.170108303 473.988 508.097 c 1
 370.62 544.281 l 1
 365.9475 559.859012048 391.693875602 580.573969758 408 596 c 1
 455.19 579.23 481.81 569.77 529 553 c 1
 489 475 288.146067416 -19.3583460949 253 -97 c 1
 216.264 -78.678 l 1x00
EndSplineSet
Refer: 54 86 N 1 0 0 1 0 0 2
EndChar

StartChar: estimated
Encoding: 8494 8494 431
Width: 752
VWidth: 0
Flags: W
HStem: -9 50.917<266.135 484.333> 310.923 51.15<191.384 562.454> 632.006 50.917<264.706 485.147>
VStem: 30.1973 161.187<217.349 310.923 362.073 455.702> 562.454 159.576<362.073 456.3>
LayerCount: 2
Fore
SplineSet
632.777 191.846 m 1
 676.861 166.441 l 1
 673.98 161.581 l 2
 613.377 59.3301 501.767 -9 376 -9 c 0
 189.553 -9 30.1973 142.604 30.1973 338.341 c 0
 30.1973 525.945 184.438 682.615 375.52 682.923 c 2
 376.044 682.923 l 2
 564.48 682.923 722.035 529.016 722.03 336.942 c 0
 722.03 329.967 721.813 323.039 721.4 316.168 c 2
 721.084 310.923 l 1
 191.384 310.923 l 1
 191.384 107.399 l 1
 242.467 66.2236 307.069 41.917 376 41.917 c 0
 483.087 41.917 578.216 100.053 629.964 187.113 c 2
 632.777 191.846 l 1
191.384 566.668 m 1
 191.384 362.073 l 1
 562.454 362.073 l 1
 562.454 565.158 l 1
 511.302 606.997 446.18 632.006 376.044 632.006 c 2
 375.598 632.006 l 2
 305.803 631.894 241.805 607.323 191.384 566.668 c 1
EndSplineSet
EndChar

StartChar: uni2023
Encoding: 8227 8227 436
Width: 614
Flags: W
HStem: 277.431 27.7788<375.727 549.276>
VStem: 52.0628 22.7446<28.199 37.1441>
LayerCount: 2
Back
Fore
SplineSet
549.276 305.209821125 m 1
 549.276 277.431 l 1
 515.282947 266.757928907 405.506702041 270.617137468 356 261.05422732 c 0
 128.505257661 240.127701299 159.206273 192.7990207 74.8074031 17.47108121 c 1
 52.0628123 28.1990169 l 1
 100.6492246 220.51934 119.01403 316.029604 37.5188923 556.9685 c 1
 65.20908 564.240983 l 1
 137.51932 387.895423 132.569007366 321.104382864 325.639832305 318.307821125 c 0
 413.406228117 316.642335125 512.614231509 312.694032125 549.276 305.209821125 c 1
EndSplineSet
EndChar

StartChar: dagger
Encoding: 8224 8224 437
Width: 442
Flags: W
HStem: 506.741 57.995<24.7967 208.342 235.658 419.202>
VStem: 192.741 58.518<550.132 736.4> 209.477 24.523<-18 168.992>
LayerCount: 2
Fore
SplineSet
255.443 370 m 1xa0
 240.799 262 240.276 250 234 -18 c 1
 209.477 -18 l 1
 202.155 266 201.862344727 282.899414062 188.034 370 c 1
 202.678 441.221352941 205.293 460.280588236 209.477 523.477 c 1
 136.862 518.247 l 2
 85.0545952881 513.017 88.0735454546 506.741 63.201 506.741 c 3
 39.2039527155 506.741 22.724 523.247 22.724 535.477 c 3
 22.724 547.377168776 40.2540380859 564.736 63.724 564.736 c 3
 87.7825526316 564.736 89.140992986 558.983 136.862 554.276 c 2
 209.477 549.046 l 1xa0
 203.724 618.569 l 2
 200.063 653.897167805 192.741 679.214158537 192.741 700.092 c 3
 192.741 723.749764977 209.89058553 738.137997635 222 738.138 c 1
 234.164306079 738.138002406 251.259 723.750479584 251.259 701.138 c 3xc0
 251.259 678.529821428 243.937 651.596029626 240.276 618.569 c 2
 234.523 549.046 l 1
 307.138 554.276 l 2
 359.637548951 559.506 355.255105263 565.259 380.276 565.259 c 3
 403.735377328 565.259 421.276 548.594516858 421.276 536.523 c 3
 421.276 524.127177835 404.090692114 507.264 379.753 507.264 c 3
 355.548 507.264 355.017956301 513.54 307.138 518.247 c 2
 234 523.477 l 1
 238.184 461.283705882 240.799 442.224470588 255.443 370 c 1xa0
EndSplineSet
EndChar

StartChar: daggerdbl
Encoding: 8225 8225 438
Width: 442
Flags: W
HStem: -3.138 21G<215.95 227.004> 169.741 57.995<23.6485 207.767 235.172 417.943> 506.741 57.995<24.818 208.298 235.702 419.054>
VStem: 192.218 58.518<-1.50026 184.845 550.155 736.203>
LayerCount: 2
Fore
SplineSet
192.218 369 m 1
 204.004634146 440.219915584 206.109390244 460.281863636 209.477 523.477 c 1
 134 518.247 l 2
 78.8766312128 513.017 83 506.741 57 506.741 c 3
 38.1956641602 506.741 22.724 524.374454546 22.724 535.477 c 3
 22.724 546.5304 39.0531874047 564.736 58 564.736 c 3
 83 564.736 83.9460495856 558.983 134 554.276 c 2
 209.477 549.046 l 1
 203.724 620 l 2
 200.063 658.48917899 192.741 681.709682927 192.741 702.954 c 3
 192.741 724.543461538 210.9466 738.138 222 738.138 c 3
 233.0534 738.138 251.259 724.072081081 251.259 704 c 3
 251.259 681 243.937 657.058204421 240.276 620 c 2
 234.523 549.046 l 1
 310 554.276 l 2
 365.065570443 559.506 360 565.259 386 565.259 c 3
 405.052680925 565.259 421.276 547.625545454 421.276 536.523 c 3
 421.276 525.4696 404.847181083 507.264 385 507.264 c 3
 360 507.264 360.166720481 513.54 310 518.247 c 2
 234 523.477 l 1
 237.367609756 461.284961039 239.472365854 441.223012987 251.259 369 c 1
 239.472365854 297.784286624 237.367609756 274.714407643 234 211.523 c 1
 309 216.753 l 2
 364.116094914 221.983 360 228.259 386 228.259 c 3
 405.28133584 228.259 420.276 210.625545454 420.276 199.523 c 3
 420.276 188.4696 403.806714296 170.264 385.477 170.264 c 3
 360.320092105 170.264 359.360402113 176.017 309 180.724 c 2
 234 185.954 l 1
 239.753 115 l 2
 243.414 76.8603746189 250.736 54 250.736 33 c 3
 250.736 10.2119230769 232.5304 -3.138 221.477 -3.138 c 3
 210.4236 -3.138 192.218 10.322 192.218 33.862 c 3
 192.218 56.0783571428 199.54 79.1855526395 203.201 115 c 2
 208.954 185.954 l 1
 133 180.724 l 2
 77.9237879453 175.494 83 169.741 57 169.741 c 3
 37.9473190739 169.741 21.724 187.374454546 21.724 198.477 c 3
 21.724 209.5304 38.1528189174 227.736 58 227.736 c 3
 83 227.736 82.8890401159 221.46 133 216.753 c 2
 209.477 211.523 l 1
 206.109390244 273.711369427 204.004634146 296.781248408 192.218 369 c 1
EndSplineSet
EndChar

StartChar: longs
Encoding: 383 383 445
Width: 357
VWidth: 1159
Flags: W
HStem: -6 36<34 97.3708 215.17 284.568> 1 32<191.619 282.018> 356 25<46 67.3182> 701 55<273.459 377.117>
VStem: 113 72<42.1466 356 403 602.768>
LayerCount: 2
Fore
SplineSet
359 756 m 3x78
 391 756 441 745 466 723 c 1
 465 696 466 696 417 659 c 1
 378 677 347 701 309 701 c 3
 206 701 201 609 191 498 c 0
 187.339 461.394 185 339.326 185 293 c 3
 185 211 186 134 191 54 c 0
 192 39 198 34 214 33 c 0x78
 239 32 262 32 287 31 c 1
 284 -6 l 1xb8
 242 -1 182 1 140 1 c 3x78
 110 1 64 -2 34 -6 c 1
 33 30 l 1xb8
 44 31 58 31 69 33 c 0
 100 40 104 53 106 81 c 0
 111 133 114 201 114 266 c 3
 114 285.149 113 320.574 113 356 c 1
 46 356 l 1
 46 381 l 1
 113 403 l 1
 113 439.562 113 481.75 113 493 c 3
 113 601 156 657 224 704 c 0
 263 731 300 756 359 756 c 3x78
EndSplineSet
Substitution2: "case-1" S
Substitution2: "pcap-1" s.pcap
Substitution2: "smcp-1" s.smcp
EndChar

StartChar: ohorn
Encoding: 417 417 448
Width: 505
VWidth: 0
UnlinkRmOvrlpSave: 1
Flags: W
HStem: -11 31.845<192.102 329.798> 365.36 24.3843<349.604 421.731> 382.741 20G<338.441 342.053> 385.448 34.983<178.446 315.432>
VStem: 32 51.196<122.816 294.278> 420.758 52.242<106.35 282.919> 442.501 86.0273<403.736 481.559>
LayerCount: 2
Fore
SplineSet
334.482421875 402.741210938 m 1xaa
 349.62424831 396.926343349 372.471667174 389.744140625 386.686523438 389.744140625 c 3
 411.796269819 389.744140625 442.501138157 408.271731058 442.501138157 441.560602678 c 3
 442.501138157 449.63955766 438.983530489 459.025418514 428.6640625 470.818359375 c 1
 444.576416165 489.781030223 464.379979468 500.219391987 482.796821553 500.219391987 c 3
 512.365850716 500.219391987 528.528388939 475.09191665 528.528388939 445.9790134 c 3
 528.528388939 396.089685559 450.426516037 365.359813167 388.72825766 365.359813167 c 3xca
 357.132622939 365.359813167 342.400200021 377.606700862 334.482421875 402.741210938 c 1xaa
EndSplineSet
Refer: 14 111 N 1 0 0 1 0 0 2
Substitution2: "smcp-1" ohorn.smcp
Substitution2: "case-1" Ohorn
Substitution2: "pcap-1" ohorn.pcap
EndChar

StartChar: uhorn
Encoding: 432 432 449
Width: 526
VWidth: 0
UnlinkRmOvrlpSave: 1
Flags: W
HStem: -11 55<175.733 263.795> 338 31<292 351.243> 402 20G<128 167>
VStem: 70 76<75.1633 330.249> 359 64<36.0058 52 76.9705 331.63> 493.501 86.0273<404.739 481.559>
LayerCount: 2
Fore
SplineSet
410 375 m 1
 418.121414362 381.745491074 430.375771951 388.077148438 438 390.077148438 c 1
 462.968647592 396.077148438 493.500976562 408.485648026 493.500976562 441.560546875 c 3
 493.500976562 449.639517266 489.983409974 459.025396022 479.6640625 470.818359375 c 1
 495.576431876 489.781246013 515.380014732 500.219726562 533.796875 500.219726562 c 3
 563.365825233 500.219726562 579.528320312 475.092318034 579.528320312 445.979492188 c 3
 579.528320312 396.08959691 501.426629866 370.359375 439.728515625 365.359375 c 1
 422.413060772 365.359375 414.339204806 368.517835056 410 375 c 1
285 369 m 1
 339.422818792 375.199161305 395.899328859 382.557301496 438 390.077148438 c 1
 445 378 l 1
 431 335.584 423 173.632 423 137 c 3
 423 107 426.284077022 81.1592297825 429 54 c 0
 430 44 433 36 443 36 c 3
 447 36 473 43 493 48 c 1
 499 17 l 1
 463 8 419.410107664 -9.647473084 386 -18 c 0
 382 -19 381 -22 376 -22 c 3
 359 -22 359 0 354 52 c 1
 313 34 236 -11 178 -11 c 3
 140 -11 102.934188969 5.51320688895 86 44 c 0
 75 69 70 95 70 143 c 3
 70 198 73 255 73 312 c 0
 73 322 69 331 59 331 c 3
 49 331 28 319 22 317 c 1
 12 348 l 1
 53 359 107 394 149 422 c 1
 167 406 l 1
 152 336 146 254 146 177 c 3
 146 106 161 44 232 44 c 3
 269 44 322 69 353 85 c 1
 354 154 359 291 359 298 c 3
 359 337 329 337 292 338 c 1
 285 369 l 1
EndSplineSet
Substitution2: "smcp-1" uhorn.smcp
Substitution2: "case-1" Uhorn
Substitution2: "pcap-1" uhorn.pcap
EndChar

StartChar: yen
Encoding: 165 165 451
Width: 463
VWidth: 1159
UnlinkRmOvrlpSave: 1
Flags: W
HStem: -195.143 27.832<290.394 317.58> -17.8535 31.707<93 383> 82.1465 31.707<93 383>
VStem: 207.261 75.8369<-163.561 112.389>
LayerCount: 2
Fore
SplineSet
274.890625 169.708984375 m 1
 274.314622807 115.248982948 272.283654214 50.1171047102 283.09765625 -128.499023438 c 0
 285.015173967 -160.170886375 292.119204273 -161.0586431 320.783203125 -167.310546875 c 1
 317.580078125 -195.142578125 l 1
 274.689595576 -186.83690152 222.038207283 -183.218788643 178.485351562 -198.678710938 c 1
 171.08984375 -171.665039062 l 1
 195.610467016 -162.26863286 206.390990071 -155.268664903 207.260742188 -117.220703125 c 0
 207.787638441 -104.621204106 205.843021338 150.767976016 205.118164062 143.750976562 c 1
 204.034116885 150.049303618 155.095264654 248.178623374 87.2695828038 343.999997223 c 0
 76.0701508093 359.82210075 59.2291043945 378.720580661 49 385 c 1
 139 433 l 1
 144.933661013 402.938576204 168.652866704 351.939024868 181.091541944 327.999991964 c 0
 221.31584563 250.585724695 252.239236655 211.848881796 255.486328125 207.837890625 c 1
 299.730787717 303.031969433 321.320964056 356.628741888 331 433 c 1
 345.5 424.066173481 396.25 400.848034565 418 391 c 1
 345.004852928 317.965777551 314.263107929 249.458544383 274.890625 169.708984375 c 1
EndSplineSet
Refer: 1970 58113 N 0.29 0 0 1.125 93 -2 2
Refer: 1970 58113 N 0.29 0 0 1.125 93 98 2
Position2: "'lnum-2' vertical adjustment" dx=0 dy=190 dh=0 dv=0
EndChar

StartChar: eth
Encoding: 240 240 453
Width: 471
VWidth: 1159
UnlinkRmOvrlpSave: 1
Flags: W
HStem: -5 36.598<152.536 294.736> 368.063 35.506<178.218 316.942> 702.385 25.0681<77.2373 85.8109>
VStem: 28 44.92<111.221 267.261> 387.465 47.535<129.646 352.434>
LayerCount: 2
Fore
SplineSet
379.758 320.925 m 1
 343.595090909 349.59488 258.340249491 368.063 230.586 368.063 c 3
 200.047430769 368.063 72.92 328.345020808 72.92 199.765 c 3
 72.92 110.98482871 128.383758301 31.598 223.38 31.598 c 3
 339.065716104 31.598 387.465 130.991328471 387.465 218.218 c 3
 387.465 399.813467488 231.109 638.034 65.954 702.385 c 1
 69.731309326 708.395214944 77.2373046875 727.453125 77.2373046875 727.453125 c 1
 260.283740169 675.166289781 435 439.719447105 435 235 c 3
 435 113.962890625 360.284179688 -5 193 -5 c 3
 102.911132812 -5 28 65.923828125 28 171 c 3
 28 325.439380973 172.458881356 403.569 253.029 403.569 c 3
 279.763832491 403.569 333.611010941 391.750455753 360.959 378.644 c 1
 379.758 320.925 l 1
EndSplineSet
Refer: 1970 58113 N 0.284488 0.177084 -0.547233 0.872389 113.819 489.958 2
Substitution2: "pcap-1" eth.pcap
Substitution2: "case-1" Eth
Substitution2: "smcp-1" eth.smcp
EndChar

StartChar: quotereversed
Encoding: 8219 8219 462
Width: 200
VWidth: 1159
Flags: W
HStem: 467.695 223.857
VStem: 41.0182 118.104
LayerCount: 2
Fore
SplineSet
145.645164062 467.695 m 1
 66.7591640625 518.862 41.0181640625 625.092 41.0181640625 632.523 c 1
 41.0181640625 637.569 42.5871640625 642.092 46.6331640625 643.615 c 0
 65.5197373047 652.002679687 79.570046875 665.368 90.4321640625 685.414 c 0
 92.0459990234 689.036103516 96.5241640625 691.552 101.570164062 691.552 c 3
 106.40421582 691.552 111.238267578 688.983 112.708164063 684.937 c 0
 121.067894531 665.156983399 135.892164063 653.184 154.507164063 643.615 c 0
 158.130665039 642.064516601 159.122164062 637.500990234 159.122164062 632.523 c 3
 159.122164062 627.397344726 158.076164062 621.749155274 154.030164063 619.908 c 0
 136.145104492 610.320367187 118.662164062 598.201 110.093164062 580.494 c 0
 100.242691406 559.58553125 128.599164062 516.557 162.599164062 488.402 c 1
 145.645164062 467.695 l 1
EndSplineSet
Position2: "cpsp-1" dx=0 dy=0 dh=7 dv=14
EndChar

StartChar: uni20B9
Encoding: 8377 8377 466
Width: 426
VWidth: 1159
UnlinkRmOvrlpSave: 1
Flags: W
HStem: -42 23<381.506 409> 283 31<32 113.386> 460.095 28.999<33.25 411.25> 637.095 28.999<33.25 33.25 33.5 411.25>
VStem: 248 79<400.509 544.149>
LayerCount: 2
Fore
SplineSet
33.25 666.09375 m 1
 411.25 666.09375 l 1
 411.25 637.094726562 l 1
 33.25 637.094726562 l 1
 33.25 666.09375 l 1
33.25 489.09375 m 1
 411.25 489.09375 l 1
 411.25 460.094726562 l 1
 33.25 460.094726562 l 1
 33.25 489.09375 l 1
32.5 666 m 1
 57.25390625 666 67.658203125 666 96 666 c 0
 222.431640625 666 327 583 327 480 c 0
 327 393 262.599609375 334 189 304 c 1
 265.474609375 110.581054688 332.772460938 -13.0947265625 412 -19 c 1
 409 -42 l 1
 258 -39 178 134 114 284 c 1
 100.875 283 89.2080078125 283 79 283 c 0
 60.6474609375 283 50.3525390625 285.400390625 32 286 c 1
 32 316 l 1
 49.912109375 315.5 59.087890625 314 77 314 c 3
 219.663085938 314 248 410.737304688 248 469 c 3
 248 534.418945312 188.37890625 638 75 638 c 3
 61.8720703125 638 35.193359375 638 33.5 638 c 1
 32.5 666 l 1
EndSplineSet
EndChar

StartChar: eng
Encoding: 331 331 467
Width: 499
VWidth: 1159
Flags: W
HStem: -319 60<162.258 279.828> -7 34<20.4 68.4075 170.315 228.824> 335 29<32 53.5363> 358 57<245.574 353.177>
VStem: 95 66<47.5359 302.396> 379 69<-89.8607 331.73>
LayerCount: 2
Fore
SplineSet
329 -267 m 0xdc
 284.360294118 -296 253 -319 194 -319 c 3
 162 -319 112 -308 87 -286 c 1
 88 -259 87 -259 136 -222 c 1
 165.972222222 -237.857142857 189.796296296 -259 219 -259 c 3
 247.822033898 -259 296.27809609 -258.437912348 316 -237 c 0
 342.595265849 -208.090672547 360.595200234 -175.050461911 367 -146 c 0
 373.749647059 -115.385402827 379 -41.9109823322 379 143 c 3
 379 192.5 376.549026451 266.820841347 374 287 c 0
 369 328.328358209 348 358 293 358 c 3xdc
 245 358 203 344.4 170 324 c 1
 168 234.329113924 161 109.430379747 161 71 c 3
 161 27.80589946 195.795590225 30.6204409775 232 27 c 1
 228 -7 l 1
 189 -1 159 4 117 4 c 3
 87 4 51 -1 21 -5 c 1
 18 28 l 1
 55.449092135 34.8089258427 78.318284601 37.5524032329 87 76 c 0
 94 107 95 167 95 199 c 3
 95 219 92.9313485794 287.976104104 86 308 c 0
 77 334 72 336 54 336 c 3
 44 336 41 335 32 335 c 1
 30 364 l 1xec
 67 371 104 375 154 416 c 1
 175 401 l 1
 170 387.056338028 167 366.915492958 167 346 c 1
 215 377 267 415 330 415 c 3
 403 415 448 375 448 304 c 3
 448 213.433607383 445 119.425469455 445 -84 c 3
 445 -134 432.819094368 -164.880515375 419 -186 c 0
 396.752808989 -220 368.44138087 -241.377070309 329 -267 c 0xdc
EndSplineSet
Substitution2: "smcp-1" eng.smcp
Substitution2: "case-1" Eng
Substitution2: "pcap-1" eng.pcap
EndChar

StartChar: Eng
Encoding: 330 330 468
Width: 836
VWidth: 1159
Flags: W
HStem: -241 62<483.653 578.44> -10 44<23.3182 86.8179 186.794 270.067> 655 39<771.217 833> 663 38<601.079 678.507>
VStem: 97 55<66.5393 314.07> 105 56<351.62 550> 676.266 70.7344<-86.2532 70.0219>
LayerCount: 2
Fore
SplineSet
628 -189 m 0xe6
 589 -216 552 -241 493 -241 c 3
 461 -241 411 -230 386 -208 c 1
 387.224489796 -178.046875 386 -178.046875 446 -137 c 1
 485 -155 508.349151158 -179 554 -179 c 3
 640.616503398 -179 676.265625 -76.9678502479 676.265625 -13.4755859375 c 3
 676.265625 48.2626834417 640.03404243 103.097021502 604 139.090820312 c 0
 459.896 279.614068929 313.026 416.065410818 161 550 c 1xe6
 152 154 l 2
 149.672574689 52.4216563039 186 44.674796748 277 35 c 1
 269 -11 l 1
 229.225006617 -2.55029543162 191.72886241 0.193359375 156.584960938 0.193359375 c 0
 107.789937357 0.193359375 63.5294692282 -6.59829339283 24 -10 c 1
 19 34 l 1
 77 34 94.2505340003 45.0370931165 97 93 c 0xea
 106 246.782786885 108.836453881 409.412965035 105 571 c 0
 104 614 69 649 12 648 c 1
 14 692 l 1
 53 688 104.987806691 684 146 684 c 0
 161 684 162.224003945 680.217054625 169 673 c 0
 318.792 516.927864326 473.300161891 367.004316767 636 223.227539062 c 0
 659.155 202.310678333 682.86 176.9488472 699 154 c 1
 708 281.98180798 710.135155394 409.964631854 709 545 c 0
 708 667 656 656 597 663 c 1
 602 701 l 1xd6
 658.737273127 693.806776525 706.285370634 691.3984375 751.0625 691.3984375 c 0
 778.931628397 691.3984375 805.747514379 692.483615703 833 694 c 1
 837 655 l 1
 788 649 766.708243919 651.026764413 763 609 c 0
 748 442.189493433 745 264.596148366 745 86 c 0
 745 63 747 43 747 0 c 3
 747 -86.94 692.388915009 -144.42305884 628 -189 c 0xe6
EndSplineSet
Position2: "cpsp-1" dx=0 dy=0 dh=50 dv=100
Substitution2: "c2pc-1" eng.pcap
Substitution2: "c2sc-1" eng.smcp
EndChar

StartChar: circumcombhigh
Encoding: 58081 58081 471
Width: 0
VWidth: 1159
Flags: W
HStem: 538.299 45.3818<-215.364 -179.636>
VStem: -323.78 252.56
LayerCount: 2
Fore
SplineSet
-71.2197 465.56 m 1
 -91.4875037266 450.319160242 l 1
 -117.0568465 476.878837 -191.227923188 538.299161 -197.2615 538.299161 c 1
 -203.294158142 538.299161 -287.107048208 467.230240875 -303.988768953 450.319160242 c 1
 -323.78 465.56 l 1
 -215.364 583.681 l 1
 -179.636 583.681 l 1
 -71.2197 465.56 l 1
EndSplineSet
EndChar

StartChar: a.pcap
Encoding: 57347 57347 643
Width: 472
VWidth: 1159
Flags: W
HStem: -4 25.046<40.201 72.5131 326.303 351.171 409.51 434.056> 139.908 27.138<168.799 300.823> 395 20G<234.587 264.257>
VStem: 236.862 24.799<373.007 415>
LayerCount: 2
Fore
SplineSet
168.799 167.046 m 1
 207.637529412 163.83475 264.600705882 164.477 300.85 164.477 c 1
 272.083666667 235.16989916 264.225 250.841789916 234.925 322.591 c 1
 204.61725 246.847347826 196.3515 231.969130435 168.799 167.046 c 1
328.39 -6.046 m 1
 328.39 -6.046 323.436 10.58024 320.959 17.046 c 1
 337.19878125 23.6237692308 353.965918416 30.6728521585 351.528 36.368 c 0
 335.83253125 79.5174318182 326.459875 97.6856136364 311.419 136.293 c 1
 285.844307087 139.954 194.50611811 142.046 156.753 139.908 c 1
 139.785 100.688413793 127.478578114 76.194824588 113.121 39.552 c 0
 109.966152277 29.8356869312 127.319709091 19.9935862069 159.058 19.615 c 1
 154.242 -7 l 1
 141.089530632 -2.9169921875 115.949495411 -0.875 92.8076171875 -0.875 c 3
 71.8214041203 -0.875 52.1281018194 -1.9169921875 40.201 -4 c 1
 40.201 -2.07338461539 37.55875 12.3762307692 36.678 21.046 c 1
 65.5955769231 24.7104 76.1087965871 35.5942223767 77.707 39.368 c 0
 135.3765 161.162486154 184.877856532 272.525900713 226 372 c 0
 233.115826359 389.171276219 232.31175 393.816 236.862 415 c 1
 261.661 415 l 1
 266.8535 395 263.588186113 395.84032753 272.046 373 c 0
 317.737134328 244 349.526065688 158.916352728 407 37 c 0
 412.399403071 26.0568955576 428.933571428 21 437.707 21 c 1
 437.707 19 435.799 5 432.891 -3 c 1
 421.034625111 -0.380859375 404.666815238 1.0947265625 388.015382812 1.0947265625 c 3
 365.453751878 1.0947265625 342.395272499 -1.075316894 328.39 -6.046 c 1
EndSplineSet
EndChar

StartChar: b.pcap
Encoding: 57348 57348 644
Width: 444
VWidth: 1159
Flags: W
HStem: -3 25.569<63 113.977 181.586 296.21> 205.523 19<166.644 249.201> 381.431 25.569<64 102.274 171.391 259.132>
VStem: 117.54 49.627<28.8196 168 224.523 377.797> 292.034 52.242<253.366 357.942> 337.758 52.242<50.1829 166.546>
LayerCount: 2
Fore
SplineSet
61 22 m 1xf4
 77.9423329161 23.6215454545 116.494 23.2310588966 117.54 44.029 c 0
 118.586 45.1260884956 119.632 99.9805132744 119.632 168 c 3
 119.632 262.315160121 116.997217714 344.2843254 117.017 345.402 c 0
 116.754923077 366.017454545 116.003045782 374.682534422 102.586 377.954 c 0
 96.2869411278 378.792558897 66.2626470589 381.954 60 382.954 c 1
 64 407 l 1
 72 407 104 401 136 401 c 3
 166 401 207 407 236 407 c 3
 311.033368421 407 344.276 342 344.276 305 c 3xf8
 344.276 264.540240964 301.836457143 228.126457831 282.385 221.046 c 1
 341.084090909 208.82292324 390 166.041670423 390 109 c 1
 390 41.5927734375 330 -3 239 -3 c 3
 209 -3 171 1 138 1 c 3
 103 1 69 -2 63 -2 c 1
 61 22 l 1xf4
226 226 m 0
 263.323565217 230.4471875 292.034 264.12390625 292.034 297.155 c 3
 292.034 321.5014 273.746107143 381.431 225.54 381.431 c 3
 219.9625 381.431 186.570969591 378.774614717 180.92 378.523 c 0
 170.529455543 376.757758652 170.828 365.178835561 169.782 357.678 c 0
 167.167 291.1005 167.167 226.636571429 166.644 224.523 c 1
 219.54826087 224.523 224.386000546 225.368698754 226 226 c 0
215 205 m 3
 211.159703071 205 160.811 205.523 166.121 205.523 c 1
 166.121 147.678792382 165.979642667 92.1946680779 167.167 56.782 c 0
 167.72425533 37.5698504346 169.569344567 32.0096229717 181.351 28.661 c 0
 185.819657895 27.138 226.037578948 22.569 237.954 22.569 c 3
 303.15928 22.569 337.758 55.6949905063 337.758 105.385 c 3xf4
 337.758 155.696068474 303.588247423 205 215 205 c 3
EndSplineSet
EndChar

StartChar: c.pcap
Encoding: 57349 57349 645
Width: 500
VWidth: 1159
Flags: W
HStem: -6 26.615<231.831 362.551> 388.431 25.569<226.35 365.646>
VStem: 56 56.426<120.029 292.03> 393 24<302.184 351.53> 422 21<86.6805 107>
LayerCount: 2
Fore
SplineSet
56 200 m 3
 56 304.921875 136 414 307 414 c 3
 333 414 362.645664417 412.322287539 387 405 c 0
 417.3155324 396.2434892 424.635235294 399.615 439.431 401.046 c 1
 457 391 l 1
 430 357 418 338 417 319 c 0
 416 300 412 301 393 301 c 1
 391 329.879 401.017 355.448 384.879 366.155 c 0
 356.923204968 381.954290015 334.51615 388.431 299.155 388.431 c 3
 194.58676 388.431 112.426 322.573088878 112.426 207.322 c 3
 112.426 91.9742198953 208.438222222 20.615 295.414 20.615 c 3
 385.987260466 20.615 405.586 67.971 422 111 c 1
 443 105 l 1
 438 73 435 60 429 27 c 1
 392 9 339 -6 286 -6 c 3
 174 -6 56 73 56 200 c 3
EndSplineSet
EndChar

StartChar: d.pcap
Encoding: 57350 57350 646
Width: 560
VWidth: 1159
Flags: W
HStem: -5 26.615<62 103.205 157.993 333.412> 384.477 24.523<60 98 163.978 326.648>
VStem: 106.984 47.7018<29.9609 375.324> 449.143 54.857<108.119 290.747>
LayerCount: 2
Fore
SplineSet
244.862 21.615 m 3
 381.810156425 21.615 449.143 90.7037951183 449.143 203.477 c 3
 449.143 312.076609375 364.701966102 384.477 253.54 384.477 c 3
 233.1925 384.477 206.635150047 379.321659332 172.15 374.908 c 0
 158.219949269 372.321410034 157.285725969 367.19906863 157.15 352.908 c 0
 155.614461355 282.989031804 154.685959189 224.884744812 154.685959189 163.376067263 c 3
 154.685959189 129.590220604 155.206470381 94.8482246687 156.104 56.799 c 0
 156.104 39.644 159.347716628 33.2045292687 173.104 29.799 c 0
 191.823478261 26.661 215.216292301 21.615 244.862 21.615 c 3
60 404 m 1
 85 403 111 401 136 401 c 3
 186 401 213 409 263 409 c 3
 426 409 504 303.909179688 504 205 c 3
 504 42.3525390625 365 -5 249 -5 c 3
 207 -5 183 -1 140 -1 c 3
 96 -1 81 -4 62 -7 c 1
 61 18 l 1
 91.3174285714 21.961 103.544063173 18.396075304 104.908 46.368 c 0
 106.357499931 86.3328260123 106.984157786 134.325448136 106.984157786 181.330678414 c 3
 106.984157786 248.584835938 106.154677055 313.263943386 103.816 347 c 0
 101.594718619 379.140608659 101.6252 376.892451613 60 378.954 c 1
 60 404 l 1
EndSplineSet
EndChar

StartChar: e.pcap
Encoding: 57351 57351 647
Width: 468
VWidth: 1159
Flags: W
HStem: -6 23<67.1739 99.9022> -0.384672 25.2501<166.629 347.978> 192 24<156.966 325.267> 375.939 25.442<165.572 349.425> 385 19<63 95.6602>
VStem: 107.385 49.581<47.1159 192 216 372.96> 339 23<135.174 181.242> 358 20<303 359.704> 397 19<101.812 116.842>
LayerCount: 2
Fore
SplineSet
63 404 m 1xae80
 103.716719432 402.132260577 156.294170747 401.38082533 207.075831097 401.38082533 c 3
 292.238349339 401.38082533 372.35031404 403.494191539 383 406 c 1
 390.208111566 399.821618658 392.821397686 394.350133538 392.821397686 386.87609291 c 3
 392.821397686 372.575379949 383.254052737 350.943231223 378 303 c 1
 358 301 l 1x3580
 353.477 328.218 367.295831891 358.694970363 350.925 367.586 c 0
 318.949765017 373.028438842 286.035739945 375.938871798 241.11365239 375.938871798 c 3
 219.347341694 375.938871798 197.426756041 375.094023834 178.673 373.339 c 0
 169.646659956 372.846185055 162.673 361.510526316 162.673 352.908 c 0
 160.058 304.833722396 157.966 259.893948698 156.966 216 c 1
 202.71620339 216 291.017 217 306.925 218.569 c 0
 329.623236102 221.184 329.989630435 237.117042553 341 267 c 1
 362 263 l 1
 357.43132713 246.552777669 355.576114593 226.348456416 355.576114593 205.820027424 c 3
 355.576114593 181.41543193 358.198071009 156.552777669 362 137 c 1
 339 131 l 1
 327.9222 190.966072727 330.515759714 185.724 306.402 188.862 c 0
 273.194 192.523 223.382 192 156.966 192 c 1
 156.489 133.523396942 156.316852986 84.3697749779 162.765 45.276 c 0
 163.846043279 37.1587133376 169.661029077 31.4033124006 178.765 30.276 c 0
 217.061091554 27.1024255398 247.965869759 24.8654698599 277.913392582 24.8654698599 c 3
 300.741707217 24.8654698599 335.174303291 26.5481971664 350.218 38.937 c 0
 374.431 61.075 380.77 89.77 397 120 c 1
 416 115 l 1
 407 75 398 33 391 -4 c 1
 327.763113226 -2.83969015085 258.690885532 -0.384671863407 194.928927487 -0.384671863407 c 3x7680
 147.722224945 -0.384671863407 103.918409428 -1.74165738677 69 -6 c 1
 63 17 l 1
 98.4508571429 23.523 105.265353317 23.8697841274 107.385 53 c 1
 109.324280778 77.8029804525 110.133582353 141.57388693 110.133582353 207.545044419 c 3
 110.133582353 267.721717716 110.09313128 326.005338313 108.908 347 c 0
 107.617663387 375.037829066 104.724 375.523 60 385 c 1
 63 404 l 1xae80
EndSplineSet
EndChar

StartChar: f.pcap
Encoding: 57352 57352 648
Width: 439
VWidth: 1159
Flags: W
HStem: -6 23<72.1739 94.6323> 189 28<184 307.35> 381 21<64 97.5596> 394 20G<363.972 372.887>
VStem: 116.138 66.8616<36.4442 189 217 370.948> 329 23<133.174 169.278> 358 21<305 337.985>
LayerCount: 2
Fore
SplineSet
257 -9 m 1xde
 225.3281573 -1.08203932499 196.72135955 2.65631459995 165.884572849 2.65631459995 c 3
 138.30331234 2.65631459995 108.93806067 -0.334368540005 74 -6 c 1
 68 17 l 1
 96 25 111 34 114 67 c 1
 115.392304845 83.6587099277 116.138438763 136.543798164 116.138438763 192.542328907 c 3
 116.138438763 257.203862505 115.143593539 326.016652779 113 348 c 0
 111 369 98 373 60 381 c 1
 64 402 l 1xee
 97.6728004421 400.426504652 139.664583252 399.546257835 181.498092776 399.546257835 c 3
 272.596369746 399.546257835 362.944097209 403.720486043 365 414 c 1
 380.774414062 406.60546875 385 398 385 383 c 3
 385 367 380.521484375 343.536132812 379 305 c 1
 358 303 l 1
 352 320 353 346 328 358 c 0
 291 376 241 377 200 371 c 0
 191 370 189 362 189 352 c 0
 185 305.625976562 184 259.251953125 184 217 c 1
 213 217 278 220 286 221 c 0
 314 226 321 248 332 271 c 1
 354 267 l 1
 348.852299546 247.953508322 346.619469288 223.342264451 346.619469288 198.895403866 c 3
 346.619469288 175.851426929 348.603390318 152.953508322 352 135 c 1
 329 129 l 1
 318 179 315 183 286 187 c 0
 259 192 238 191 183 189 c 1
 186 129.5 185 99.75 190 70 c 0
 195 41 197 26 261 26 c 1
 257 -9 l 1xde
EndSplineSet
EndChar

StartChar: g.pcap
Encoding: 57353 57353 649
Width: 543
VWidth: 1159
Flags: W
HStem: -6 26.092<233.207 381.19> 183 22<315 406.022> 385.908 26.092<237.018 368.169>
VStem: 56 54.857<122.322 285.328> 414.942 49.058<40.7867 176.664> 437 21<299.667 323.441>
LayerCount: 2
Fore
SplineSet
56 205 m 3xf8
 56 368 235 412 318 412 c 1
 354 412 381.104628306 400.450842923 409 394 c 0
 417 392 424.908 391.23 428 407 c 1
 446 406 l 1
 458 301 l 1
 437 297 l 1xf4
 417.494 375.787 330.709464616 385.908 306.494 385.908 c 3
 204.715016685 385.908 110.857 308.190793208 110.857 208.138 c 1
 110.857 101.552 197.262907515 20.092 300.075 20.092 c 1
 327.636966235 20.092 369.31 27.431 405.327 40.661 c 0
 412.007932759 43.1780098313 414.942 56.3379 414.942 65.414 c 0
 414.942 91.3969672131 417.896 121.678 418.419 148.833 c 0
 417.896 167.168883689 413.896 176.523 365 181 c 0
 345.970659139 182.660347356 333 183 314 183 c 1
 315 205 l 1
 374 199 458 200 487 204 c 1
 489 187 l 1
 472.092 181.569 469.323327004 175.822137116 468 151 c 0
 466.622839744 120.016986179 465.419664439 93.0322620565 464 68 c 0
 463 43.845 465.569 43.092 480 33 c 1
 478 19 l 1
 432 12 320 -6 288 -6 c 1
 158 -6 56 78 56 205 c 3xf8
EndSplineSet
EndChar

